<svg width="186" height="186" viewBox="0 0 186 186" fill="none" xmlns="http://www.w3.org/2000/svg">
<g filter="url(#filter0_f_186_63)">
<circle cx="93.3547" cy="93.3548" r="42.5" transform="rotate(-15.583 93.3547 93.3548)" fill="#000AFF" fill-opacity="0.2"/>
</g>
<g filter="url(#filter1_bdii_186_63)">
<rect x="50.855" y="69.3907" width="70" height="70" rx="10" transform="rotate(-15.583 50.855 69.3907)" fill="white" fill-opacity="0.1" shape-rendering="crispEdges"/>
<rect x="51.163" y="69.5644" width="69.5" height="69.5" rx="9.75" transform="rotate(-15.583 51.163 69.5644)" stroke="white" stroke-opacity="0.16" stroke-width="0.5" shape-rendering="crispEdges"/>
</g>
<path fill-rule="evenodd" clip-rule="evenodd" d="M91.2239 77.3385C91.0992 76.8914 91.1572 76.4131 91.3852 76.0088C91.6132 75.6045 91.9924 75.3074 92.4395 75.1827L96.0038 74.1886C96.3936 74.08 96.8091 74.1098 97.1794 74.2731C97.5497 74.4363 97.852 74.7228 98.0348 75.0838C98.7639 76.5193 99.9681 77.6577 101.442 78.3051C102.916 78.9525 104.569 79.069 106.12 78.6346C106.567 78.5099 107.045 78.568 107.449 78.7959C107.854 79.0239 108.151 79.4031 108.275 79.8502L109.216 83.2215C109.34 83.6686 109.282 84.1469 109.054 84.5512C108.826 84.9555 108.447 85.2526 108 85.3773C105.633 86.0411 103.133 86.0667 100.754 85.4516L104.548 99.0575C105.199 101.391 105.143 103.866 104.388 106.168C103.632 108.47 102.211 110.496 100.304 111.99C98.3972 113.485 96.0898 114.38 93.6739 114.563C91.258 114.746 88.8421 114.209 86.7316 113.019C84.6212 111.829 82.911 110.04 81.8174 107.878C80.7237 105.716 80.2958 103.278 80.5875 100.873C80.8793 98.4678 81.8778 96.2031 83.4566 94.3654C85.0355 92.5276 87.1239 91.1994 89.4576 90.5485C89.9047 90.4238 90.383 90.4819 90.7873 90.7098C91.1916 90.9378 91.4887 91.317 91.6134 91.7641L92.5536 95.1354C92.6783 95.5825 92.6203 96.0608 92.3923 96.4651C92.1644 96.8694 91.7851 97.1665 91.3381 97.2912C90.3379 97.5702 89.4429 98.1394 88.7662 98.927C88.0896 99.7146 87.6616 100.685 87.5366 101.716C87.4115 102.747 87.595 103.791 88.0637 104.718C88.5324 105.645 89.2653 106.411 90.1698 106.921C91.0743 107.431 92.1097 107.662 93.145 107.583C94.1804 107.505 95.1693 107.121 95.9866 106.481C96.8039 105.84 97.4129 104.972 97.7367 103.985C98.0604 102.999 98.0843 101.938 97.8054 100.938L91.2239 77.3385Z" fill="#FE2C55"/>
<path fill-rule="evenodd" clip-rule="evenodd" d="M89.0681 76.1229C88.9434 75.6758 89.0014 75.1975 89.2294 74.7933C89.4574 74.389 89.8366 74.0918 90.2837 73.9671L93.848 72.9731C94.2379 72.8644 94.6533 72.8943 95.0236 73.0575C95.3939 73.2207 95.6962 73.5072 95.879 73.8683C96.6082 75.3037 97.8123 76.4421 99.2864 77.0895C100.761 77.7369 102.413 77.8534 103.964 77.4191C104.411 77.2944 104.889 77.3524 105.293 77.5804C105.698 77.8083 105.995 78.1875 106.12 78.6346L107.06 82.006C107.185 82.453 107.126 82.9313 106.899 83.3356C106.671 83.7399 106.291 84.0371 105.844 84.1617C103.478 84.8255 100.978 84.8511 98.5978 84.236L102.392 97.8419C103.043 100.176 102.987 102.65 102.232 104.952C101.477 107.254 100.055 109.28 98.1484 110.775C96.2414 112.269 93.934 113.165 91.5181 113.348C89.1022 113.531 86.6863 112.993 84.5759 111.803C82.4654 110.613 80.7552 108.824 79.6616 106.662C78.568 104.5 78.14 102.063 78.4318 99.6574C78.7235 97.2522 79.722 94.9875 81.3009 93.1498C82.8797 91.3121 84.9681 89.9838 87.3018 89.3329C87.7489 89.2083 88.2272 89.2663 88.6315 89.4942C89.0358 89.7222 89.3329 90.1014 89.4576 90.5485L90.3978 93.9199C90.5225 94.3669 90.4645 94.8452 90.2365 95.2495C90.0086 95.6538 89.6293 95.951 89.1823 96.0756C88.1821 96.3546 87.2871 96.9238 86.6104 97.7114C85.9338 98.499 85.5059 99.4696 85.3808 100.5C85.2558 101.531 85.4392 102.576 85.9079 103.502C86.3766 104.429 87.1095 105.196 88.014 105.706C88.9185 106.216 89.9539 106.446 90.9893 106.368C92.0246 106.289 93.0135 105.905 93.8308 105.265C94.6481 104.625 95.2571 103.756 95.5809 102.77C95.9046 101.783 95.9286 100.723 95.6496 99.7223L89.0681 76.1229Z" fill="#25F4EE"/>
<path fill-rule="evenodd" clip-rule="evenodd" d="M89.164 106.186C90.0007 106.968 91.0702 107.455 92.2094 107.572C93.3486 107.69 94.4951 107.432 95.474 106.838C96.4529 106.243 97.2106 105.345 97.6315 104.28C98.0524 103.215 98.1135 102.041 97.8054 100.938L91.2239 77.3385C91.0992 76.8914 91.1572 76.4131 91.3852 76.0088C91.6131 75.6045 91.9924 75.3074 92.4394 75.1827L96.0038 74.1886L96.0453 74.178C96.8785 75.6341 98.2106 76.7395 99.7955 77.2898C100.662 78.0086 101.691 78.5064 102.792 78.7406C103.893 78.9748 105.035 78.9385 106.12 78.6346L107.06 82.006C107.184 82.453 107.126 82.9313 106.899 83.3356C106.671 83.7399 106.291 84.0371 105.844 84.1618C103.478 84.8255 100.978 84.8511 98.5978 84.236L102.392 97.8419C103.015 100.074 102.992 102.437 102.325 104.657C101.658 106.876 100.376 108.861 98.6265 110.381C96.877 111.9 94.7324 112.893 92.4416 113.243C90.1507 113.592 87.8077 113.285 85.6844 112.357C83.7911 111.02 82.3157 109.174 81.4294 107.033C80.5431 104.892 80.2824 102.543 80.6775 100.26C81.0726 97.9764 82.1072 95.8518 83.6614 94.1329C85.2155 92.4139 87.2254 91.171 89.4576 90.5485L90.3978 93.9199C90.5225 94.3669 90.4645 94.8452 90.2365 95.2495C90.0086 95.6538 89.6293 95.951 89.1823 96.0756C88.0789 96.3829 87.1064 97.0425 86.4128 97.9539C85.7192 98.8653 85.3427 99.9784 85.3406 101.124C85.3385 102.269 85.711 103.384 86.4013 104.297C87.0916 105.211 88.0618 105.874 89.164 106.186Z" fill="white"/>
<defs>
<filter id="filter0_f_186_63" x="0.843918" y="0.843933" width="185.022" height="185.022" filterUnits="userSpaceOnUse" color-interpolation-filters="sRGB">
<feFlood flood-opacity="0" result="BackgroundImageFix"/>
<feBlend mode="normal" in="SourceGraphic" in2="BackgroundImageFix" result="shape"/>
<feGaussianBlur stdDeviation="25" result="effect1_foregroundBlur_186_63"/>
</filter>
<filter id="filter1_bdii_186_63" x="38.1712" y="37.9026" width="111.599" height="111.599" filterUnits="userSpaceOnUse" color-interpolation-filters="sRGB">
<feFlood flood-opacity="0" result="BackgroundImageFix"/>
<feGaussianBlur in="BackgroundImageFix" stdDeviation="7.5"/>
<feComposite in2="SourceAlpha" operator="in" result="effect1_backgroundBlur_186_63"/>
<feColorMatrix in="SourceAlpha" type="matrix" values="0 0 0 0 0 0 0 0 0 0 0 0 0 0 0 0 0 0 127 0" result="hardAlpha"/>
<feOffset dy="4"/>
<feGaussianBlur stdDeviation="3.85"/>
<feComposite in2="hardAlpha" operator="out"/>
<feColorMatrix type="matrix" values="0 0 0 0 0 0 0 0 0 0 0 0 0 0 0 0 0 0 0.05 0"/>
<feBlend mode="normal" in2="effect1_backgroundBlur_186_63" result="effect2_dropShadow_186_63"/>
<feBlend mode="normal" in="SourceGraphic" in2="effect2_dropShadow_186_63" result="shape"/>
<feColorMatrix in="SourceAlpha" type="matrix" values="0 0 0 0 0 0 0 0 0 0 0 0 0 0 0 0 0 0 127 0" result="hardAlpha"/>
<feOffset dx="-4" dy="-4"/>
<feGaussianBlur stdDeviation="5"/>
<feComposite in2="hardAlpha" operator="arithmetic" k2="-1" k3="1"/>
<feColorMatrix type="matrix" values="0 0 0 0 0.996078 0 0 0 0 0.172549 0 0 0 0 0.333333 0 0 0 0.42 0"/>
<feBlend mode="normal" in2="shape" result="effect3_innerShadow_186_63"/>
<feColorMatrix in="SourceAlpha" type="matrix" values="0 0 0 0 0 0 0 0 0 0 0 0 0 0 0 0 0 0 127 0" result="hardAlpha"/>
<feOffset dx="4" dy="4"/>
<feGaussianBlur stdDeviation="5"/>
<feComposite in2="hardAlpha" operator="arithmetic" k2="-1" k3="1"/>
<feColorMatrix type="matrix" values="0 0 0 0 0.145098 0 0 0 0 0.956863 0 0 0 0 0.933333 0 0 0 0.3 0"/>
<feBlend mode="normal" in2="effect3_innerShadow_186_63" result="effect4_innerShadow_186_63"/>
</filter>
</defs>
</svg>
