<svg width="264" height="50" viewBox="0 0 264 50" fill="none" xmlns="http://www.w3.org/2000/svg">
<path d="M264 42C264 46.4183 260.418 50 256 50L36.1589 50C33.4215 50 30.8742 48.6003 29.4063 46.2897L1.95181 3.07243C1.10596 1.74091 2.0625 0 3.63998 0H259C261.761 0 264 2.23857 264 5L264 42Z" fill="url(#paint0_linear_49_15)"/>
<path d="M70.9 33.0124C70.1667 33.0124 69.6 32.8124 69.2 32.4124C68.8 31.9957 68.6 31.4207 68.6 30.6874V17.2624C68.6 16.4957 68.8 15.9207 69.2 15.5374C69.6 15.1374 70.1667 14.9374 70.9 14.9374C71.65 14.9374 72.2167 15.1374 72.6 15.5374C73 15.9207 73.2 16.4957 73.2 17.2624V22.2124H75.325L74.675 22.6624L78.575 16.1124C78.8917 15.5957 79.2667 15.254 79.7 15.0874C80.1333 14.904 80.5583 14.8624 80.975 14.9624C81.4083 15.0624 81.775 15.2707 82.075 15.5874C82.3917 15.8874 82.575 16.2707 82.625 16.7374C82.675 17.1874 82.5333 17.679 82.2 18.2124L78.775 23.6124L76.925 22.3874C78.0917 22.604 79.0583 23.0207 79.825 23.6374C80.6083 24.254 81.2917 25.154 81.875 26.3374L83.55 29.7624C83.85 30.379 83.9417 30.9207 83.825 31.3874C83.725 31.854 83.4917 32.229 83.125 32.5124C82.7583 32.7957 82.3417 32.9624 81.875 33.0124C81.4083 33.0624 80.9583 32.9707 80.525 32.7374C80.0917 32.504 79.75 32.1207 79.5 31.5874L77.8 27.8374C77.4833 27.154 77.0917 26.6707 76.625 26.3874C76.1583 26.104 75.5583 25.9624 74.825 25.9624H73.2V30.6874C73.2 31.4207 73.0083 31.9957 72.625 32.4124C72.2417 32.8124 71.6667 33.0124 70.9 33.0124ZM87.0275 33.0124C86.5109 33.0124 86.0775 32.8957 85.7275 32.6624C85.3775 32.4124 85.1609 32.079 85.0775 31.6624C84.9942 31.229 85.0692 30.7457 85.3025 30.2124L91.5275 16.8124C91.8275 16.1624 92.1942 15.6874 92.6275 15.3874C93.0775 15.0874 93.5859 14.9374 94.1525 14.9374C94.7192 14.9374 95.2109 15.0874 95.6275 15.3874C96.0609 15.6874 96.4359 16.1624 96.7525 16.8124L102.978 30.2124C103.244 30.7457 103.336 31.229 103.253 31.6624C103.186 32.0957 102.978 32.429 102.628 32.6624C102.294 32.8957 101.878 33.0124 101.378 33.0124C100.711 33.0124 100.194 32.8624 99.8275 32.5624C99.4775 32.2624 99.1609 31.779 98.8775 31.1124L97.5275 27.9374L99.2775 29.2124H88.9775L90.7525 27.9374L89.4025 31.1124C89.1025 31.779 88.7942 32.2624 88.4775 32.5624C88.1609 32.8624 87.6775 33.0124 87.0275 33.0124ZM94.1025 19.9624L91.2025 26.8874L90.5025 25.6874H97.7775L97.0775 26.8874L94.1525 19.9624H94.1025ZM109.523 33.0124C108.789 33.0124 108.223 32.8124 107.823 32.4124C107.423 31.9957 107.223 31.4207 107.223 30.6874V18.9124H103.298C102.681 18.9124 102.206 18.754 101.873 18.4374C101.556 18.104 101.398 17.6374 101.398 17.0374C101.398 16.4207 101.556 15.954 101.873 15.6374C102.206 15.3207 102.681 15.1624 103.298 15.1624H115.748C116.364 15.1624 116.831 15.3207 117.148 15.6374C117.481 15.954 117.648 16.4207 117.648 17.0374C117.648 17.6374 117.481 18.104 117.148 18.4374C116.831 18.754 116.364 18.9124 115.748 18.9124H111.823V30.6874C111.823 31.4207 111.631 31.9957 111.248 32.4124C110.864 32.8124 110.289 33.0124 109.523 33.0124ZM117.789 33.0124C117.273 33.0124 116.839 32.8957 116.489 32.6624C116.139 32.4124 115.923 32.079 115.839 31.6624C115.756 31.229 115.831 30.7457 116.064 30.2124L122.289 16.8124C122.589 16.1624 122.956 15.6874 123.389 15.3874C123.839 15.0874 124.348 14.9374 124.914 14.9374C125.481 14.9374 125.973 15.0874 126.389 15.3874C126.823 15.6874 127.198 16.1624 127.514 16.8124L133.739 30.2124C134.006 30.7457 134.098 31.229 134.014 31.6624C133.948 32.0957 133.739 32.429 133.389 32.6624C133.056 32.8957 132.639 33.0124 132.139 33.0124C131.473 33.0124 130.956 32.8624 130.589 32.5624C130.239 32.2624 129.923 31.779 129.639 31.1124L128.289 27.9374L130.039 29.2124H119.739L121.514 27.9374L120.164 31.1124C119.864 31.779 119.556 32.2624 119.239 32.5624C118.923 32.8624 118.439 33.0124 117.789 33.0124ZM124.864 19.9624L121.964 26.8874L121.264 25.6874H128.539L127.839 26.8874L124.914 19.9624H124.864ZM149.657 33.0124C148.923 33.0124 148.357 32.8124 147.957 32.4124C147.557 31.9957 147.357 31.4124 147.357 30.6624V18.9124H142.757V21.7874C142.757 23.0707 142.657 24.254 142.457 25.3374C142.257 26.4207 141.965 27.4124 141.582 28.3124C141.198 29.2124 140.723 30.0207 140.157 30.7374C139.59 31.454 138.948 32.0707 138.232 32.5874C137.732 32.954 137.215 33.0874 136.682 32.9874C136.148 32.904 135.682 32.6124 135.282 32.1124C134.898 31.5957 134.765 31.079 134.882 30.5624C134.998 30.0457 135.307 29.5874 135.807 29.1874C136.307 28.7874 136.723 28.3207 137.057 27.7874C137.407 27.2374 137.69 26.6124 137.907 25.9124C138.14 25.1957 138.307 24.3957 138.407 23.5124C138.507 22.629 138.557 21.654 138.557 20.5874V17.5374C138.557 16.7707 138.757 16.1874 139.157 15.7874C139.573 15.3707 140.165 15.1624 140.932 15.1624H149.557C150.323 15.1624 150.915 15.3707 151.332 15.7874C151.748 16.1874 151.957 16.7707 151.957 17.5374V30.6624C151.957 31.4124 151.757 31.9957 151.357 32.4124C150.957 32.8124 150.39 33.0124 149.657 33.0124ZM163.648 33.0624C161.865 33.0624 160.298 32.6874 158.948 31.9374C157.598 31.1707 156.548 30.104 155.798 28.7374C155.065 27.3707 154.698 25.779 154.698 23.9624C154.698 22.5957 154.906 21.354 155.323 20.2374C155.756 19.1207 156.365 18.1624 157.148 17.3624C157.948 16.5624 158.898 15.954 159.998 15.5374C161.098 15.104 162.315 14.8874 163.648 14.8874C165.431 14.8874 166.99 15.2624 168.323 16.0124C169.673 16.7624 170.723 17.8207 171.473 19.1874C172.223 20.5374 172.598 22.129 172.598 23.9624C172.598 25.329 172.381 26.5707 171.948 27.6874C171.531 28.804 170.923 29.7707 170.123 30.5874C169.34 31.3874 168.398 32.004 167.298 32.4374C166.198 32.854 164.981 33.0624 163.648 33.0624ZM163.648 29.2124C164.531 29.2124 165.281 29.004 165.898 28.5874C166.515 28.1707 166.99 27.5707 167.323 26.7874C167.656 26.004 167.823 25.0624 167.823 23.9624C167.823 22.3124 167.456 21.029 166.723 20.1124C165.99 19.1957 164.965 18.7374 163.648 18.7374C162.781 18.7374 162.031 18.9457 161.398 19.3624C160.781 19.7624 160.306 20.354 159.973 21.1374C159.64 21.904 159.473 22.8457 159.473 23.9624C159.473 25.6124 159.84 26.904 160.573 27.8374C161.306 28.754 162.331 29.2124 163.648 29.2124ZM177.614 33.0124C176.881 33.0124 176.314 32.8124 175.914 32.4124C175.514 31.9957 175.314 31.4207 175.314 30.6874V17.5374C175.314 16.7707 175.514 16.1874 175.914 15.7874C176.331 15.3707 176.922 15.1624 177.689 15.1624H186.089C186.706 15.1624 187.172 15.3207 187.489 15.6374C187.822 15.954 187.989 16.4207 187.989 17.0374C187.989 17.6374 187.822 18.104 187.489 18.4374C187.172 18.754 186.706 18.9124 186.089 18.9124H179.914V30.6874C179.914 31.4207 179.722 31.9957 179.339 32.4124C178.956 32.8124 178.381 33.0124 177.614 33.0124Z" fill="#23223E"/>
<path d="M215 17H234.5" stroke="#23223E" stroke-width="4" stroke-linecap="round" stroke-linejoin="round"/>
<path d="M215 23H234.5" stroke="#23223E" stroke-width="4" stroke-linecap="round" stroke-linejoin="round"/>
<path d="M215 29H234.5" stroke="#23223E" stroke-width="4" stroke-linecap="round" stroke-linejoin="round"/>
<defs>
<linearGradient id="paint0_linear_49_15" x1="259.834" y1="50.0004" x2="0.845569" y2="-4.05084" gradientUnits="userSpaceOnUse">
<stop stop-color="#00EFD1"/>
<stop offset="1" stop-color="#00A8A8"/>
</linearGradient>
</defs>
</svg>
