<svg width="264" height="50" viewBox="0 0 264 50" fill="none" xmlns="http://www.w3.org/2000/svg">
<path d="M0 8C0 3.58172 3.58172 0 8 0H229.009C231.798 0 234.386 1.45274 235.839 3.83393L262.145 46.9585C262.958 48.2912 261.998 50 260.437 50H7.99999C3.58171 50 0 46.4183 0 42V8Z" fill="url(#paint0_linear_27_159)"/>
<path d="M34.9 34.225C34.1667 34.225 33.6 34.025 33.2 33.625C32.8 33.2083 32.6 32.6333 32.6 31.9V18.475C32.6 17.7083 32.8 17.1333 33.2 16.75C33.6 16.35 34.1667 16.15 34.9 16.15C35.65 16.15 36.2167 16.35 36.6 16.75C37 17.1333 37.2 17.7083 37.2 18.475V23.425H39.325L38.675 23.875L42.575 17.325C42.8917 16.8083 43.2667 16.4667 43.7 16.3C44.1333 16.1167 44.5583 16.075 44.975 16.175C45.4083 16.275 45.775 16.4833 46.075 16.8C46.3917 17.1 46.575 17.4833 46.625 17.95C46.675 18.4 46.5333 18.8917 46.2 19.425L42.775 24.825L40.925 23.6C42.0917 23.8167 43.0583 24.2333 43.825 24.85C44.6083 25.4667 45.2917 26.3667 45.875 27.55L47.55 30.975C47.85 31.5917 47.9417 32.1333 47.825 32.6C47.725 33.0667 47.4917 33.4417 47.125 33.725C46.7583 34.0083 46.3417 34.175 45.875 34.225C45.4083 34.275 44.9583 34.1833 44.525 33.95C44.0917 33.7167 43.75 33.3333 43.5 32.8L41.8 29.05C41.4833 28.3667 41.0917 27.8833 40.625 27.6C40.1583 27.3167 39.5583 27.175 38.825 27.175H37.2V31.9C37.2 32.6333 37.0083 33.2083 36.625 33.625C36.2417 34.025 35.6667 34.225 34.9 34.225ZM51.0275 34.225C50.5109 34.225 50.0775 34.1083 49.7275 33.875C49.3775 33.625 49.1609 33.2917 49.0775 32.875C48.9942 32.4417 49.0692 31.9583 49.3025 31.425L55.5275 18.025C55.8275 17.375 56.1942 16.9 56.6275 16.6C57.0775 16.3 57.5859 16.15 58.1525 16.15C58.7192 16.15 59.2109 16.3 59.6275 16.6C60.0609 16.9 60.4359 17.375 60.7525 18.025L66.9775 31.425C67.2442 31.9583 67.3359 32.4417 67.2525 32.875C67.1859 33.3083 66.9775 33.6417 66.6275 33.875C66.2942 34.1083 65.8775 34.225 65.3775 34.225C64.7109 34.225 64.1942 34.075 63.8275 33.775C63.4775 33.475 63.1609 32.9917 62.8775 32.325L61.5275 29.15L63.2775 30.425H52.9775L54.7525 29.15L53.4025 32.325C53.1025 32.9917 52.7942 33.475 52.4775 33.775C52.1609 34.075 51.6775 34.225 51.0275 34.225ZM58.1025 21.175L55.2025 28.1L54.5025 26.9H61.7775L61.0775 28.1L58.1525 21.175H58.1025ZM73.5227 34.225C72.7893 34.225 72.2227 34.025 71.8227 33.625C71.4227 33.2083 71.2227 32.6333 71.2227 31.9V20.125H67.2977C66.681 20.125 66.206 19.9667 65.8727 19.65C65.556 19.3167 65.3977 18.85 65.3977 18.25C65.3977 17.6333 65.556 17.1667 65.8727 16.85C66.206 16.5333 66.681 16.375 67.2977 16.375H79.7477C80.3643 16.375 80.831 16.5333 81.1477 16.85C81.481 17.1667 81.6477 17.6333 81.6477 18.25C81.6477 18.85 81.481 19.3167 81.1477 19.65C80.831 19.9667 80.3643 20.125 79.7477 20.125H75.8227V31.9C75.8227 32.6333 75.631 33.2083 75.2477 33.625C74.8643 34.025 74.2893 34.225 73.5227 34.225ZM85.5615 34C84.7782 34 84.1782 33.8 83.7615 33.4C83.3615 32.9833 83.1615 32.3917 83.1615 31.625V18.75C83.1615 17.9833 83.3615 17.4 83.7615 17C84.1782 16.5833 84.7782 16.375 85.5615 16.375H94.0365C94.6365 16.375 95.0865 16.525 95.3865 16.825C95.6865 17.125 95.8365 17.5583 95.8365 18.125C95.8365 18.7083 95.6865 19.1583 95.3865 19.475C95.0865 19.775 94.6365 19.925 94.0365 19.925H87.5615V23.275H93.4865C94.0699 23.275 94.5115 23.425 94.8115 23.725C95.1282 24.025 95.2865 24.4667 95.2865 25.05C95.2865 25.6333 95.1282 26.075 94.8115 26.375C94.5115 26.675 94.0699 26.825 93.4865 26.825H87.5615V30.45H94.0365C94.6365 30.45 95.0865 30.6083 95.3865 30.925C95.6865 31.225 95.8365 31.6583 95.8365 32.225C95.8365 32.8083 95.6865 33.25 95.3865 33.55C95.0865 33.85 94.6365 34 94.0365 34H85.5615ZM100.818 34.225C100.085 34.225 99.518 34.025 99.118 33.625C98.718 33.2083 98.518 32.6333 98.518 31.9V18.75C98.518 17.9833 98.718 17.4 99.118 17C99.5346 16.5833 100.126 16.375 100.893 16.375H109.293C109.91 16.375 110.376 16.5333 110.693 16.85C111.026 17.1667 111.193 17.6333 111.193 18.25C111.193 18.85 111.026 19.3167 110.693 19.65C110.376 19.9667 109.91 20.125 109.293 20.125H103.118V31.9C103.118 32.6333 102.926 33.2083 102.543 33.625C102.16 34.025 101.585 34.225 100.818 34.225ZM121.251 34.275C119.468 34.275 117.901 33.9 116.551 33.15C115.201 32.3833 114.151 31.3167 113.401 29.95C112.668 28.5833 112.301 26.9917 112.301 25.175C112.301 23.8083 112.51 22.5667 112.926 21.45C113.36 20.3333 113.968 19.375 114.751 18.575C115.551 17.775 116.501 17.1667 117.601 16.75C118.701 16.3167 119.918 16.1 121.251 16.1C123.035 16.1 124.593 16.475 125.926 17.225C127.276 17.975 128.326 19.0333 129.076 20.4C129.826 21.75 130.201 23.3417 130.201 25.175C130.201 26.5417 129.985 27.7833 129.551 28.9C129.135 30.0167 128.526 30.9833 127.726 31.8C126.943 32.6 126.001 33.2167 124.901 33.65C123.801 34.0667 122.585 34.275 121.251 34.275ZM121.251 30.425C122.135 30.425 122.885 30.2167 123.501 29.8C124.118 29.3833 124.593 28.7833 124.926 28C125.26 27.2167 125.426 26.275 125.426 25.175C125.426 23.525 125.06 22.2417 124.326 21.325C123.593 20.4083 122.568 19.95 121.251 19.95C120.385 19.95 119.635 20.1583 119.001 20.575C118.385 20.975 117.91 21.5667 117.576 22.35C117.243 23.1167 117.076 24.0583 117.076 25.175C117.076 26.825 117.443 28.1167 118.176 29.05C118.91 29.9667 119.935 30.425 121.251 30.425ZM135.217 34.225C134.484 34.225 133.917 34.025 133.517 33.625C133.117 33.2083 132.917 32.6333 132.917 31.9V18.7C132.917 17.95 133.117 17.375 133.517 16.975C133.934 16.575 134.509 16.375 135.242 16.375H141.392C143.392 16.375 144.934 16.8917 146.017 17.925C147.117 18.9417 147.667 20.35 147.667 22.15C147.667 23.95 147.117 25.3667 146.017 26.4C144.934 27.4167 143.392 27.925 141.392 27.925H137.517V31.9C137.517 32.6333 137.326 33.2083 136.942 33.625C136.559 34.025 135.984 34.225 135.217 34.225ZM137.517 24.4H140.592C141.459 24.4 142.126 24.2167 142.592 23.85C143.059 23.4667 143.292 22.9 143.292 22.15C143.292 21.3833 143.059 20.8167 142.592 20.45C142.126 20.0833 141.459 19.9 140.592 19.9H137.517V24.4ZM151.812 34.225C151.512 34.225 151.237 34.175 150.987 34.075C150.737 33.975 150.52 33.8333 150.337 33.65C150.17 33.45 150.037 33.2083 149.937 32.925C149.854 32.6417 149.812 32.3167 149.812 31.95V18.3C149.812 17.6 149.995 17.0667 150.362 16.7C150.729 16.3333 151.262 16.15 151.962 16.15C152.662 16.15 153.187 16.3333 153.537 16.7C153.904 17.0667 154.087 17.6 154.087 18.3V27.35H153.387L161.312 17.45C161.679 16.9833 162.02 16.65 162.337 16.45C162.67 16.25 163.12 16.15 163.687 16.15C164.07 16.15 164.395 16.2333 164.662 16.4C164.945 16.5667 165.162 16.8083 165.312 17.125C165.462 17.425 165.537 17.7833 165.537 18.2V32.05C165.537 32.7667 165.354 33.3083 164.987 33.675C164.637 34.0417 164.112 34.225 163.412 34.225C162.712 34.225 162.179 34.0417 161.812 33.675C161.462 33.3083 161.287 32.7667 161.287 32.05V23H161.962L154.062 32.925C153.695 33.375 153.354 33.7083 153.037 33.925C152.737 34.125 152.329 34.225 151.812 34.225ZM170.757 34.225C170.457 34.225 170.182 34.175 169.932 34.075C169.682 33.975 169.466 33.8333 169.282 33.65C169.116 33.45 168.982 33.2083 168.882 32.925C168.799 32.6417 168.757 32.3167 168.757 31.95V18.3C168.757 17.6 168.941 17.0667 169.307 16.7C169.674 16.3333 170.207 16.15 170.907 16.15C171.607 16.15 172.132 16.3333 172.482 16.7C172.849 17.0667 173.032 17.6 173.032 18.3V27.35H172.332L180.257 17.45C180.624 16.9833 180.966 16.65 181.282 16.45C181.616 16.25 182.066 16.15 182.632 16.15C183.016 16.15 183.341 16.2333 183.607 16.4C183.891 16.5667 184.107 16.8083 184.257 17.125C184.407 17.425 184.482 17.7833 184.482 18.2V32.05C184.482 32.7667 184.299 33.3083 183.932 33.675C183.582 34.0417 183.057 34.225 182.357 34.225C181.657 34.225 181.124 34.0417 180.757 33.675C180.407 33.3083 180.232 32.7667 180.232 32.05V23H180.907L173.007 32.925C172.641 33.375 172.299 33.7083 171.982 33.925C171.682 34.125 171.274 34.225 170.757 34.225Z" fill="#23223E"/>
<rect x="198" y="17" width="8" height="8" rx="1" fill="#23223E"/>
<rect x="208" y="17" width="8" height="8" rx="1" fill="#23223E"/>
<rect x="198" y="27" width="8" height="8" rx="1" fill="#23223E"/>
<rect x="208" y="27" width="8" height="8" rx="1" fill="#23223E"/>
<defs>
<linearGradient id="paint0_linear_27_159" x1="14.5" y1="4.77759e-06" x2="264" y2="50" gradientUnits="userSpaceOnUse">
<stop stop-color="#00EFD1"/>
<stop offset="1" stop-color="#00A8A8"/>
</linearGradient>
</defs>
</svg>
