<svg width="250" height="81" viewBox="0 0 250 81" fill="none" xmlns="http://www.w3.org/2000/svg">
<g filter="url(#filter0_b_2_42)">
<path d="M34.7222 20.8333C34.7222 13.1627 40.9404 6.94444 48.6111 6.94444H236.111C243.782 6.94444 250 13.1627 250 20.8333V40.2778V59.7222C250 67.3928 243.782 73.6111 236.111 73.6111H48.611C40.9404 73.6111 34.7222 67.3928 34.7222 59.7222V40.2778V20.8333Z" fill="#D9D9D9" fill-opacity="0.152"/>
<path d="M48.6111 7.63889H236.111C243.398 7.63889 249.305 13.5462 249.305 20.8333V40.2778V59.7222C249.305 67.0093 243.398 72.9167 236.111 72.9167H48.611C41.324 72.9167 35.4166 67.0093 35.4166 59.7222V40.2778V20.8333C35.4166 13.5462 41.324 7.63889 48.6111 7.63889Z" stroke="white" stroke-opacity="0.304" stroke-width="1.38889"/>
</g>
<g filter="url(#filter1_d_2_42)">
<path d="M88.5066 47.757C88.7811 46.997 89.161 46.3426 89.6465 45.7938C90.1321 45.2449 90.6915 44.8016 91.3248 44.4639C91.958 44.105 92.6441 43.8411 93.3829 43.6723C94.1218 43.5034 94.8817 43.419 95.6628 43.419H99.3358L97.4993 37.846L96.8977 39.7142C96.7288 40.1997 96.5705 40.6747 96.4227 41.1391C96.275 41.6035 96.1694 41.9202 96.1061 42.089C94.8184 42.0679 93.5729 42.2685 92.3697 42.6907C91.1875 43.0918 90.2482 43.7884 89.5516 44.7805C89.636 44.5272 89.7521 44.1683 89.8999 43.7039C90.0687 43.2395 90.2482 42.7118 90.4382 42.1207C90.6493 41.5296 90.8709 40.8964 91.1031 40.2208C91.3353 39.5453 91.5675 38.8804 91.7997 38.226L93.5729 33.128C94.3329 30.9537 95.6417 29.8666 97.4993 29.8666C99.357 29.8666 100.666 30.9537 101.426 33.128L106.492 47.757C106.724 48.4958 106.84 49.108 106.84 49.5935C106.84 50.079 106.693 50.5434 106.397 50.9867C106.165 51.3034 105.901 51.525 105.605 51.6517C105.331 51.7783 104.983 51.8733 104.56 51.9367C103.653 52.0211 102.956 51.8417 102.471 51.3984C101.985 50.934 101.584 50.2268 101.267 49.2769L100.951 48.3903H94.0479C94.0057 48.4958 93.9423 48.6752 93.8579 48.9286C93.7946 49.1819 93.6996 49.4668 93.5729 49.7835C93.4463 50.079 93.288 50.3746 93.098 50.6701C92.9291 50.9656 92.7285 51.2084 92.4963 51.3984C91.9686 51.7995 91.3775 52 90.7231 52C90.2798 52 89.8682 51.9156 89.4882 51.7467C89.1083 51.5567 88.8233 51.3034 88.6333 50.9867C88.3589 50.5223 88.2111 50.0474 88.19 49.5618C88.1689 49.0763 88.2744 48.4747 88.5066 47.757ZM114.769 29.6766C115.148 29.5711 115.592 29.4972 116.098 29.455C116.605 29.4127 117.133 29.3916 117.682 29.3916C118.399 29.3916 119.128 29.4444 119.866 29.55C120.605 29.6555 121.291 29.8349 121.925 30.0882C122.579 30.3416 123.138 30.6793 123.603 31.1015C124.088 31.5237 124.416 32.0514 124.584 32.6847C124.69 33.1069 124.701 33.5186 124.616 33.9196C124.553 34.3207 124.405 34.669 124.173 34.9646C123.941 35.2601 123.624 35.4817 123.223 35.6295C122.822 35.7773 122.347 35.8089 121.798 35.7245C121.566 35.6823 121.291 35.6084 120.975 35.5029C120.679 35.3973 120.352 35.2918 119.993 35.1862C119.655 35.0807 119.286 34.9857 118.885 34.9012C118.484 34.8168 118.072 34.7746 117.65 34.7746C117.27 34.7746 116.89 34.8168 116.51 34.9012C116.13 34.9857 115.75 35.144 115.37 35.3762C114.842 35.6717 114.357 36.1678 113.914 36.8644C113.47 37.561 113.143 38.3843 112.932 39.3342C112.742 40.2842 112.7 41.3185 112.805 42.4374C112.911 43.5562 113.238 44.6855 113.787 45.8254C114.336 46.9654 115.148 48.0842 116.225 49.1819C117.323 50.2796 118.737 51.2717 120.468 52.1583C119.603 52.3694 118.653 52.475 117.618 52.475C116.394 52.475 115.191 52.3061 114.009 51.9683C112.848 51.6095 111.824 51.0606 110.937 50.3218C110.072 49.6041 109.333 48.6541 108.721 47.472C108.13 46.2687 107.707 44.9705 107.454 43.5773C107.201 42.1629 107.137 40.7169 107.264 39.2393C107.391 37.7616 107.739 36.3789 108.309 35.0912C108.9 33.8035 109.723 32.6742 110.779 31.7031C111.834 30.7321 113.164 30.0566 114.769 29.6766ZM116.953 46.997C117.439 47.0392 117.998 47.0181 118.632 46.9337C119.286 46.8493 119.919 46.6909 120.531 46.4587C120.869 46.311 121.196 46.1949 121.513 46.1104C121.851 46.026 122.167 45.9838 122.463 45.9838C122.822 45.9838 123.149 46.0682 123.445 46.2371C123.74 46.3848 124.004 46.6698 124.236 47.092C124.764 48.0631 124.827 48.9497 124.426 49.7518C124.236 50.2162 123.93 50.5645 123.508 50.7968C123.107 51.0078 122.664 51.1134 122.178 51.1134C121.144 51.1134 120.225 50.7968 119.423 50.1635C118.642 49.5091 117.988 48.7702 117.46 47.947C117.439 47.9047 117.397 47.8309 117.333 47.7253C117.291 47.6198 117.238 47.5142 117.175 47.4087L116.953 46.997ZM134.497 29.6766C134.877 29.5711 135.32 29.4972 135.827 29.455C136.333 29.4127 136.861 29.3916 137.41 29.3916C138.128 29.3916 138.856 29.4444 139.595 29.55C140.334 29.6555 141.02 29.8349 141.653 30.0882C142.307 30.3416 142.867 30.6793 143.331 31.1015C143.817 31.5237 144.144 32.0514 144.313 32.6847C144.418 33.1069 144.429 33.5186 144.345 33.9196C144.281 34.3207 144.133 34.669 143.901 34.9646C143.669 35.2601 143.352 35.4817 142.951 35.6295C142.55 35.7773 142.075 35.8089 141.526 35.7245C141.294 35.6823 141.02 35.6084 140.703 35.5029C140.408 35.3973 140.08 35.2918 139.722 35.1862C139.384 35.0807 139.014 34.9857 138.613 34.9012C138.212 34.8168 137.801 34.7746 137.378 34.7746C136.998 34.7746 136.618 34.8168 136.238 34.9012C135.858 34.9857 135.479 35.144 135.099 35.3762C134.571 35.6717 134.085 36.1678 133.642 36.8644C133.199 37.561 132.871 38.3843 132.66 39.3342C132.47 40.2842 132.428 41.3185 132.534 42.4374C132.639 43.5562 132.966 44.6855 133.515 45.8254C134.064 46.9654 134.877 48.0842 135.953 49.1819C137.051 50.2796 138.466 51.2717 140.197 52.1583C139.331 52.3694 138.381 52.475 137.347 52.475C136.122 52.475 134.919 52.3061 133.737 51.9683C132.576 51.6095 131.552 51.0606 130.666 50.3218C129.8 49.6041 129.061 48.6541 128.449 47.472C127.858 46.2687 127.436 44.9705 127.182 43.5773C126.929 42.1629 126.866 40.7169 126.992 39.2393C127.119 37.7616 127.467 36.3789 128.037 35.0912C128.628 33.8035 129.452 32.6742 130.507 31.7031C131.563 30.7321 132.893 30.0566 134.497 29.6766ZM136.682 46.997C137.167 47.0392 137.727 47.0181 138.36 46.9337C139.014 46.8493 139.648 46.6909 140.26 46.4587C140.598 46.311 140.925 46.1949 141.241 46.1104C141.579 46.026 141.896 45.9838 142.191 45.9838C142.55 45.9838 142.877 46.0682 143.173 46.2371C143.468 46.3848 143.732 46.6698 143.965 47.092C144.492 48.0631 144.556 48.9497 144.155 49.7518C143.965 50.2162 143.658 50.5645 143.236 50.7968C142.835 51.0078 142.392 51.1134 141.906 51.1134C140.872 51.1134 139.954 50.7968 139.152 50.1635C138.371 49.5091 137.716 48.7702 137.188 47.947C137.167 47.9047 137.125 47.8309 137.062 47.7253C137.02 47.6198 136.967 47.5142 136.903 47.4087L136.682 46.997ZM146.373 48.5486V33.2547C146.373 32.1781 146.605 31.3337 147.069 30.7215C147.534 30.1516 148.22 29.8666 149.127 29.8666C149.655 29.8666 150.088 29.9616 150.426 30.1516C150.784 30.3205 151.069 30.5632 151.281 30.8799C151.492 31.1754 151.639 31.5343 151.724 31.9564C151.829 32.3575 151.882 32.7903 151.882 33.2547V48.5486C151.882 49.013 151.829 49.4563 151.724 49.8785C151.639 50.2796 151.492 50.6384 151.281 50.9551C151.069 51.2506 150.784 51.4934 150.426 51.6834C150.088 51.8522 149.655 51.9367 149.127 51.9367C148.6 51.9367 148.156 51.8522 147.797 51.6834C147.46 51.4934 147.185 51.2506 146.974 50.9551C146.763 50.6384 146.605 50.2796 146.499 49.8785C146.415 49.4563 146.373 49.013 146.373 48.5486ZM154.364 47.2187C154.596 46.7332 154.86 46.406 155.155 46.2371C155.451 46.0471 155.778 45.9521 156.137 45.9521C156.517 45.9521 156.929 46.0154 157.372 46.1421C157.836 46.2687 158.343 46.406 158.892 46.5537C159.441 46.6804 160.032 46.7965 160.665 46.902C161.298 46.9865 161.984 46.997 162.723 46.9337C163.272 46.8915 163.715 46.7754 164.053 46.5854C164.391 46.3743 164.56 45.9943 164.56 45.4455C164.56 45.1077 164.465 44.8333 164.275 44.6222C164.085 44.4111 163.821 44.2317 163.483 44.0839C163.167 43.9361 162.787 43.8095 162.343 43.7039C161.921 43.5773 161.457 43.4506 160.95 43.324C160.549 43.2184 160.19 43.0284 159.873 42.754C159.578 42.4796 159.335 42.1524 159.145 41.7724C158.976 41.3924 158.871 40.9913 158.829 40.5692C158.807 40.1259 158.871 39.6931 159.019 39.2709C159.293 38.4265 159.673 37.7299 160.158 37.1811C160.391 37.2022 160.792 37.2655 161.362 37.3711C161.953 37.4766 162.618 37.6455 163.357 37.8777C164.095 38.1099 164.855 38.4265 165.636 38.8276C166.439 39.2287 167.167 39.7353 167.821 40.3475C168.497 40.9386 169.046 41.6563 169.468 42.5007C169.911 43.3451 170.133 44.3267 170.133 45.4455C170.133 46.7754 169.89 47.8836 169.404 48.7702C168.919 49.6568 168.275 50.3746 167.473 50.9234C166.692 51.4723 165.805 51.8628 164.813 52.095C163.821 52.3272 162.808 52.4433 161.773 52.4433C160.633 52.4433 159.546 52.3272 158.512 52.095C157.478 51.8839 156.591 51.5989 155.852 51.2401C155.071 50.8601 154.533 50.3218 154.237 49.6252C153.942 48.9074 153.984 48.1053 154.364 47.2187ZM158.449 29.9299C159.483 29.5711 160.612 29.3916 161.837 29.3916C162.765 29.3916 163.726 29.4655 164.718 29.6133C165.731 29.7399 166.618 29.9721 167.378 30.3099C168.138 30.6477 168.697 31.1226 169.056 31.7348C169.415 32.3259 169.404 33.0753 169.024 33.983C168.623 34.954 167.885 35.4395 166.808 35.4395C166.491 35.4395 166.175 35.3973 165.858 35.3129C165.562 35.2284 165.235 35.144 164.876 35.0596C164.518 34.9751 164.116 34.9012 163.673 34.8379C163.23 34.7746 162.702 34.764 162.09 34.8062C161.161 34.8485 160.37 35.1334 159.715 35.6612C159.082 36.1678 158.607 36.8011 158.29 37.561C157.974 38.321 157.826 39.1443 157.847 40.0309C157.889 40.9175 158.121 41.7513 158.544 42.5323C158.121 42.3213 157.657 42.0468 157.15 41.7091C156.665 41.3713 156.285 41.0652 156.01 40.7908C155.272 40.052 154.754 39.1548 154.459 38.0993C154.184 37.0227 154.142 35.9567 154.332 34.9012C154.543 33.8246 154.987 32.8325 155.662 31.9248C156.338 31.0171 157.266 30.3521 158.449 29.9299ZM177.579 37.9727H184.514V33.223C184.514 32.7586 184.556 32.3259 184.64 31.9248C184.746 31.5026 184.904 31.1437 185.115 30.8482C185.326 30.5315 185.601 30.2888 185.939 30.1199C186.298 29.9299 186.741 29.8349 187.269 29.8349C187.796 29.8349 188.229 29.9299 188.567 30.1199C188.926 30.2888 189.211 30.5315 189.422 30.8482C189.633 31.1437 189.781 31.5026 189.865 31.9248C189.971 32.3259 190.023 32.7586 190.023 33.223V38.036C190.023 38.8593 189.876 39.5981 189.58 40.2525C189.306 40.9069 188.926 41.4769 188.44 41.9624C187.955 42.4268 187.374 42.7857 186.699 43.039C186.023 43.2923 185.295 43.419 184.514 43.419H177.548V48.5486C177.548 49.013 177.495 49.4563 177.389 49.8785C177.305 50.2796 177.157 50.6384 176.946 50.9551C176.735 51.2506 176.45 51.4934 176.091 51.6834C175.753 51.8522 175.321 51.9367 174.793 51.9367C174.265 51.9367 173.822 51.8522 173.463 51.6834C173.125 51.4934 172.851 51.2506 172.64 50.9551C172.429 50.6384 172.27 50.2796 172.165 49.8785C172.08 49.4563 172.038 49.013 172.038 48.5486V43.3556C172.038 42.5323 172.175 41.7935 172.45 41.1391C172.745 40.4847 173.136 39.9253 173.621 39.4609C174.128 38.9754 174.719 38.606 175.394 38.3527C176.07 38.0993 176.798 37.9727 177.579 37.9727ZM184.514 44.7805C185.97 44.8016 187.152 44.4428 188.06 43.7039C188.968 42.9651 189.622 42.0152 190.023 40.8541V48.5169C190.023 48.9813 189.971 49.4246 189.865 49.8468C189.781 50.2479 189.633 50.6068 189.422 50.9234C189.211 51.2189 188.926 51.4617 188.567 51.6517C188.229 51.8206 187.796 51.905 187.269 51.905C186.593 51.905 186.034 51.7467 185.59 51.43L185.21 51.0501C184.746 50.5223 184.514 49.6779 184.514 48.5169V44.7805ZM172.735 30.7215C173.199 30.1516 173.885 29.8666 174.793 29.8666C175.468 29.8666 176.028 30.0249 176.471 30.3416L176.851 30.7215C177.315 31.3126 177.548 32.157 177.548 33.2547V36.6111C176.091 36.59 174.909 36.9594 174.001 37.7194C173.115 38.4582 172.46 39.4081 172.038 40.5692V33.2547C172.038 32.1781 172.27 31.3337 172.735 30.7215ZM192.079 40.9175C192.079 39.3554 192.259 37.9727 192.618 36.7694C192.976 35.5662 193.451 34.5529 194.043 33.7297C194.634 32.9064 195.299 32.2836 196.037 31.8615C196.797 31.4393 197.568 31.2282 198.349 31.2282C199.299 31.2282 200.196 31.5237 201.04 32.1148C201.906 32.6847 202.645 33.603 203.257 34.8696C202.286 34.7429 201.441 34.8062 200.724 35.0596C200.027 35.3129 199.447 35.714 198.982 36.2628C198.539 36.8117 198.201 37.4872 197.969 38.2893C197.758 39.0915 197.652 39.9675 197.652 40.9175C197.652 41.783 197.747 42.5957 197.937 43.3556C198.127 44.0945 198.412 44.7383 198.792 45.2872C199.172 45.8149 199.658 46.2371 200.249 46.5537C200.84 46.8493 201.536 46.997 202.339 46.997C203.141 46.997 203.837 46.8493 204.428 46.5537C205.02 46.2371 205.505 45.8149 205.885 45.2872C206.265 44.7383 206.55 44.0945 206.74 43.3556C206.93 42.6168 207.025 41.8041 207.025 40.9175C207.025 40.3053 206.972 39.7564 206.867 39.2709C206.761 38.7643 206.656 38.2893 206.55 37.846C206.36 37.0861 206.064 36.3156 205.663 35.5345C205.262 34.7535 204.735 34.0146 204.08 33.318C203.426 32.6214 202.624 31.9987 201.674 31.4498C200.724 30.8799 199.615 30.4366 198.349 30.1199C199.573 29.6344 200.903 29.3916 202.339 29.3916C203.943 29.3916 205.378 29.6872 206.645 30.2782C207.912 30.8482 208.978 31.6504 209.843 32.6847C210.73 33.698 211.405 34.9118 211.87 36.3261C212.334 37.7405 212.566 39.2709 212.566 40.9175C212.566 42.6062 212.323 44.1578 211.838 45.5721C211.374 46.9654 210.698 48.1686 209.811 49.1819C208.946 50.1951 207.88 50.9867 206.613 51.5567C205.347 52.1267 203.922 52.4116 202.339 52.4116C200.713 52.4116 199.267 52.1267 198.001 51.5567C196.734 50.9656 195.657 50.1635 194.771 49.1502C193.905 48.1158 193.24 46.902 192.776 45.5088C192.312 44.0945 192.079 42.564 192.079 40.9175ZM215.41 30.6582C215.874 30.1305 216.571 29.8666 217.499 29.8666H223.136C225.795 29.8666 227.822 30.5843 229.215 32.0198C230.63 33.4552 231.337 35.5029 231.337 38.1627C231.337 40.8225 230.63 42.8701 229.215 44.3056C227.822 45.741 225.795 46.4587 223.136 46.4587H220.128V48.5486C220.128 49.013 220.075 49.4563 219.969 49.8785C219.885 50.2796 219.737 50.6384 219.526 50.9551C219.315 51.2506 219.03 51.4934 218.671 51.6834C218.333 51.8522 217.9 51.9367 217.373 51.9367C216.845 51.9367 216.402 51.8522 216.043 51.6834C215.705 51.4934 215.431 51.2506 215.22 50.9551C215.008 50.6384 214.85 50.2796 214.745 49.8785C214.66 49.4563 214.618 49.013 214.618 48.5486V34.6796C214.913 35.2495 215.272 35.6823 215.695 35.9778C216.138 36.2734 216.602 36.4845 217.088 36.6111C217.594 36.7378 218.101 36.8117 218.608 36.8328C219.135 36.8328 219.642 36.8328 220.128 36.8328V41.0125H223.136C224.043 41.0125 224.708 40.7591 225.131 40.2525C225.553 39.7459 225.764 39.0493 225.764 38.1627C225.764 37.3605 225.574 36.6955 225.194 36.1678C224.835 35.6401 224.212 35.3551 223.326 35.3129H217.373C216.824 35.3129 216.338 35.1651 215.916 34.8696C215.515 34.574 215.209 34.1941 214.998 33.7297C214.808 33.2652 214.734 32.7586 214.776 32.2098C214.818 31.6609 215.03 31.1437 215.41 30.6582Z" fill="url(#paint0_linear_2_42)"/>
</g>
<g clip-path="url(#clip0_2_42)">
<g filter="url(#filter2_d_2_42)">
<path d="M40.2778 79.2969C61.8274 79.2969 79.2969 61.8274 79.2969 40.2778C79.2969 18.7281 61.8274 1.25868 40.2778 1.25868C18.7281 1.25868 1.25867 18.7281 1.25867 40.2778C1.25867 61.8274 18.7281 79.2969 40.2778 79.2969Z" fill="url(#paint1_linear_2_42)"/>
</g>
<g filter="url(#filter3_d_2_42)">
<path d="M50.3237 34.9265L47.8583 27.8188C47.0208 25.4078 44.8293 23.8497 42.2752 23.8497H38.28C35.7233 23.8497 33.5317 25.4079 32.697 27.8189L30.2295 34.9264H21.1724V36.8693H23.0865L26.2157 52.7161C26.6799 55.0651 28.6779 56.7056 31.0746 56.7056H49.4812C51.8794 56.7056 53.8767 55.0646 54.3377 52.7161L57.4691 36.8693H59.3832V34.9264H50.3237V34.9265ZM34.3224 50.4468H32.3795V41.1853H34.3224V50.4468ZM41.2135 51.2491H39.2706V40.3832H41.2135V51.2491ZM48.1026 50.4468H46.1597V41.1853H48.1026V50.4468ZM32.2862 34.9265L34.5326 28.4555C35.0927 26.8379 36.5637 25.7928 38.28 25.7928H42.2752C43.9897 25.7928 45.4608 26.8382 46.0228 28.456L48.2672 34.9265H32.2862Z" fill="white"/>
</g>
</g>
<defs>
<filter id="filter0_b_2_42" x="-77.1112" y="-104.889" width="438.944" height="290.333" filterUnits="userSpaceOnUse" color-interpolation-filters="sRGB">
<feFlood flood-opacity="0" result="BackgroundImageFix"/>
<feGaussianBlur in="BackgroundImageFix" stdDeviation="55.9167"/>
<feComposite in2="SourceAlpha" operator="in" result="effect1_backgroundBlur_2_42"/>
<feBlend mode="normal" in="SourceGraphic" in2="effect1_backgroundBlur_2_42" result="shape"/>
</filter>
<filter id="filter1_d_2_42" x="81.8254" y="29.3916" width="155.844" height="35.7491" filterUnits="userSpaceOnUse" color-interpolation-filters="sRGB">
<feFlood flood-opacity="0" result="BackgroundImageFix"/>
<feColorMatrix in="SourceAlpha" type="matrix" values="0 0 0 0 0 0 0 0 0 0 0 0 0 0 0 0 0 0 127 0" result="hardAlpha"/>
<feOffset dy="6.33288"/>
<feGaussianBlur stdDeviation="3.16644"/>
<feComposite in2="hardAlpha" operator="out"/>
<feColorMatrix type="matrix" values="0 0 0 0 0 0 0 0 0 0 0 0 0 0 0 0 0 0 0.25 0"/>
<feBlend mode="normal" in2="BackgroundImageFix" result="effect1_dropShadow_2_42"/>
<feBlend mode="normal" in="SourceGraphic" in2="effect1_dropShadow_2_42" result="shape"/>
</filter>
<filter id="filter2_d_2_42" x="-5.68578" y="1.25868" width="89.1493" height="89.1493" filterUnits="userSpaceOnUse" color-interpolation-filters="sRGB">
<feFlood flood-opacity="0" result="BackgroundImageFix"/>
<feColorMatrix in="SourceAlpha" type="matrix" values="0 0 0 0 0 0 0 0 0 0 0 0 0 0 0 0 0 0 127 0" result="hardAlpha"/>
<feOffset dx="-1.38889" dy="5.55556"/>
<feGaussianBlur stdDeviation="2.77778"/>
<feComposite in2="hardAlpha" operator="out"/>
<feColorMatrix type="matrix" values="0 0 0 0 0 0 0 0 0 0 0 0 0 0 0 0 0 0 0.25 0"/>
<feBlend mode="normal" in2="BackgroundImageFix" result="effect1_dropShadow_2_42"/>
<feBlend mode="normal" in="SourceGraphic" in2="effect1_dropShadow_2_42" result="shape"/>
</filter>
<filter id="filter3_d_2_42" x="15.6168" y="23.8497" width="49.3219" height="43.9671" filterUnits="userSpaceOnUse" color-interpolation-filters="sRGB">
<feFlood flood-opacity="0" result="BackgroundImageFix"/>
<feColorMatrix in="SourceAlpha" type="matrix" values="0 0 0 0 0 0 0 0 0 0 0 0 0 0 0 0 0 0 127 0" result="hardAlpha"/>
<feOffset dy="5.55556"/>
<feGaussianBlur stdDeviation="2.77778"/>
<feComposite in2="hardAlpha" operator="out"/>
<feColorMatrix type="matrix" values="0 0 0 0 0 0 0 0 0 0 0 0 0 0 0 0 0 0 0.25 0"/>
<feBlend mode="normal" in2="BackgroundImageFix" result="effect1_dropShadow_2_42"/>
<feBlend mode="normal" in="SourceGraphic" in2="effect1_dropShadow_2_42" result="shape"/>
</filter>
<linearGradient id="paint0_linear_2_42" x1="88" y1="28" x2="229.667" y2="70.1924" gradientUnits="userSpaceOnUse">
<stop stop-color="#FB37FF"/>
<stop offset="1" stop-color="#00EFD1"/>
</linearGradient>
<linearGradient id="paint1_linear_2_42" x1="40.2778" y1="1.25868" x2="40.2778" y2="79.2969" gradientUnits="userSpaceOnUse">
<stop stop-color="#70F3E3"/>
<stop offset="1" stop-color="#F859D9"/>
</linearGradient>
<clipPath id="clip0_2_42">
<rect width="80.5556" height="80.5556" fill="white"/>
</clipPath>
</defs>
</svg>
