<svg width="54" height="41" viewBox="0 0 54 41" fill="none" xmlns="http://www.w3.org/2000/svg">
<g filter="url(#filter0_bii_423_1053)">
<rect x="0.31543" width="53.0901" height="40.2973" rx="7.59892" fill="white" fill-opacity="0.1"/>
<rect x="0.635249" y="0.31982" width="52.4505" height="39.6577" rx="7.2791" stroke="white" stroke-opacity="0.21" stroke-width="0.63964"/>
</g>
<path d="M26.3167 12.3226C26.2745 12.208 26.2316 12.208 26.1881 12.3226C25.2373 14.8832 24.3155 17.3726 23.4228 19.7909C23.312 20.0951 23.2625 20.3184 22.9342 20.4646C19.9368 21.8055 17.242 23.6692 14.8498 26.0559C14.7536 26.1521 14.7305 26.1369 14.7806 26.0105C17.3956 19.4287 19.9829 12.9087 22.5425 6.45074C22.6797 6.10564 22.803 5.74738 22.9124 5.37594C22.9346 5.3011 22.9803 5.23546 23.0427 5.1888C23.1051 5.14215 23.1808 5.117 23.2586 5.11712H29.3925C29.5257 5.11712 29.6174 5.17903 29.6675 5.30284L34.4643 17.1236C34.4693 17.1353 34.4715 17.1479 34.4708 17.1605C34.4701 17.1731 34.4664 17.1854 34.46 17.1964C34.4537 17.2073 34.4449 17.2166 34.4343 17.2235C34.4237 17.2305 34.4116 17.2348 34.399 17.2363C32.4645 17.4918 30.5616 17.8711 28.6903 18.3743C28.6349 18.3888 28.5967 18.369 28.5756 18.315L26.3167 12.3226Z" fill="#00EFD1"/>
<path d="M27.8377 21.5711C23.0785 22.9844 19.22 25.6503 16.2621 29.5688C14.9724 31.2785 13.9742 33.112 13.2673 35.0693C13.2423 35.1364 13.1941 35.17 13.1229 35.17H11.2992C11.2812 35.17 11.2636 35.1656 11.2478 35.1572C11.232 35.1488 11.2184 35.1365 11.2083 35.1216C11.1982 35.1066 11.1918 35.0894 11.1897 35.0713C11.1876 35.0533 11.1899 35.0349 11.1963 35.0179C13.4117 29.3383 17.2834 25.1353 22.8115 22.4088C25.1192 21.2721 27.4764 20.4126 29.883 19.8304C34.8295 18.6332 39.8854 18.209 45.0508 18.5581C45.0719 18.5594 45.0824 18.5712 45.0824 18.5936C45.0824 18.616 45.0719 18.6279 45.0508 18.6292C44.3136 18.6661 43.562 18.7003 42.7958 18.7319C33.6038 19.1054 24.744 22.9817 19.7653 30.8333C18.9226 32.1623 18.2408 33.5855 17.7199 35.1028C17.716 35.116 17.7074 35.1252 17.6942 35.1305C17.59 35.1661 16.9056 35.1825 15.641 35.1799C15.6133 35.1799 15.6041 35.1674 15.6133 35.1424C16.154 33.596 16.7487 32.2723 17.3975 31.1711C19.7092 27.25 22.9117 24.2146 27.005 22.065C27.2885 21.9162 27.572 21.766 27.8555 21.6145C27.9927 21.5408 27.9867 21.5263 27.8377 21.5711Z" fill="#00EFD1"/>
<path d="M30.6487 23.4322C32.4092 22.6043 34.2013 21.9247 36.0844 21.4446C36.1206 21.4357 36.1588 21.4402 36.1921 21.4573C36.2255 21.4743 36.2518 21.5027 36.2664 21.5374L41.7535 35.0297C41.7596 35.045 41.7619 35.0615 41.7602 35.0778C41.7585 35.0941 41.7528 35.1098 41.7436 35.1234C41.7345 35.1371 41.7221 35.1482 41.7076 35.156C41.6932 35.1638 41.677 35.1679 41.6605 35.168H35.222C35.1402 35.168 35.0842 35.1298 35.0538 35.0534L30.5973 23.5606C30.5735 23.5013 30.5907 23.4585 30.6487 23.4322Z" fill="#00EFD1"/>
<path d="M49.5231 18.5185L44.4533 20.0991C44.4415 20.1026 44.4289 20.1023 44.4173 20.0983C44.4057 20.0943 44.3956 20.0867 44.3884 20.0768C44.3813 20.0668 44.3774 20.0548 44.3773 20.0426C44.3772 20.0303 44.381 20.0183 44.388 20.0082L45.4918 18.4869C45.4995 18.4766 45.5037 18.4642 45.5037 18.4513C45.5037 18.4385 45.4995 18.426 45.4918 18.4158L44.3603 16.9043C44.3533 16.8943 44.3495 16.8823 44.3496 16.87C44.3497 16.8577 44.3536 16.8458 44.3607 16.8358C44.3679 16.8258 44.378 16.8183 44.3896 16.8143C44.4012 16.8103 44.4138 16.81 44.4256 16.8135L49.5231 18.4039C49.5357 18.4073 49.5469 18.4147 49.5549 18.4251C49.5629 18.4354 49.5672 18.4481 49.5672 18.4612C49.5672 18.4743 49.5629 18.487 49.5549 18.4974C49.5469 18.5077 49.5357 18.5152 49.5231 18.5185Z" fill="#00EFD1"/>
<defs>
<filter id="filter0_bii_423_1053" x="-12.6948" y="-13.0103" width="79.1109" height="66.3178" filterUnits="userSpaceOnUse" color-interpolation-filters="sRGB">
<feFlood flood-opacity="0" result="BackgroundImageFix"/>
<feGaussianBlur in="BackgroundImageFix" stdDeviation="6.50514"/>
<feComposite in2="SourceAlpha" operator="in" result="effect1_backgroundBlur_423_1053"/>
<feBlend mode="normal" in="SourceGraphic" in2="effect1_backgroundBlur_423_1053" result="shape"/>
<feColorMatrix in="SourceAlpha" type="matrix" values="0 0 0 0 0 0 0 0 0 0 0 0 0 0 0 0 0 0 127 0" result="hardAlpha"/>
<feOffset dx="-6.50514" dy="6.50514"/>
<feGaussianBlur stdDeviation="3.25257"/>
<feComposite in2="hardAlpha" operator="arithmetic" k2="-1" k3="1"/>
<feColorMatrix type="matrix" values="0 0 0 0 1 0 0 0 0 1 0 0 0 0 1 0 0 0 0.1 0"/>
<feBlend mode="normal" in2="shape" result="effect2_innerShadow_423_1053"/>
<feColorMatrix in="SourceAlpha" type="matrix" values="0 0 0 0 0 0 0 0 0 0 0 0 0 0 0 0 0 0 127 0" result="hardAlpha"/>
<feOffset dx="6.50514" dy="-6.50514"/>
<feGaussianBlur stdDeviation="3.25257"/>
<feComposite in2="hardAlpha" operator="arithmetic" k2="-1" k3="1"/>
<feColorMatrix type="matrix" values="0 0 0 0 0.76 0 0 0 0 0.76 0 0 0 0 0.76 0 0 0 0.1 0"/>
<feBlend mode="normal" in2="effect2_innerShadow_423_1053" result="effect3_innerShadow_423_1053"/>
</filter>
</defs>
</svg>
