<svg width="270" height="63" viewBox="0 0 270 63" fill="none" xmlns="http://www.w3.org/2000/svg">
<g filter="url(#filter0_bii_272_103)">
<rect width="270" height="63" rx="11.88" fill="white" fill-opacity="0.1"/>
<rect x="0.27" y="0.27" width="269.46" height="62.46" rx="11.61" stroke="white" stroke-opacity="0.21" stroke-width="0.54"/>
</g>
<path d="M83.4552 54.6329C81.6234 54.6329 79.916 54.3389 78.333 53.7509C76.7726 53.1404 75.4157 52.281 74.2624 51.1729C73.109 50.0648 72.2045 48.7645 71.5486 47.2719C70.9154 45.7793 70.5988 44.1398 70.5988 42.3532C70.5988 40.5667 70.9154 38.9272 71.5486 37.4346C72.2045 35.942 73.109 34.6417 74.2624 33.5336C75.4383 32.4255 76.8065 31.5774 78.3669 30.9895C79.9273 30.3789 81.6347 30.0736 83.4891 30.0736C85.547 30.0736 87.4014 30.4354 89.0522 31.1591C90.7257 31.8601 92.1278 32.9004 93.2585 34.2799L89.7307 37.5364C88.9166 36.6092 88.012 35.9194 87.0169 35.4671C86.0219 34.9922 84.9364 34.7548 83.7605 34.7548C82.6523 34.7548 81.6347 34.9357 80.7075 35.2975C79.7803 35.6594 78.9775 36.1795 78.2991 36.8579C77.6206 37.5364 77.0892 38.3392 76.7047 39.2664C76.3429 40.1936 76.162 41.2225 76.162 42.3532C76.162 43.484 76.3429 44.5129 76.7047 45.4401C77.0892 46.3673 77.6206 47.1701 78.2991 47.8486C78.9775 48.527 79.7803 49.0471 80.7075 49.409C81.6347 49.7708 82.6523 49.9517 83.7605 49.9517C84.9364 49.9517 86.0219 49.7256 87.0169 49.2733C88.012 48.7984 88.9166 48.086 89.7307 47.1362L93.2585 50.3927C92.1278 51.7722 90.7257 52.8238 89.0522 53.5474C87.4014 54.2711 85.5357 54.6329 83.4552 54.6329ZM111.229 54.6329C109.397 54.6329 107.689 54.3389 106.106 53.7509C104.546 53.1404 103.189 52.281 102.036 51.1729C100.882 50.0648 99.9779 48.7645 99.3221 47.2719C98.6888 45.7793 98.3722 44.1398 98.3722 42.3532C98.3722 40.5667 98.6888 38.9272 99.3221 37.4346C99.9779 35.942 100.882 34.6417 102.036 33.5336C103.212 32.4255 104.58 31.5774 106.14 30.9895C107.701 30.3789 109.408 30.0736 111.263 30.0736C113.32 30.0736 115.175 30.4354 116.826 31.1591C118.499 31.8601 119.901 32.9004 121.032 34.2799L117.504 37.5364C116.69 36.6092 115.785 35.9194 114.79 35.4671C113.795 34.9922 112.71 34.7548 111.534 34.7548C110.426 34.7548 109.408 34.9357 108.481 35.2975C107.554 35.6594 106.751 36.1795 106.072 36.8579C105.394 37.5364 104.863 38.3392 104.478 39.2664C104.116 40.1936 103.935 41.2225 103.935 42.3532C103.935 43.484 104.116 44.5129 104.478 45.4401C104.863 46.3673 105.394 47.1701 106.072 47.8486C106.751 48.527 107.554 49.0471 108.481 49.409C109.408 49.7708 110.426 49.9517 111.534 49.9517C112.71 49.9517 113.795 49.7256 114.79 49.2733C115.785 48.7984 116.69 48.086 117.504 47.1362L121.032 50.3927C119.901 51.7722 118.499 52.8238 116.826 53.5474C115.175 54.2711 113.309 54.6329 111.229 54.6329ZM128.135 54.2259V30.4806H133.63V54.2259H128.135ZM150.46 54.6329C148.56 54.6329 146.74 54.3842 144.998 53.8866C143.257 53.3665 141.855 52.6994 140.792 51.8853L142.658 47.7468C143.676 48.4705 144.874 49.0697 146.254 49.5447C147.656 49.9969 149.069 50.2231 150.494 50.2231C151.579 50.2231 152.45 50.1213 153.106 49.9178C153.784 49.6916 154.282 49.3864 154.598 49.0019C154.915 48.6175 155.073 48.1765 155.073 47.679C155.073 47.0458 154.824 46.5482 154.327 46.1864C153.829 45.802 153.174 45.4967 152.359 45.2705C151.545 45.0218 150.641 44.7956 149.646 44.5921C148.673 44.3659 147.69 44.0946 146.695 43.778C145.722 43.4614 144.829 43.0543 144.015 42.5568C143.201 42.0593 142.533 41.4034 142.013 40.5893C141.516 39.7752 141.267 38.7349 141.267 37.4685C141.267 36.1116 141.629 34.8792 142.353 33.771C143.099 32.6403 144.207 31.747 145.677 31.0912C147.169 30.4128 149.035 30.0736 151.274 30.0736C152.767 30.0736 154.236 30.2545 155.684 30.6163C157.131 30.9555 158.409 31.4757 159.517 32.1767L157.821 36.3491C156.713 35.7159 155.605 35.2523 154.497 34.9583C153.388 34.6417 152.303 34.4834 151.24 34.4834C150.177 34.4834 149.307 34.6078 148.628 34.8565C147.95 35.1053 147.463 35.4332 147.169 35.8403C146.875 36.2247 146.728 36.677 146.728 37.1971C146.728 37.8077 146.977 38.3053 147.475 38.6897C147.972 39.0515 148.628 39.3455 149.442 39.5717C150.256 39.7978 151.15 40.024 152.122 40.2501C153.117 40.4762 154.101 40.7363 155.073 41.0303C156.068 41.3243 156.973 41.72 157.787 42.2176C158.601 42.7151 159.257 43.3709 159.754 44.185C160.275 44.9991 160.535 46.0281 160.535 47.2719C160.535 48.6062 160.161 49.8273 159.415 50.9354C158.669 52.0436 157.55 52.9368 156.057 53.6153C154.587 54.2937 152.721 54.6329 150.46 54.6329ZM183.964 30.4806H189.46V54.2259H183.964V30.4806ZM173.177 54.2259H167.682V30.4806H173.177V54.2259ZM184.371 44.4903H172.77V39.843H184.371V44.4903ZM210.003 54.6329C208.126 54.6329 206.385 54.3276 204.779 53.717C203.196 53.1064 201.817 52.2471 200.641 51.139C199.487 50.0309 198.583 48.7305 197.927 47.238C197.294 45.7454 196.977 44.1172 196.977 42.3532C196.977 40.5893 197.294 38.9611 197.927 37.4685C198.583 35.976 199.499 34.6756 200.675 33.5675C201.851 32.4594 203.23 31.6001 204.813 30.9895C206.396 30.3789 208.115 30.0736 209.969 30.0736C211.846 30.0736 213.565 30.3789 215.125 30.9895C216.708 31.6001 218.076 32.4594 219.23 33.5675C220.406 34.6756 221.322 35.976 221.977 37.4685C222.633 38.9385 222.961 40.5667 222.961 42.3532C222.961 44.1172 222.633 45.7567 221.977 47.2719C221.322 48.7645 220.406 50.0648 219.23 51.1729C218.076 52.2584 216.708 53.1064 215.125 53.717C213.565 54.3276 211.857 54.6329 210.003 54.6329ZM209.969 49.9517C211.032 49.9517 212.004 49.7708 212.886 49.409C213.791 49.0471 214.583 48.527 215.261 47.8486C215.939 47.1701 216.46 46.3673 216.821 45.4401C217.206 44.5129 217.398 43.484 217.398 42.3532C217.398 41.2225 217.206 40.1936 216.821 39.2664C216.46 38.3392 215.939 37.5364 215.261 36.8579C214.605 36.1795 213.825 35.6594 212.92 35.2975C212.016 34.9357 211.032 34.7548 209.969 34.7548C208.906 34.7548 207.923 34.9357 207.018 35.2975C206.136 35.6594 205.356 36.1795 204.677 36.8579C203.999 37.5364 203.468 38.3392 203.083 39.2664C202.721 40.1936 202.54 41.2225 202.54 42.3532C202.54 43.4614 202.721 44.4903 203.083 45.4401C203.468 46.3673 203.988 47.1701 204.643 47.8486C205.322 48.527 206.113 49.0471 207.018 49.409C207.923 49.7708 208.906 49.9517 209.969 49.9517ZM230.483 54.2259V30.4806H240.762C242.887 30.4806 244.719 30.8312 246.257 31.5322C247.795 32.2106 248.982 33.1944 249.819 34.4834C250.655 35.7724 251.074 37.3102 251.074 39.0968C251.074 40.8607 250.655 42.3872 249.819 43.6762C248.982 44.9652 247.795 45.9603 246.257 46.6613C244.719 47.3397 242.887 47.679 240.762 47.679H233.536L235.979 45.2027V54.2259H230.483ZM235.979 45.8133L233.536 43.2013H240.456C242.152 43.2013 243.419 42.8395 244.256 42.1158C245.092 41.3921 245.511 40.3858 245.511 39.0968C245.511 37.7851 245.092 36.7675 244.256 36.0438C243.419 35.3201 242.152 34.9583 240.456 34.9583H233.536L235.979 32.3463V45.8133Z" fill="#00EFD1"/>
<path d="M41.5933 16.771C41.5247 16.5838 41.455 16.5838 41.3843 16.771C39.8386 20.954 38.34 25.0207 36.8886 28.9713C36.7085 29.4683 36.6281 29.8331 36.0943 30.0719C31.2213 32.2624 26.8402 35.3071 22.9513 39.206C22.7948 39.3631 22.7572 39.3383 22.8387 39.1317C27.09 28.3796 31.2963 17.7285 35.4575 7.17863C35.6805 6.61488 35.881 6.02961 36.0589 5.42282C36.095 5.30057 36.1693 5.19332 36.2708 5.11711C36.3722 5.0409 36.4953 4.99982 36.6217 5.00001H46.5939C46.8104 5.00001 46.9594 5.10114 47.0409 5.3034L54.8392 24.6141C54.8474 24.633 54.851 24.6537 54.8498 24.6743C54.8486 24.6949 54.8426 24.715 54.8323 24.7329C54.822 24.7507 54.8077 24.7659 54.7904 24.7773C54.7732 24.7886 54.7536 24.7957 54.7331 24.798C51.5881 25.2155 48.4944 25.8352 45.4523 26.6571C45.3622 26.6808 45.3001 26.6485 45.2658 26.5603L41.5933 16.771Z" fill="#00EFD1"/>
<path d="M44.0665 31.8794C36.3293 34.1882 30.0563 38.5433 25.2476 44.9447C23.1509 47.7376 21.528 50.7328 20.3789 53.9303C20.3381 54.04 20.2599 54.0949 20.1441 54.0949H17.1791C17.15 54.0949 17.1214 54.0877 17.0956 54.0739C17.0699 54.0602 17.0479 54.0402 17.0314 54.0158C17.015 53.9913 17.0046 53.9632 17.0012 53.9337C16.9978 53.9042 17.0015 53.8742 17.0119 53.8464C20.6136 44.5681 26.908 37.702 35.8952 33.2479C39.6469 31.391 43.4791 29.987 47.3917 29.0359C55.4334 27.08 63.653 26.3871 72.0505 26.9573C72.0848 26.9595 72.102 26.9789 72.102 27.0154C72.102 27.052 72.0848 27.0714 72.0505 27.0735C70.8521 27.1338 69.6301 27.1897 68.3845 27.2414C53.4406 27.8514 39.037 34.1839 30.9428 47.0103C29.5729 49.1814 28.4645 51.5064 27.6177 53.9852C27.6112 54.0067 27.5973 54.0217 27.5759 54.0303C27.4065 54.0884 26.2938 54.1153 24.2378 54.111C24.1928 54.111 24.1778 54.0906 24.1928 54.0497C25.0718 51.5236 26.0387 49.3611 27.0935 47.5623C30.8517 41.1566 36.0581 36.1979 42.7127 32.6863C43.1736 32.4432 43.6345 32.1979 44.0955 31.9504C44.3184 31.8299 44.3088 31.8063 44.0665 31.8794Z" fill="#00EFD1"/>
<path d="M48.6361 34.9198C51.4981 33.5674 54.4117 32.4571 57.4731 31.6728C57.5319 31.6584 57.594 31.6657 57.6483 31.6935C57.7025 31.7213 57.7453 31.7678 57.769 31.8245L66.6896 53.8657C66.6996 53.8906 66.7033 53.9176 66.7005 53.9443C66.6977 53.9709 66.6885 53.9965 66.6736 54.0188C66.6587 54.0411 66.6386 54.0593 66.615 54.072C66.5915 54.0847 66.5652 54.0915 66.5385 54.0916H56.071C55.9381 54.0916 55.847 54.0292 55.7977 53.9044L48.5524 35.1296C48.5139 35.0327 48.5417 34.9628 48.6361 34.9198Z" fill="#00EFD1"/>
<path d="M79.3214 26.8927L71.0792 29.4747C71.0601 29.4804 71.0396 29.4799 71.0207 29.4734C71.0018 29.4668 70.9854 29.4545 70.9737 29.4382C70.9621 29.4219 70.9558 29.4024 70.9557 29.3824C70.9555 29.3623 70.9616 29.3427 70.9731 29.3263L72.7675 26.841C72.7801 26.8243 72.7868 26.8039 72.7868 26.7829C72.7868 26.762 72.7801 26.7416 72.7675 26.7248L70.9281 24.2557C70.9166 24.2393 70.9105 24.2197 70.9106 24.1996C70.9108 24.1796 70.9171 24.16 70.9287 24.1437C70.9404 24.1274 70.9568 24.1152 70.9757 24.1086C70.9946 24.1021 71.015 24.1016 71.0342 24.1073L79.3214 26.7055C79.3419 26.7109 79.3601 26.7231 79.3731 26.74C79.3861 26.7569 79.3931 26.7777 79.3931 26.7991C79.3931 26.8204 79.3861 26.8412 79.3731 26.8581C79.3601 26.875 79.3419 26.8872 79.3214 26.8927Z" fill="#00EFD1"/>
<path d="M81.1118 24.3613V20.2642H79.4973V19.7774H83.3105V20.2642H81.696V24.3613H81.1118ZM85.0024 24.3613V19.7774H85.5865V21.7894H88.3693V19.7774H88.9535V24.3613H88.3693V22.2843H85.5865V24.3613H85.0024ZM91.9575 21.7976H94.4238V22.2762H91.9575V21.7976ZM92.0548 23.8745H94.8052V24.3613H91.4707V19.7774H94.7078V20.2642H92.0548V23.8745ZM99.812 24.3613V19.7774H101.848C102.378 19.7774 102.787 19.8802 103.073 20.0857C103.366 20.2912 103.512 20.5806 103.512 20.9538C103.512 21.327 103.384 21.6137 103.13 21.8138C102.876 22.0139 102.546 22.114 102.14 22.114L102.254 21.9274C102.735 21.9274 103.106 22.0301 103.366 22.2357C103.631 22.4358 103.763 22.7333 103.763 23.1281C103.763 23.5175 103.614 23.8204 103.317 24.0368C103.019 24.2531 102.573 24.3613 101.978 24.3613H99.812ZM100.396 23.907H101.962C102.357 23.907 102.657 23.8421 102.863 23.7123C103.068 23.577 103.171 23.3688 103.171 23.0875C103.171 22.8009 103.068 22.5926 102.863 22.4628C102.657 22.333 102.357 22.2681 101.962 22.2681H100.299V21.8138H101.808C102.165 21.8138 102.441 21.7462 102.635 21.611C102.835 21.4757 102.936 21.2783 102.936 21.0187C102.936 20.7591 102.835 20.5644 102.635 20.4346C102.441 20.2993 102.165 20.2317 101.808 20.2317H100.396V23.907ZM106.284 21.7976H108.75V22.2762H106.284V21.7976ZM106.381 23.8745H109.131V24.3613H105.797V19.7774H109.034V20.2642H106.381V23.8745ZM114.246 23.1119C114.246 23.3661 114.176 23.5906 114.035 23.7853C113.9 23.98 113.7 24.1341 113.435 24.2477C113.175 24.3559 112.853 24.41 112.469 24.41C112.118 24.41 111.78 24.3559 111.455 24.2477C111.136 24.1395 110.884 24.0016 110.701 23.834L110.944 23.3796C111.112 23.5365 111.333 23.6663 111.609 23.769C111.891 23.8664 112.183 23.9151 112.485 23.9151C112.907 23.9151 113.208 23.8421 113.386 23.696C113.57 23.5446 113.662 23.3661 113.662 23.1606C113.662 22.9875 113.611 22.8523 113.508 22.7549C113.405 22.6521 113.27 22.571 113.102 22.5115C112.934 22.4466 112.751 22.3925 112.55 22.3493C112.35 22.306 112.15 22.2573 111.95 22.2032C111.75 22.1491 111.563 22.0761 111.39 21.9842C111.223 21.8922 111.087 21.7705 110.985 21.6191C110.887 21.4676 110.839 21.2675 110.839 21.0187C110.839 20.7699 110.906 20.5481 111.041 20.3534C111.177 20.1587 111.374 20.0046 111.634 19.891C111.893 19.7774 112.212 19.7206 112.591 19.7206C112.861 19.7206 113.126 19.7558 113.386 19.8261C113.651 19.891 113.878 19.991 114.068 20.1263L113.857 20.5968C113.662 20.4616 113.454 20.3669 113.232 20.3129C113.01 20.2534 112.791 20.2236 112.575 20.2236C112.174 20.2236 111.88 20.2993 111.69 20.4508C111.507 20.5968 111.415 20.778 111.415 20.9944C111.415 21.1674 111.466 21.3054 111.569 21.4081C111.671 21.5055 111.807 21.5866 111.974 21.6515C112.142 21.711 112.326 21.7624 112.526 21.8057C112.732 21.8489 112.934 21.8976 113.135 21.9517C113.335 22.0058 113.519 22.0788 113.686 22.1708C113.854 22.2573 113.989 22.3763 114.092 22.5277C114.195 22.6792 114.246 22.8739 114.246 23.1119ZM116.977 24.3613V20.2642H115.363V19.7774H119.176V20.2642H117.562V24.3613H116.977ZM126.845 23.1119C126.845 23.3661 126.775 23.5906 126.634 23.7853C126.499 23.98 126.299 24.1341 126.034 24.2477C125.774 24.3559 125.452 24.41 125.068 24.41C124.717 24.41 124.379 24.3559 124.054 24.2477C123.735 24.1395 123.484 24.0016 123.3 23.834L123.543 23.3796C123.711 23.5365 123.933 23.6663 124.208 23.769C124.49 23.8664 124.782 23.9151 125.085 23.9151C125.506 23.9151 125.807 23.8421 125.985 23.696C126.169 23.5446 126.261 23.3661 126.261 23.1606C126.261 22.9875 126.21 22.8523 126.107 22.7549C126.004 22.6521 125.869 22.571 125.701 22.5115C125.534 22.4466 125.35 22.3925 125.149 22.3493C124.949 22.306 124.749 22.2573 124.549 22.2032C124.349 22.1491 124.162 22.0761 123.989 21.9842C123.822 21.8922 123.686 21.7705 123.584 21.6191C123.486 21.4676 123.438 21.2675 123.438 21.0187C123.438 20.7699 123.505 20.5481 123.64 20.3534C123.776 20.1587 123.973 20.0046 124.233 19.891C124.492 19.7774 124.811 19.7206 125.19 19.7206C125.46 19.7206 125.726 19.7558 125.985 19.8261C126.25 19.891 126.477 19.991 126.667 20.1263L126.456 20.5968C126.261 20.4616 126.053 20.3669 125.831 20.3129C125.609 20.2534 125.39 20.2236 125.174 20.2236C124.774 20.2236 124.479 20.2993 124.29 20.4508C124.106 20.5968 124.014 20.778 124.014 20.9944C124.014 21.1674 124.065 21.3054 124.168 21.4081C124.271 21.5055 124.406 21.5866 124.573 21.6515C124.741 21.711 124.925 21.7624 125.125 21.8057C125.331 21.8489 125.534 21.8976 125.734 21.9517C125.934 22.0058 126.118 22.0788 126.285 22.1708C126.453 22.2573 126.588 22.3763 126.691 22.5277C126.794 22.6792 126.845 22.8739 126.845 23.1119ZM130.857 24.41C130.391 24.41 129.972 24.3099 129.599 24.1098C129.226 23.9043 128.931 23.6257 128.715 23.2741C128.504 22.9172 128.398 22.5142 128.398 22.0653C128.398 21.6164 128.504 21.2161 128.715 20.8646C128.931 20.513 129.226 20.2344 129.599 20.0289C129.972 19.8234 130.391 19.7206 130.857 19.7206C131.327 19.7206 131.746 19.8234 132.114 20.0289C132.487 20.2344 132.779 20.513 132.99 20.8646C133.207 21.2161 133.315 21.6164 133.315 22.0653C133.315 22.5142 133.207 22.9172 132.99 23.2741C132.779 23.6257 132.487 23.9043 132.114 24.1098C131.746 24.3099 131.327 24.41 130.857 24.41ZM130.857 23.907C131.219 23.907 131.541 23.8285 131.822 23.6717C132.103 23.5094 132.325 23.2904 132.487 23.0145C132.65 22.7333 132.731 22.4169 132.731 22.0653C132.731 21.7137 132.647 21.4 132.479 21.1242C132.317 20.8483 132.095 20.632 131.814 20.4751C131.538 20.3129 131.219 20.2317 130.857 20.2317C130.5 20.2317 130.178 20.3129 129.891 20.4751C129.61 20.632 129.388 20.8483 129.226 21.1242C129.064 21.4 128.982 21.7137 128.982 22.0653C128.982 22.4169 129.064 22.7333 129.226 23.0145C129.388 23.2904 129.61 23.5094 129.891 23.6717C130.178 23.8285 130.5 23.907 130.857 23.907ZM137.356 24.41C136.891 24.41 136.472 24.3099 136.099 24.1098C135.731 23.9043 135.439 23.6257 135.223 23.2741C135.012 22.9172 134.906 22.5142 134.906 22.0653C134.906 21.6164 135.012 21.2161 135.223 20.8646C135.439 20.513 135.731 20.2344 136.099 20.0289C136.472 19.8234 136.891 19.7206 137.356 19.7206C137.724 19.7206 138.054 19.7774 138.346 19.891C138.638 20.0046 138.89 20.1749 139.101 20.4021L138.727 20.7834C138.544 20.5941 138.338 20.4562 138.111 20.3697C137.884 20.2777 137.638 20.2317 137.373 20.2317C137.016 20.2317 136.694 20.3129 136.407 20.4751C136.12 20.632 135.896 20.8483 135.734 21.1242C135.571 21.4 135.49 21.7137 135.49 22.0653C135.49 22.4169 135.571 22.7333 135.734 23.0145C135.896 23.2904 136.12 23.5067 136.407 23.6636C136.694 23.8204 137.016 23.8989 137.373 23.8989C137.638 23.8989 137.884 23.8556 138.111 23.769C138.338 23.6825 138.544 23.5419 138.727 23.3472L139.101 23.7285C138.89 23.9556 138.636 24.126 138.338 24.2396C138.046 24.3532 137.719 24.41 137.356 24.41ZM141.061 24.3613V19.7774H141.645V24.3613H141.061ZM143.326 24.3613L145.443 19.7774H146.019L148.137 24.3613H147.553L145.63 20.0938H145.833L143.902 24.3613H143.326ZM144.218 23.1768L144.389 22.7062H147.001L147.172 23.1768H144.218ZM149.822 24.3613V19.7774H150.406V23.8745H152.962V24.3613H149.822ZM154.245 22.4142V21.9111H156.371V22.4142H154.245ZM158.52 24.3613V19.7774H159.023L161.091 23.2579H160.856L162.909 19.7774H163.412V24.3613H162.852V20.6698H162.949L161.1 23.7853H160.832L158.95 20.6698H159.079V24.3613H158.52ZM166.418 21.7976H168.884V22.2762H166.418V21.7976ZM166.515 23.8745H169.265V24.3613H165.931V19.7774H169.168V20.2642H166.515V23.8745ZM171.337 24.3613V19.7774H173.26C173.779 19.7774 174.226 19.8748 174.599 20.0695C174.972 20.2588 175.259 20.5265 175.459 20.8727C175.664 21.2134 175.767 21.611 175.767 22.0653C175.767 22.525 175.664 22.928 175.459 23.2741C175.259 23.6149 174.972 23.8826 174.599 24.0773C174.226 24.2667 173.779 24.3613 173.26 24.3613H171.337ZM171.921 23.8745H173.236C173.647 23.8745 173.998 23.7988 174.291 23.6474C174.583 23.4959 174.804 23.285 174.956 23.0145C175.107 22.7441 175.183 22.4277 175.183 22.0653C175.183 21.7029 175.107 21.3865 174.956 21.1161C174.804 20.8456 174.583 20.6374 174.291 20.4913C173.998 20.3399 173.647 20.2642 173.236 20.2642H171.921V23.8745ZM177.822 24.3613V19.7774H178.406V24.3613H177.822ZM180.087 24.3613L182.204 19.7774H182.78L184.898 24.3613H184.314L182.391 20.0938H182.594L180.663 24.3613H180.087ZM180.979 23.1768L181.15 22.7062H183.762L183.933 23.1768H180.979ZM188.682 24.3613L190.799 19.7774H191.375L193.493 24.3613H192.909L190.986 20.0938H191.189L189.258 24.3613H188.682ZM189.574 23.1768L189.745 22.7062H192.357L192.527 23.1768H189.574ZM197.086 24.41C196.621 24.41 196.202 24.3099 195.829 24.1098C195.461 23.9043 195.169 23.6257 194.952 23.2741C194.741 22.9172 194.636 22.5142 194.636 22.0653C194.636 21.6164 194.741 21.2161 194.952 20.8646C195.169 20.513 195.461 20.2344 195.829 20.0289C196.202 19.8234 196.621 19.7206 197.086 19.7206C197.454 19.7206 197.784 19.7774 198.076 19.891C198.368 20.0046 198.619 20.1749 198.83 20.4021L198.457 20.7834C198.273 20.5941 198.068 20.4562 197.841 20.3697C197.613 20.2777 197.367 20.2317 197.102 20.2317C196.745 20.2317 196.423 20.3129 196.137 20.4751C195.85 20.632 195.626 20.8483 195.463 21.1242C195.301 21.4 195.22 21.7137 195.22 22.0653C195.22 22.4169 195.301 22.7333 195.463 23.0145C195.626 23.2904 195.85 23.5067 196.137 23.6636C196.423 23.8204 196.745 23.8989 197.102 23.8989C197.367 23.8989 197.613 23.8556 197.841 23.769C198.068 23.6825 198.273 23.5419 198.457 23.3472L198.83 23.7285C198.619 23.9556 198.365 24.126 198.068 24.2396C197.776 24.3532 197.448 24.41 197.086 24.41ZM202.659 24.41C202.194 24.41 201.775 24.3099 201.402 24.1098C201.034 23.9043 200.742 23.6257 200.525 23.2741C200.314 22.9172 200.209 22.5142 200.209 22.0653C200.209 21.6164 200.314 21.2161 200.525 20.8646C200.742 20.513 201.034 20.2344 201.402 20.0289C201.775 19.8234 202.194 19.7206 202.659 19.7206C203.027 19.7206 203.357 19.7774 203.649 19.891C203.941 20.0046 204.192 20.1749 204.403 20.4021L204.03 20.7834C203.846 20.5941 203.641 20.4562 203.414 20.3697C203.186 20.2777 202.94 20.2317 202.675 20.2317C202.318 20.2317 201.996 20.3129 201.71 20.4751C201.423 20.632 201.199 20.8483 201.036 21.1242C200.874 21.4 200.793 21.7137 200.793 22.0653C200.793 22.4169 200.874 22.7333 201.036 23.0145C201.199 23.2904 201.423 23.5067 201.71 23.6636C201.996 23.8204 202.318 23.8989 202.675 23.8989C202.94 23.8989 203.186 23.8556 203.414 23.769C203.641 23.6825 203.846 23.5419 204.03 23.3472L204.403 23.7285C204.192 23.9556 203.938 24.126 203.641 24.2396C203.349 24.3532 203.021 24.41 202.659 24.41ZM208.24 24.41C207.775 24.41 207.356 24.3099 206.983 24.1098C206.609 23.9043 206.315 23.6257 206.098 23.2741C205.887 22.9172 205.782 22.5142 205.782 22.0653C205.782 21.6164 205.887 21.2161 206.098 20.8646C206.315 20.513 206.609 20.2344 206.983 20.0289C207.356 19.8234 207.775 19.7206 208.24 19.7206C208.711 19.7206 209.13 19.8234 209.498 20.0289C209.871 20.2344 210.163 20.513 210.374 20.8646C210.59 21.2161 210.698 21.6164 210.698 22.0653C210.698 22.5142 210.59 22.9172 210.374 23.2741C210.163 23.6257 209.871 23.9043 209.498 24.1098C209.13 24.3099 208.711 24.41 208.24 24.41ZM208.24 23.907C208.603 23.907 208.924 23.8285 209.206 23.6717C209.487 23.5094 209.709 23.2904 209.871 23.0145C210.033 22.7333 210.114 22.4169 210.114 22.0653C210.114 21.7137 210.03 21.4 209.863 21.1242C209.701 20.8483 209.479 20.632 209.198 20.4751C208.922 20.3129 208.603 20.2317 208.24 20.2317C207.883 20.2317 207.561 20.3129 207.275 20.4751C206.993 20.632 206.772 20.8483 206.609 21.1242C206.447 21.4 206.366 21.7137 206.366 22.0653C206.366 22.4169 206.447 22.7333 206.609 23.0145C206.772 23.2904 206.993 23.5094 207.275 23.6717C207.561 23.8285 207.883 23.907 208.24 23.907ZM214.651 24.41C214.245 24.41 213.896 24.3343 213.604 24.1828C213.317 24.026 213.096 23.7988 212.939 23.5013C212.782 23.2038 212.704 22.8414 212.704 22.4142V19.7774H213.288V22.3979C213.288 22.9009 213.407 23.2796 213.645 23.5338C213.883 23.7826 214.218 23.907 214.651 23.907C215.089 23.907 215.427 23.7826 215.665 23.5338C215.903 23.2796 216.022 22.9009 216.022 22.3979V19.7774H216.59V22.4142C216.59 22.8414 216.511 23.2038 216.355 23.5013C216.203 23.7988 215.981 24.026 215.689 24.1828C215.403 24.3343 215.056 24.41 214.651 24.41ZM219.054 24.3613V19.7774H219.533L222.648 23.6392H222.421V19.7774H223.005V24.3613H222.519L219.403 20.4913H219.638V24.3613H219.054ZM226.318 24.3613V20.2642H224.703V19.7774H228.516V20.2642H226.902V24.3613H226.318ZM233.251 23.1119C233.251 23.3661 233.18 23.5906 233.04 23.7853C232.904 23.98 232.704 24.1341 232.439 24.2477C232.18 24.3559 231.858 24.41 231.474 24.41C231.122 24.41 230.784 24.3559 230.46 24.2477C230.141 24.1395 229.889 24.0016 229.705 23.834L229.949 23.3796C230.116 23.5365 230.338 23.6663 230.614 23.769C230.895 23.8664 231.187 23.9151 231.49 23.9151C231.912 23.9151 232.212 23.8421 232.391 23.696C232.574 23.5446 232.666 23.3661 232.666 23.1606C232.666 22.9875 232.615 22.8523 232.512 22.7549C232.41 22.6521 232.274 22.571 232.107 22.5115C231.939 22.4466 231.755 22.3925 231.555 22.3493C231.355 22.306 231.155 22.2573 230.955 22.2032C230.754 22.1491 230.568 22.0761 230.395 21.9842C230.227 21.8922 230.092 21.7705 229.989 21.6191C229.892 21.4676 229.843 21.2675 229.843 21.0187C229.843 20.7699 229.911 20.5481 230.046 20.3534C230.181 20.1587 230.379 20.0046 230.638 19.891C230.898 19.7774 231.217 19.7206 231.596 19.7206C231.866 19.7206 232.131 19.7558 232.391 19.8261C232.656 19.891 232.883 19.991 233.072 20.1263L232.861 20.5968C232.666 20.4616 232.458 20.3669 232.236 20.3129C232.015 20.2534 231.796 20.2236 231.579 20.2236C231.179 20.2236 230.884 20.2993 230.695 20.4508C230.511 20.5968 230.419 20.778 230.419 20.9944C230.419 21.1674 230.47 21.3054 230.573 21.4081C230.676 21.5055 230.811 21.5866 230.979 21.6515C231.147 21.711 231.33 21.7624 231.531 21.8057C231.736 21.8489 231.939 21.8976 232.139 21.9517C232.339 22.0058 232.523 22.0788 232.691 22.1708C232.858 22.2573 232.994 22.3763 233.096 22.5277C233.199 22.6792 233.251 22.8739 233.251 23.1119Z" fill="white" fill-opacity="0.84"/>
<defs>
<filter id="filter0_bii_272_103" x="-20.34" y="-20.34" width="310.68" height="103.68" filterUnits="userSpaceOnUse" color-interpolation-filters="sRGB">
<feFlood flood-opacity="0" result="BackgroundImageFix"/>
<feGaussianBlur in="BackgroundImageFix" stdDeviation="10.17"/>
<feComposite in2="SourceAlpha" operator="in" result="effect1_backgroundBlur_272_103"/>
<feBlend mode="normal" in="SourceGraphic" in2="effect1_backgroundBlur_272_103" result="shape"/>
<feColorMatrix in="SourceAlpha" type="matrix" values="0 0 0 0 0 0 0 0 0 0 0 0 0 0 0 0 0 0 127 0" result="hardAlpha"/>
<feOffset dx="-10.17" dy="10.17"/>
<feGaussianBlur stdDeviation="5.085"/>
<feComposite in2="hardAlpha" operator="arithmetic" k2="-1" k3="1"/>
<feColorMatrix type="matrix" values="0 0 0 0 1 0 0 0 0 1 0 0 0 0 1 0 0 0 0.1 0"/>
<feBlend mode="normal" in2="shape" result="effect2_innerShadow_272_103"/>
<feColorMatrix in="SourceAlpha" type="matrix" values="0 0 0 0 0 0 0 0 0 0 0 0 0 0 0 0 0 0 127 0" result="hardAlpha"/>
<feOffset dx="10.17" dy="-10.17"/>
<feGaussianBlur stdDeviation="5.085"/>
<feComposite in2="hardAlpha" operator="arithmetic" k2="-1" k3="1"/>
<feColorMatrix type="matrix" values="0 0 0 0 0.76 0 0 0 0 0.76 0 0 0 0 0.76 0 0 0 0.1 0"/>
<feBlend mode="normal" in2="effect2_innerShadow_272_103" result="effect3_innerShadow_272_103"/>
</filter>
</defs>
</svg>
