<svg width="361" height="80" viewBox="0 0 361 80" fill="none" xmlns="http://www.w3.org/2000/svg">
<g filter="url(#filter0_d_147_119)">
<path d="M15 23C15 18.5817 18.5817 15 23 15H305.59C308.073 15 310.416 16.1533 311.93 18.1215L345.523 61.7804C346.535 63.0956 345.597 65 343.938 65H23C18.5817 65 15 61.4183 15 57V23Z" fill="url(#paint0_linear_147_119)"/>
</g>
<path d="M63.4 49.22C61.84 49.22 60.5 48.92 59.38 48.32C58.26 47.72 57.4 46.8733 56.8 45.78C56.2133 44.6867 55.92 43.4067 55.92 41.94C55.92 40.8467 56.0867 39.8533 56.42 38.96C56.7667 38.0667 57.26 37.3 57.9 36.66C58.5533 36.02 59.34 35.5333 60.26 35.2C61.1933 34.8533 62.24 34.68 63.4 34.68C64.0133 34.68 64.6467 34.7533 65.3 34.9C65.9667 35.0333 66.5533 35.24 67.06 35.52C67.4333 35.72 67.6933 35.9733 67.84 36.28C67.9867 36.5867 68.0333 36.9 67.98 37.22C67.94 37.54 67.8267 37.8267 67.64 38.08C67.4533 38.3333 67.2133 38.5067 66.92 38.6C66.6267 38.68 66.3067 38.6333 65.96 38.46C65.56 38.2733 65.16 38.1333 64.76 38.04C64.3733 37.9333 63.9667 37.88 63.54 37.88C62.7133 37.88 62.02 38.04 61.46 38.36C60.9133 38.6667 60.5 39.12 60.22 39.72C59.94 40.32 59.8 41.06 59.8 41.94C59.8 42.82 59.94 43.5667 60.22 44.18C60.5 44.78 60.9133 45.24 61.46 45.56C62.02 45.8667 62.7133 46.02 63.54 46.02C63.8867 46.02 64.26 45.98 64.66 45.9C65.06 45.8067 65.4533 45.6667 65.84 45.48C66.24 45.3067 66.5933 45.26 66.9 45.34C67.22 45.42 67.4733 45.58 67.66 45.82C67.86 46.06 67.9867 46.34 68.04 46.66C68.0933 46.9667 68.0467 47.2733 67.9 47.58C67.7667 47.8867 67.5267 48.1333 67.18 48.32C66.7133 48.6 66.1333 48.82 65.44 48.98C64.76 49.14 64.08 49.22 63.4 49.22ZM75.0142 49.18C74.4276 49.18 73.9742 49.02 73.6542 48.7C73.3342 48.3667 73.1742 47.9067 73.1742 47.32V37.9H70.0342C69.5409 37.9 69.1609 37.7733 68.8942 37.52C68.6409 37.2533 68.5142 36.88 68.5142 36.4C68.5142 35.9067 68.6409 35.5333 68.8942 35.28C69.1609 35.0267 69.5409 34.9 70.0342 34.9H79.9942C80.4876 34.9 80.8609 35.0267 81.1142 35.28C81.3809 35.5333 81.5142 35.9067 81.5142 36.4C81.5142 36.88 81.3809 37.2533 81.1142 37.52C80.8609 37.7733 80.4876 37.9 79.9942 37.9H76.8542V47.32C76.8542 47.9067 76.7009 48.3667 76.3942 48.7C76.0876 49.02 75.6276 49.18 75.0142 49.18ZM81.6275 49.18C81.2142 49.18 80.8675 49.0867 80.5875 48.9C80.3075 48.7 80.1342 48.4333 80.0675 48.1C80.0008 47.7533 80.0608 47.3667 80.2475 46.94L85.2275 36.22C85.4675 35.7 85.7608 35.32 86.1075 35.08C86.4675 34.84 86.8742 34.72 87.3275 34.72C87.7808 34.72 88.1742 34.84 88.5075 35.08C88.8542 35.32 89.1542 35.7 89.4075 36.22L94.3875 46.94C94.6008 47.3667 94.6742 47.7533 94.6075 48.1C94.5542 48.4467 94.3875 48.7133 94.1075 48.9C93.8408 49.0867 93.5075 49.18 93.1075 49.18C92.5742 49.18 92.1608 49.06 91.8675 48.82C91.5875 48.58 91.3342 48.1933 91.1075 47.66L90.0275 45.12L91.4275 46.14H83.1875L84.6075 45.12L83.5275 47.66C83.2875 48.1933 83.0408 48.58 82.7875 48.82C82.5342 49.06 82.1475 49.18 81.6275 49.18ZM87.2875 38.74L84.9675 44.28L84.4075 43.32H90.2275L89.6675 44.28L87.3275 38.74H87.2875ZM99.6236 49.18C99.0369 49.18 98.5836 49.02 98.2636 48.7C97.9436 48.3667 97.7836 47.9067 97.7836 47.32V37.9H94.6436C94.1503 37.9 93.7703 37.7733 93.5036 37.52C93.2503 37.2533 93.1236 36.88 93.1236 36.4C93.1236 35.9067 93.2503 35.5333 93.5036 35.28C93.7703 35.0267 94.1503 34.9 94.6436 34.9H104.604C105.097 34.9 105.47 35.0267 105.724 35.28C105.99 35.5333 106.124 35.9067 106.124 36.4C106.124 36.88 105.99 37.2533 105.724 37.52C105.47 37.7733 105.097 37.9 104.604 37.9H101.464V47.32C101.464 47.9067 101.31 48.3667 101.004 48.7C100.697 49.02 100.237 49.18 99.6236 49.18ZM109.255 49C108.628 49 108.148 48.84 107.815 48.52C107.495 48.1867 107.335 47.7133 107.335 47.1V36.6C107.335 35.9867 107.495 35.52 107.815 35.2C108.135 34.88 108.588 34.72 109.175 34.72C109.775 34.72 110.228 34.88 110.535 35.2C110.855 35.52 111.015 35.9867 111.015 36.6V40.38H114.335C115.361 40.38 116.241 40.5467 116.975 40.88C117.721 41.2133 118.295 41.7 118.695 42.34C119.095 42.98 119.295 43.76 119.295 44.68C119.295 46.0667 118.848 47.1333 117.955 47.88C117.075 48.6267 115.868 49 114.335 49H109.255ZM111.015 46.22H113.835C114.515 46.22 115.008 46.0933 115.315 45.84C115.635 45.5867 115.795 45.2 115.795 44.68C115.795 44.16 115.635 43.78 115.315 43.54C115.008 43.2867 114.515 43.16 113.835 43.16H111.015V46.22ZM128.667 49.18C128.08 49.18 127.627 49.02 127.307 48.7C126.987 48.3667 126.827 47.9 126.827 47.3V36.8C126.827 36.1867 126.987 35.72 127.307 35.4C127.64 35.0667 128.12 34.9 128.747 34.9H137.927C138.554 34.9 139.027 35.0667 139.347 35.4C139.68 35.72 139.847 36.1867 139.847 36.8V47.3C139.847 47.9 139.687 48.3667 139.367 48.7C139.06 49.02 138.607 49.18 138.007 49.18C137.42 49.18 136.967 49.02 136.647 48.7C136.327 48.3667 136.167 47.9 136.167 47.3V37.9H130.507V47.3C130.507 47.9 130.354 48.3667 130.047 48.7C129.74 49.02 129.28 49.18 128.667 49.18ZM143.073 49.18C142.659 49.18 142.313 49.0867 142.033 48.9C141.753 48.7 141.579 48.4333 141.513 48.1C141.446 47.7533 141.506 47.3667 141.693 46.94L146.673 36.22C146.913 35.7 147.206 35.32 147.553 35.08C147.913 34.84 148.319 34.72 148.773 34.72C149.226 34.72 149.619 34.84 149.953 35.08C150.299 35.32 150.599 35.7 150.853 36.22L155.833 46.94C156.046 47.3667 156.119 47.7533 156.053 48.1C155.999 48.4467 155.833 48.7133 155.553 48.9C155.286 49.0867 154.953 49.18 154.553 49.18C154.019 49.18 153.606 49.06 153.313 48.82C153.033 48.58 152.779 48.1933 152.553 47.66L151.473 45.12L152.873 46.14H144.633L146.053 45.12L144.973 47.66C144.733 48.1933 144.486 48.58 144.233 48.82C143.979 49.06 143.593 49.18 143.073 49.18ZM148.733 38.74L146.413 44.28L145.853 43.32H151.673L151.113 44.28L148.773 38.74H148.733ZM159.507 49.18C158.92 49.18 158.467 49.02 158.147 48.7C157.827 48.3667 157.667 47.9067 157.667 47.32V36.76C157.667 36.16 157.827 35.7 158.147 35.38C158.48 35.06 158.94 34.9 159.527 34.9H164.447C166.047 34.9 167.28 35.3133 168.147 36.14C169.027 36.9533 169.467 38.08 169.467 39.52C169.467 40.96 169.027 42.0933 168.147 42.92C167.28 43.7333 166.047 44.14 164.447 44.14H161.347V47.32C161.347 47.9067 161.193 48.3667 160.887 48.7C160.58 49.02 160.12 49.18 159.507 49.18ZM161.347 41.32H163.807C164.5 41.32 165.033 41.1733 165.407 40.88C165.78 40.5733 165.967 40.12 165.967 39.52C165.967 38.9067 165.78 38.4533 165.407 38.16C165.033 37.8667 164.5 37.72 163.807 37.72H161.347V41.32ZM176.03 49.18C175.443 49.18 174.99 49.02 174.67 48.7C174.35 48.3667 174.19 47.9067 174.19 47.32V37.9H171.05C170.557 37.9 170.177 37.7733 169.91 37.52C169.657 37.2533 169.53 36.88 169.53 36.4C169.53 35.9067 169.657 35.5333 169.91 35.28C170.177 35.0267 170.557 34.9 171.05 34.9H181.01C181.503 34.9 181.877 35.0267 182.13 35.28C182.397 35.5333 182.53 35.9067 182.53 36.4C182.53 36.88 182.397 37.2533 182.13 37.52C181.877 37.7733 181.503 37.9 181.01 37.9H177.87V47.32C177.87 47.9067 177.717 48.3667 177.41 48.7C177.103 49.02 176.643 49.18 176.03 49.18ZM185.581 49.18C184.994 49.18 184.541 49.02 184.221 48.7C183.901 48.3667 183.741 47.9 183.741 47.3V36.6C183.741 35.9867 183.901 35.52 184.221 35.2C184.541 34.88 184.994 34.72 185.581 34.72C186.181 34.72 186.634 34.88 186.941 35.2C187.261 35.52 187.421 35.9867 187.421 36.6V40.34H193.241V36.6C193.241 35.9867 193.394 35.52 193.701 35.2C194.021 34.88 194.481 34.72 195.081 34.72C195.668 34.72 196.114 34.88 196.421 35.2C196.741 35.52 196.901 35.9867 196.901 36.6V47.3C196.901 47.9 196.741 48.3667 196.421 48.7C196.114 49.02 195.668 49.18 195.081 49.18C194.481 49.18 194.021 49.02 193.701 48.7C193.394 48.3667 193.241 47.9 193.241 47.3V43.36H187.421V47.3C187.421 47.9 187.268 48.3667 186.961 48.7C186.654 49.02 186.194 49.18 185.581 49.18ZM201.384 49C200.757 49 200.277 48.84 199.944 48.52C199.624 48.1867 199.464 47.7133 199.464 47.1V36.8C199.464 36.1867 199.624 35.72 199.944 35.4C200.277 35.0667 200.757 34.9 201.384 34.9H208.164C208.644 34.9 209.004 35.02 209.244 35.26C209.484 35.5 209.604 35.8467 209.604 36.3C209.604 36.7667 209.484 37.1267 209.244 37.38C209.004 37.62 208.644 37.74 208.164 37.74H202.984V40.42H207.724C208.19 40.42 208.544 40.54 208.784 40.78C209.037 41.02 209.164 41.3733 209.164 41.84C209.164 42.3067 209.037 42.66 208.784 42.9C208.544 43.14 208.19 43.26 207.724 43.26H202.984V46.16H208.164C208.644 46.16 209.004 46.2867 209.244 46.54C209.484 46.78 209.604 47.1267 209.604 47.58C209.604 48.0467 209.484 48.4 209.244 48.64C209.004 48.88 208.644 49 208.164 49H201.384ZM213.589 49.18C213.002 49.18 212.549 49.02 212.229 48.7C211.909 48.3667 211.749 47.9067 211.749 47.32V36.76C211.749 36.16 211.909 35.7 212.229 35.38C212.562 35.06 213.022 34.9 213.609 34.9H218.529C220.129 34.9 221.362 35.3133 222.229 36.14C223.109 36.9533 223.549 38.08 223.549 39.52C223.549 40.96 223.109 42.0933 222.229 42.92C221.362 43.7333 220.129 44.14 218.529 44.14H215.429V47.32C215.429 47.9067 215.275 48.3667 214.969 48.7C214.662 49.02 214.202 49.18 213.589 49.18ZM215.429 41.32H217.889C218.582 41.32 219.115 41.1733 219.489 40.88C219.862 40.5733 220.049 40.12 220.049 39.52C220.049 38.9067 219.862 38.4533 219.489 38.16C219.115 37.8667 218.582 37.72 217.889 37.72H215.429V41.32ZM231.869 49.22C230.442 49.22 229.189 48.92 228.109 48.32C227.029 47.7067 226.189 46.8533 225.589 45.76C225.002 44.6667 224.709 43.3933 224.709 41.94C224.709 40.8467 224.876 39.8533 225.209 38.96C225.556 38.0667 226.042 37.3 226.669 36.66C227.309 36.02 228.069 35.5333 228.949 35.2C229.829 34.8533 230.802 34.68 231.869 34.68C233.296 34.68 234.542 34.98 235.609 35.58C236.689 36.18 237.529 37.0267 238.129 38.12C238.729 39.2 239.029 40.4733 239.029 41.94C239.029 43.0333 238.856 44.0267 238.509 44.92C238.176 45.8133 237.689 46.5867 237.049 47.24C236.422 47.88 235.669 48.3733 234.789 48.72C233.909 49.0533 232.936 49.22 231.869 49.22ZM231.869 46.14C232.576 46.14 233.176 45.9733 233.669 45.64C234.162 45.3067 234.542 44.8267 234.809 44.2C235.076 43.5733 235.209 42.82 235.209 41.94C235.209 40.62 234.916 39.5933 234.329 38.86C233.742 38.1267 232.922 37.76 231.869 37.76C231.176 37.76 230.576 37.9267 230.069 38.26C229.576 38.58 229.196 39.0533 228.929 39.68C228.662 40.2933 228.529 41.0467 228.529 41.94C228.529 43.26 228.822 44.2933 229.409 45.04C229.996 45.7733 230.816 46.14 231.869 46.14ZM242.902 49.18C242.369 49.18 241.955 49.0333 241.662 48.74C241.382 48.4467 241.242 48.0333 241.242 47.5V36.4C241.242 35.8533 241.395 35.44 241.702 35.16C242.009 34.8667 242.442 34.72 243.002 34.72C243.469 34.72 243.835 34.8133 244.102 35C244.382 35.1733 244.635 35.4667 244.862 35.88L249.162 43.6H248.462L252.742 35.88C252.982 35.4667 253.235 35.1733 253.502 35C253.782 34.8133 254.155 34.72 254.622 34.72C255.155 34.72 255.562 34.8667 255.842 35.16C256.135 35.44 256.282 35.8533 256.282 36.4V47.5C256.282 48.0333 256.142 48.4467 255.862 48.74C255.582 49.0333 255.169 49.18 254.622 49.18C254.089 49.18 253.675 49.0333 253.382 48.74C253.102 48.4467 252.962 48.0333 252.962 47.5V40.62H253.382L250.162 46.22C249.975 46.5133 249.775 46.7333 249.562 46.88C249.362 47.0267 249.089 47.1 248.742 47.1C248.409 47.1 248.135 47.0267 247.922 46.88C247.709 46.7333 247.515 46.5133 247.342 46.22L244.102 40.6H244.562V47.5C244.562 48.0333 244.422 48.4467 244.142 48.74C243.862 49.0333 243.449 49.18 242.902 49.18Z" fill="#23223E"/>
<path d="M292.562 38.3125C294.634 38.3125 296.312 36.6336 296.312 34.5625C296.312 32.4914 294.634 30.8125 292.562 30.8125C290.491 30.8125 288.812 32.4914 288.812 34.5625C288.812 36.6336 290.491 38.3125 292.562 38.3125Z" fill="#23223E"/>
<path d="M280.375 40.1875C280.374 39.8731 280.403 39.5593 280.459 39.25H277.562C276.319 39.25 275.127 39.7439 274.248 40.6229C273.369 41.502 272.875 42.6943 272.875 43.9375V48.625C272.875 48.8736 272.974 49.1121 273.15 49.2879C273.325 49.4637 273.564 49.5625 273.812 49.5625H277.562C277.564 48.2865 277.937 47.0384 278.636 45.9711C279.335 44.9038 280.331 44.0635 281.5 43.5531C280.772 42.582 280.377 41.4014 280.375 40.1875ZM294.438 39.25H291.541C291.597 39.5593 291.626 39.8731 291.625 40.1875C291.623 41.4014 291.228 42.582 290.5 43.5531C291.669 44.0635 292.665 44.9038 293.364 45.9711C294.063 47.0384 294.436 48.2865 294.438 49.5625H298.188C298.436 49.5625 298.675 49.4637 298.85 49.2879C299.026 49.1121 299.125 48.8736 299.125 48.625V43.9375C299.125 42.6943 298.631 41.502 297.752 40.6229C296.873 39.7439 295.681 39.25 294.438 39.25Z" fill="#23223E"/>
<path d="M279.438 38.3125C281.509 38.3125 283.188 36.6336 283.188 34.5625C283.188 32.4914 281.509 30.8125 279.438 30.8125C277.366 30.8125 275.688 32.4914 275.688 34.5625C275.688 36.6336 277.366 38.3125 279.438 38.3125Z" fill="#23223E"/>
<path d="M286 43.9375C288.071 43.9375 289.75 42.2586 289.75 40.1875C289.75 38.1164 288.071 36.4375 286 36.4375C283.929 36.4375 282.25 38.1164 282.25 40.1875C282.25 42.2586 283.929 43.9375 286 43.9375Z" fill="#23223E"/>
<path d="M287.875 44.875H284.125C282.882 44.875 281.69 45.3689 280.81 46.2479C279.931 47.127 279.438 48.3193 279.438 49.5625V54.25C279.438 54.4986 279.536 54.7371 279.712 54.9129C279.888 55.0887 280.126 55.1875 280.375 55.1875H291.625C291.874 55.1875 292.112 55.0887 292.288 54.9129C292.464 54.7371 292.562 54.4986 292.562 54.25V49.5625C292.562 48.9469 292.441 48.3374 292.206 47.7687C291.97 47.2 291.625 46.6832 291.19 46.2479C290.754 45.8127 290.238 45.4674 289.669 45.2318C289.1 44.9962 288.491 44.875 287.875 44.875Z" fill="#23223E"/>
<defs>
<filter id="filter0_d_147_119" x="0" y="0" width="360.941" height="80" filterUnits="userSpaceOnUse" color-interpolation-filters="sRGB">
<feFlood flood-opacity="0" result="BackgroundImageFix"/>
<feColorMatrix in="SourceAlpha" type="matrix" values="0 0 0 0 0 0 0 0 0 0 0 0 0 0 0 0 0 0 127 0" result="hardAlpha"/>
<feOffset/>
<feGaussianBlur stdDeviation="7.5"/>
<feComposite in2="hardAlpha" operator="out"/>
<feColorMatrix type="matrix" values="0 0 0 0 0.0313726 0 0 0 0 0.0313726 0 0 0 0 0.0313726 0 0 0 0.29 0"/>
<feBlend mode="normal" in2="BackgroundImageFix" result="effect1_dropShadow_147_119"/>
<feBlend mode="normal" in="SourceGraphic" in2="effect1_dropShadow_147_119" result="shape"/>
</filter>
<linearGradient id="paint0_linear_147_119" x1="33.2898" y1="15" x2="340.979" y2="92.777" gradientUnits="userSpaceOnUse">
<stop stop-color="#00EFD1"/>
<stop offset="1" stop-color="#00A8A8"/>
</linearGradient>
</defs>
</svg>
