<svg width="361" height="80" viewBox="0 0 361 80" fill="none" xmlns="http://www.w3.org/2000/svg">
<g filter="url(#filter0_d_147_127)">
<path d="M346 57C346 61.4183 342.418 65 338 65H55.4102C52.9268 65 50.5842 63.8467 49.0698 61.8785L15.4773 18.2196C14.4653 16.9044 15.4029 15 17.0624 15H338C342.418 15 346 18.5817 346 23V57Z" fill="url(#paint0_linear_147_127)"/>
</g>
<path d="M116.12 47.18C115.533 47.18 115.08 47.02 114.76 46.7C114.44 46.3667 114.28 45.9 114.28 45.3V34.8C114.28 34.1867 114.44 33.72 114.76 33.4C115.093 33.0667 115.573 32.9 116.2 32.9H125.38C126.007 32.9 126.48 33.0667 126.8 33.4C127.133 33.72 127.3 34.1867 127.3 34.8V45.3C127.3 45.9 127.14 46.3667 126.82 46.7C126.513 47.02 126.06 47.18 125.46 47.18C124.873 47.18 124.42 47.02 124.1 46.7C123.78 46.3667 123.62 45.9 123.62 45.3V35.9H117.96V45.3C117.96 45.9 117.807 46.3667 117.5 46.7C117.193 47.02 116.733 47.18 116.12 47.18ZM136.666 47.22C135.239 47.22 133.986 46.92 132.906 46.32C131.826 45.7067 130.986 44.8533 130.386 43.76C129.799 42.6667 129.506 41.3933 129.506 39.94C129.506 38.8467 129.673 37.8533 130.006 36.96C130.353 36.0667 130.839 35.3 131.466 34.66C132.106 34.02 132.866 33.5333 133.746 33.2C134.626 32.8533 135.599 32.68 136.666 32.68C138.093 32.68 139.339 32.98 140.406 33.58C141.486 34.18 142.326 35.0267 142.926 36.12C143.526 37.2 143.826 38.4733 143.826 39.94C143.826 41.0333 143.653 42.0267 143.306 42.92C142.973 43.8133 142.486 44.5867 141.846 45.24C141.219 45.88 140.466 46.3733 139.586 46.72C138.706 47.0533 137.733 47.22 136.666 47.22ZM136.666 44.14C137.373 44.14 137.973 43.9733 138.466 43.64C138.959 43.3067 139.339 42.8267 139.606 42.2C139.873 41.5733 140.006 40.82 140.006 39.94C140.006 38.62 139.713 37.5933 139.126 36.86C138.539 36.1267 137.719 35.76 136.666 35.76C135.973 35.76 135.373 35.9267 134.866 36.26C134.373 36.58 133.993 37.0533 133.726 37.68C133.459 38.2933 133.326 39.0467 133.326 39.94C133.326 41.26 133.619 42.2933 134.206 43.04C134.793 43.7733 135.613 44.14 136.666 44.14ZM146.148 50.68C145.628 50.68 145.228 50.54 144.948 50.26C144.681 49.98 144.548 49.58 144.548 49.06V45.78C144.548 44.7 145.095 44.16 146.188 44.16H147.368L145.448 44.68C146.195 44.0533 146.748 43.0733 147.108 41.74C147.468 40.3933 147.648 38.6933 147.648 36.64V34.8C147.648 34.1867 147.808 33.72 148.128 33.4C148.461 33.0667 148.935 32.9 149.548 32.9H156.448C157.075 32.9 157.548 33.0667 157.868 33.4C158.201 33.72 158.368 34.1867 158.368 34.8V45.48L157.028 44.16H158.728C159.261 44.16 159.668 44.3 159.948 44.58C160.228 44.8467 160.368 45.2467 160.368 45.78V49.06C160.368 50.14 159.841 50.68 158.788 50.68C158.268 50.68 157.868 50.54 157.588 50.26C157.321 49.98 157.188 49.58 157.188 49.06V47H147.728V49.06C147.728 50.14 147.201 50.68 146.148 50.68ZM149.608 44.16H154.688V35.74H151.028V37.04C151.028 38.68 150.908 40.0867 150.668 41.26C150.428 42.42 150.075 43.3867 149.608 44.16ZM163.933 47.18C163.346 47.18 162.893 47.02 162.573 46.7C162.253 46.3667 162.093 45.9067 162.093 45.32V34.76C162.093 34.16 162.253 33.7 162.573 33.38C162.906 33.06 163.366 32.9 163.953 32.9H168.873C170.473 32.9 171.706 33.3133 172.572 34.14C173.453 34.9533 173.893 36.08 173.893 37.52C173.893 38.96 173.453 40.0933 172.572 40.92C171.706 41.7333 170.473 42.14 168.873 42.14H165.773V45.32C165.773 45.9067 165.619 46.3667 165.313 46.7C165.006 47.02 164.546 47.18 163.933 47.18ZM165.773 39.32H168.233C168.926 39.32 169.459 39.1733 169.833 38.88C170.206 38.5733 170.393 38.12 170.393 37.52C170.393 36.9067 170.206 36.4533 169.833 36.16C169.459 35.8667 168.926 35.72 168.233 35.72H165.773V39.32ZM182.213 47.22C180.786 47.22 179.533 46.92 178.453 46.32C177.373 45.7067 176.533 44.8533 175.933 43.76C175.346 42.6667 175.053 41.3933 175.053 39.94C175.053 38.8467 175.219 37.8533 175.553 36.96C175.899 36.0667 176.386 35.3 177.013 34.66C177.653 34.02 178.413 33.5333 179.293 33.2C180.173 32.8533 181.146 32.68 182.213 32.68C183.639 32.68 184.886 32.98 185.953 33.58C187.033 34.18 187.873 35.0267 188.473 36.12C189.073 37.2 189.373 38.4733 189.373 39.94C189.373 41.0333 189.199 42.0267 188.853 42.92C188.519 43.8133 188.033 44.5867 187.393 45.24C186.766 45.88 186.013 46.3733 185.133 46.72C184.253 47.0533 183.279 47.22 182.213 47.22ZM182.213 44.14C182.919 44.14 183.519 43.9733 184.013 43.64C184.506 43.3067 184.886 42.8267 185.153 42.2C185.419 41.5733 185.553 40.82 185.553 39.94C185.553 38.62 185.259 37.5933 184.673 36.86C184.086 36.1267 183.266 35.76 182.213 35.76C181.519 35.76 180.919 35.9267 180.413 36.26C179.919 36.58 179.539 37.0533 179.273 37.68C179.006 38.2933 178.873 39.0467 178.873 39.94C178.873 41.26 179.166 42.2933 179.753 43.04C180.339 43.7733 181.159 44.14 182.213 44.14ZM193.466 47C192.839 47 192.359 46.84 192.026 46.52C191.706 46.1867 191.546 45.7133 191.546 45.1V34.8C191.546 34.1867 191.706 33.72 192.026 33.4C192.359 33.0667 192.839 32.9 193.466 32.9H200.806C201.272 32.9 201.626 33.02 201.866 33.26C202.119 33.5 202.246 33.8467 202.246 34.3C202.246 34.7667 202.119 35.1267 201.866 35.38C201.626 35.62 201.272 35.74 200.806 35.74H195.066V38.38H198.546C200.079 38.38 201.286 38.7533 202.166 39.5C203.059 40.2333 203.506 41.2933 203.506 42.68C203.506 44.0667 203.059 45.1333 202.166 45.88C201.286 46.6267 200.079 47 198.546 47H193.466ZM195.066 44.22H198.046C198.726 44.22 199.219 44.0933 199.526 43.84C199.846 43.5867 200.006 43.2 200.006 42.68C200.006 42.16 199.846 41.78 199.526 41.54C199.219 41.2867 198.726 41.16 198.046 41.16H195.066V44.22ZM207.155 47.18C206.568 47.18 206.115 47.02 205.795 46.7C205.475 46.3667 205.315 45.9 205.315 45.3V34.6C205.315 33.9867 205.475 33.52 205.795 33.2C206.115 32.88 206.568 32.72 207.155 32.72C207.755 32.72 208.208 32.88 208.515 33.2C208.835 33.52 208.995 33.9867 208.995 34.6V38.34H214.815V34.6C214.815 33.9867 214.968 33.52 215.275 33.2C215.595 32.88 216.055 32.72 216.655 32.72C217.242 32.72 217.688 32.88 217.995 33.2C218.315 33.52 218.475 33.9867 218.475 34.6V45.3C218.475 45.9 218.315 46.3667 217.995 46.7C217.688 47.02 217.242 47.18 216.655 47.18C216.055 47.18 215.595 47.02 215.275 46.7C214.968 46.3667 214.815 45.9 214.815 45.3V41.36H208.995V45.3C208.995 45.9 208.842 46.3667 208.535 46.7C208.228 47.02 207.768 47.18 207.155 47.18ZM222.958 47C222.331 47 221.851 46.84 221.518 46.52C221.198 46.1867 221.038 45.7133 221.038 45.1V34.8C221.038 34.1867 221.198 33.72 221.518 33.4C221.851 33.0667 222.331 32.9 222.958 32.9H229.738C230.218 32.9 230.578 33.02 230.818 33.26C231.058 33.5 231.178 33.8467 231.178 34.3C231.178 34.7667 231.058 35.1267 230.818 35.38C230.578 35.62 230.218 35.74 229.738 35.74H224.558V38.42H229.298C229.764 38.42 230.118 38.54 230.358 38.78C230.611 39.02 230.738 39.3733 230.738 39.84C230.738 40.3067 230.611 40.66 230.358 40.9C230.118 41.14 229.764 41.26 229.298 41.26H224.558V44.16H229.738C230.218 44.16 230.578 44.2867 230.818 44.54C231.058 44.78 231.178 45.1267 231.178 45.58C231.178 46.0467 231.058 46.4 230.818 46.64C230.578 46.88 230.218 47 229.738 47H222.958ZM235.243 47C234.616 47 234.136 46.84 233.803 46.52C233.483 46.1867 233.323 45.7133 233.323 45.1V34.8C233.323 34.1867 233.483 33.72 233.803 33.4C234.136 33.0667 234.616 32.9 235.243 32.9H242.023C242.503 32.9 242.863 33.02 243.103 33.26C243.343 33.5 243.463 33.8467 243.463 34.3C243.463 34.7667 243.343 35.1267 243.103 35.38C242.863 35.62 242.503 35.74 242.023 35.74H236.843V38.42H241.583C242.05 38.42 242.403 38.54 242.643 38.78C242.896 39.02 243.023 39.3733 243.023 39.84C243.023 40.3067 242.896 40.66 242.643 40.9C242.403 41.14 242.05 41.26 241.583 41.26H236.843V44.16H242.023C242.503 44.16 242.863 44.2867 243.103 44.54C243.343 44.78 243.463 45.1267 243.463 45.58C243.463 46.0467 243.343 46.4 243.103 46.64C242.863 46.88 242.503 47 242.023 47H235.243Z" fill="#23223E"/>
<g clip-path="url(#clip0_147_127)">
<path d="M303 41.5007C303 34.0442 296.956 28.0005 289.5 28.0005C282.044 28.0005 276 34.0442 276 41.5007C276 48.956 282.044 55.0002 289.5 55.0002C296.956 55.0002 303 48.956 303 41.5007Z" fill="#23223E"/>
<path d="M283.521 37.4468C283.521 36.6895 283.765 35.9222 284.251 35.145C284.737 34.3678 285.447 33.7242 286.379 33.214C287.312 32.7039 288.4 32.4487 289.643 32.4487C290.799 32.4487 291.82 32.6621 292.704 33.0884C293.589 33.5149 294.273 34.0949 294.755 34.8282C295.237 35.5617 295.479 36.3587 295.479 37.2196C295.479 37.8972 295.341 38.4912 295.066 39.0012C294.791 39.5114 294.464 39.9518 294.085 40.3224C293.707 40.6931 293.027 41.3169 292.047 42.1937C291.776 42.4409 291.558 42.6582 291.395 42.8454C291.232 43.0328 291.11 43.2042 291.03 43.3595C290.951 43.515 290.889 43.6704 290.845 43.8259C290.801 43.9812 290.735 44.2544 290.648 44.6449C290.496 45.474 290.022 45.8885 289.225 45.8885C288.81 45.8885 288.462 45.753 288.179 45.4819C287.896 45.211 287.754 44.8084 287.754 44.2743C287.754 43.6047 287.858 43.0247 288.065 42.5345C288.272 42.0442 288.547 41.6138 288.89 41.2432C289.233 40.8725 289.695 40.4321 290.277 39.9219C290.787 39.4756 291.156 39.1387 291.383 38.9115C291.609 38.6864 291.802 38.4308 291.957 38.1522C292.113 37.8733 292.19 37.5705 292.19 37.2435C292.19 36.6058 291.953 36.0678 291.479 35.6293C291.005 35.191 290.393 34.9717 289.643 34.9717C288.766 34.9717 288.121 35.1929 287.706 35.6353C287.292 36.0777 286.941 36.7294 286.654 37.5903C286.383 38.4912 285.869 38.9414 285.112 38.9414C284.665 38.9414 284.289 38.7841 283.982 38.4691C283.675 38.1543 283.521 37.8135 283.521 37.4468ZM289.357 50.5517C288.87 50.5517 288.446 50.3942 288.083 50.0794C287.72 49.7646 287.539 49.3242 287.539 48.7582C287.539 48.256 287.714 47.8336 288.065 47.4907C288.416 47.1481 288.846 46.9766 289.356 46.9766C289.859 46.9766 290.281 47.1481 290.624 47.4907C290.967 47.8336 291.138 48.256 291.138 48.7582C291.138 49.3162 290.959 49.7547 290.6 50.0735C290.241 50.3922 289.827 50.5517 289.357 50.5517Z" fill="url(#paint1_linear_147_127)"/>
</g>
<defs>
<filter id="filter0_d_147_127" x="0.0587158" y="0" width="360.941" height="80" filterUnits="userSpaceOnUse" color-interpolation-filters="sRGB">
<feFlood flood-opacity="0" result="BackgroundImageFix"/>
<feColorMatrix in="SourceAlpha" type="matrix" values="0 0 0 0 0 0 0 0 0 0 0 0 0 0 0 0 0 0 127 0" result="hardAlpha"/>
<feOffset/>
<feGaussianBlur stdDeviation="7.5"/>
<feComposite in2="hardAlpha" operator="out"/>
<feColorMatrix type="matrix" values="0 0 0 0 0.0313726 0 0 0 0 0.0313726 0 0 0 0 0.0313726 0 0 0 0.29 0"/>
<feBlend mode="normal" in2="BackgroundImageFix" result="effect1_dropShadow_147_127"/>
<feBlend mode="normal" in="SourceGraphic" in2="effect1_dropShadow_147_127" result="shape"/>
</filter>
<linearGradient id="paint0_linear_147_127" x1="327.71" y1="65" x2="20.0214" y2="-12.777" gradientUnits="userSpaceOnUse">
<stop stop-color="#00EFD1"/>
<stop offset="1" stop-color="#00A8A8"/>
</linearGradient>
<linearGradient id="paint1_linear_147_127" x1="284.178" y1="32.4487" x2="295.925" y2="32.7432" gradientUnits="userSpaceOnUse">
<stop stop-color="#00EFD1"/>
<stop offset="1" stop-color="#00A8A8"/>
</linearGradient>
<clipPath id="clip0_147_127">
<rect width="27" height="27" fill="white" transform="translate(276 28)"/>
</clipPath>
</defs>
</svg>
