<svg width="236" height="30" viewBox="0 0 236 30" fill="none" xmlns="http://www.w3.org/2000/svg">
<path d="M26.0314 13.1918C25.6269 13.1918 25.2234 13.2342 24.8269 13.3186C24.6794 12.5433 24.3668 11.8134 23.9127 11.1837C23.4586 10.554 22.8748 10.0409 22.2052 9.68297C21.5356 9.32507 20.7977 9.13169 20.0469 9.11736C19.2961 9.10304 18.552 9.26816 17.8705 9.60029C16.621 5.97652 12.818 4.10536 9.37622 5.42089C5.93445 6.73642 4.1574 10.7411 5.40688 14.3648C2.39203 14.4651 0.0104298 17.0926 0.0555626 20.2682C0.100903 23.444 2.55639 25.9949 5.57297 26H26.0314C29.3903 26 32.1136 23.1329 32.1136 19.5959C32.1136 16.059 29.3903 13.1918 26.0314 13.1918Z" fill="url(#paint0_linear_430_2)"/>
<path d="M15.4866 15.5029C15.6576 15.5242 16.0583 15.5349 16.6889 15.5349C16.8172 14.6586 16.8813 14.0975 16.8813 13.8516C16.8813 13.5951 16.8759 13.4455 16.8653 13.4028C17.6775 13.0928 18.3455 12.9379 18.8692 12.9379C18.9226 13.1195 18.9493 13.3654 18.9493 13.6753C18.9493 13.9746 18.8585 14.5891 18.6768 15.5189C19.3608 15.5189 19.9486 15.5029 20.4402 15.4708C20.4723 15.6846 20.4883 15.9197 20.4883 16.1762C20.4883 16.8923 20.157 17.2503 19.4944 17.2503C19.2058 17.2503 18.8531 17.2343 18.4363 17.2022C18.4043 17.4053 18.3508 17.6885 18.276 18.0519C18.2119 18.4152 18.1638 18.6931 18.1317 18.8855C18.6875 18.8855 19.302 18.8374 19.9753 18.7412C20.0074 19.158 20.0234 19.3985 20.0234 19.4626C20.0234 20.1359 19.6921 20.4726 19.0295 20.4726C18.5699 20.4726 18.1959 20.4619 17.9073 20.4405C17.7684 21.3596 17.6722 22.1078 17.6187 22.6849C17.3088 22.9093 16.6782 23.0216 15.727 23.0216H15.5507C15.5614 22.8078 15.695 21.9101 15.9515 20.3283C15.8553 20.3176 15.5988 20.3123 15.182 20.3123H14.5567C14.3644 21.4024 14.2468 22.1719 14.2041 22.6208C13.8621 22.888 13.2956 23.0216 12.5047 23.0216H12.1681C12.2001 22.5727 12.3551 21.6803 12.633 20.3443C12.0559 20.3764 11.5642 20.4459 11.1581 20.5527C11.0405 20.0077 10.9657 19.4305 10.9337 18.8214C11.5535 18.7252 12.2108 18.6771 12.9055 18.6771H12.9536C12.9857 18.5274 13.0391 18.2923 13.1139 17.9717C13.1994 17.6404 13.2636 17.3625 13.3063 17.1381C12.494 17.1808 11.9436 17.2396 11.6551 17.3144C11.4734 16.748 11.3719 16.1655 11.3505 15.567C12.0131 15.4922 12.6918 15.4548 13.3865 15.4548H13.5628C13.7017 14.6746 13.7712 14.1509 13.7712 13.8837C13.7712 13.6058 13.7659 13.4455 13.7552 13.4028C14.5461 13.0928 15.1927 12.9379 15.695 12.9379C15.7591 13.1195 15.7912 13.328 15.7912 13.5631C15.7912 13.7875 15.6896 14.4341 15.4866 15.5029ZM16.1919 18.7572L16.4965 17.09C16.3897 17.0793 16.069 17.0739 15.5347 17.0739H15.214C15.1713 17.2663 15.1018 17.5388 15.0056 17.8915C14.9201 18.2335 14.856 18.5061 14.8132 18.7091L16.1919 18.7572Z" fill="#282743"/>
<path d="M62.55 24.3C61.1667 24.3 59.8833 24.075 58.7 23.625C57.5333 23.175 56.5167 22.5417 55.65 21.725C54.8 20.9083 54.1333 19.95 53.65 18.85C53.1833 17.75 52.95 16.55 52.95 15.25C52.95 13.95 53.1833 12.75 53.65 11.65C54.1333 10.55 54.8083 9.59167 55.675 8.775C56.5417 7.95833 57.5583 7.325 58.725 6.875C59.8917 6.425 61.1583 6.2 62.525 6.2C63.9083 6.2 65.175 6.425 66.325 6.875C67.4917 7.325 68.5 7.95833 69.35 8.775C70.2167 9.59167 70.8917 10.55 71.375 11.65C71.8583 12.7333 72.1 13.9333 72.1 15.25C72.1 16.55 71.8583 17.7583 71.375 18.875C70.8917 19.975 70.2167 20.9333 69.35 21.75C68.5 22.55 67.4917 23.175 66.325 23.625C65.175 24.075 63.9167 24.3 62.55 24.3ZM62.525 20.85C63.3083 20.85 64.025 20.7167 64.675 20.45C65.3417 20.1833 65.925 19.8 66.425 19.3C66.925 18.8 67.3083 18.2083 67.575 17.525C67.8583 16.8417 68 16.0833 68 15.25C68 14.4167 67.8583 13.6583 67.575 12.975C67.3083 12.2917 66.925 11.7 66.425 11.2C65.9417 10.7 65.3667 10.3167 64.7 10.05C64.0333 9.78333 63.3083 9.65 62.525 9.65C61.7417 9.65 61.0167 9.78333 60.35 10.05C59.7 10.3167 59.125 10.7 58.625 11.2C58.125 11.7 57.7333 12.2917 57.45 12.975C57.1833 13.6583 57.05 14.4167 57.05 15.25C57.05 16.0667 57.1833 16.825 57.45 17.525C57.7333 18.2083 58.1167 18.8 58.6 19.3C59.1 19.8 59.6833 20.1833 60.35 20.45C61.0167 20.7167 61.7417 20.85 62.525 20.85ZM81.5949 24.3C80.4949 24.3 79.4949 24.1417 78.5949 23.825C77.6949 23.4917 76.9116 22.9833 76.2449 22.3C75.5949 21.6 75.0866 20.7083 74.7199 19.625C74.3699 18.5417 74.1949 17.25 74.1949 15.75C74.1949 14.6833 74.2866 13.7083 74.4699 12.825C74.6533 11.9417 74.9283 11.1417 75.2949 10.425C75.6616 9.69167 76.1283 9.05 76.6949 8.5C77.2783 7.93333 77.9533 7.46667 78.7199 7.1C79.5033 6.71667 80.3866 6.425 81.3699 6.225L87.7699 4.95L88.2949 8.3L82.6449 9.425C82.3116 9.49167 81.9283 9.58333 81.4949 9.7C81.0783 9.8 80.6533 9.95833 80.2199 10.175C79.8033 10.3917 79.4116 10.7 79.0449 11.1C78.6949 11.4833 78.4116 11.9917 78.1949 12.625C77.9783 13.2417 77.8699 14.0083 77.8699 14.925C77.8699 15.2083 77.8783 15.425 77.8949 15.575C77.9283 15.725 77.9533 15.8833 77.9699 16.05C78.0033 16.2167 78.0199 16.475 78.0199 16.825L76.7699 15.6C77.1366 14.8167 77.6033 14.15 78.1699 13.6C78.7533 13.05 79.4199 12.6333 80.1699 12.35C80.9366 12.05 81.7866 11.9 82.7199 11.9C83.9866 11.9 85.0949 12.1583 86.0449 12.675C87.0116 13.175 87.7616 13.8833 88.2949 14.8C88.8283 15.7167 89.0949 16.7583 89.0949 17.925C89.0949 19.1917 88.7783 20.3083 88.1449 21.275C87.5116 22.225 86.6283 22.9667 85.4949 23.5C84.3783 24.0333 83.0783 24.3 81.5949 24.3ZM81.7949 21.275C82.4449 21.275 83.0199 21.1333 83.5199 20.85C84.0199 20.55 84.4033 20.1583 84.6699 19.675C84.9533 19.175 85.0949 18.6167 85.0949 18C85.0949 17.4 84.9533 16.8667 84.6699 16.4C84.4033 15.9333 84.0199 15.5667 83.5199 15.3C83.0199 15.0333 82.4366 14.9 81.7699 14.9C81.1199 14.9 80.5366 15.0333 80.0199 15.3C79.5033 15.55 79.1033 15.9 78.8199 16.35C78.5366 16.8 78.3949 17.325 78.3949 17.925C78.3949 18.5417 78.5366 19.1083 78.8199 19.625C79.1199 20.125 79.5199 20.525 80.0199 20.825C80.5366 21.125 81.1283 21.275 81.7949 21.275ZM89.8459 23.975L90.0459 20.775C90.1459 20.7917 90.2459 20.8083 90.3459 20.825C90.4459 20.825 90.5376 20.825 90.6209 20.825C91.0876 20.825 91.4542 20.6917 91.7209 20.425C91.9876 20.1583 92.1876 19.8 92.3209 19.35C92.4542 18.8833 92.5459 18.3583 92.5959 17.775C92.6626 17.1917 92.7126 16.5833 92.7459 15.95L92.9459 10.55H104.446V24H100.546V12.8L101.421 13.75H95.5209L96.3459 12.75L96.1709 16.125C96.1209 17.325 96.0209 18.425 95.8709 19.425C95.7376 20.425 95.5126 21.2917 95.1959 22.025C94.8792 22.7417 94.4542 23.3 93.9209 23.7C93.3876 24.0833 92.7042 24.275 91.8709 24.275C91.5709 24.275 91.2542 24.25 90.9209 24.2C90.5876 24.15 90.2292 24.075 89.8459 23.975ZM116.246 24V21.375L115.996 20.8V16.1C115.996 15.2667 115.738 14.6167 115.221 14.15C114.721 13.6833 113.946 13.45 112.896 13.45C112.18 13.45 111.471 13.5667 110.771 13.8C110.088 14.0167 109.505 14.3167 109.021 14.7L107.621 11.975C108.355 11.4583 109.238 11.0583 110.271 10.775C111.305 10.4917 112.355 10.35 113.421 10.35C115.471 10.35 117.063 10.8333 118.196 11.8C119.33 12.7667 119.896 14.275 119.896 16.325V24H116.246ZM112.146 24.2C111.096 24.2 110.196 24.025 109.446 23.675C108.696 23.3083 108.121 22.8167 107.721 22.2C107.321 21.5833 107.121 20.8917 107.121 20.125C107.121 19.325 107.313 18.625 107.696 18.025C108.096 17.425 108.721 16.9583 109.571 16.625C110.421 16.275 111.53 16.1 112.896 16.1H116.471V18.375H113.321C112.405 18.375 111.771 18.525 111.421 18.825C111.088 19.125 110.921 19.5 110.921 19.95C110.921 20.45 111.113 20.85 111.496 21.15C111.896 21.4333 112.438 21.575 113.121 21.575C113.771 21.575 114.355 21.425 114.871 21.125C115.388 20.8083 115.763 20.35 115.996 19.75L116.596 21.55C116.313 22.4167 115.796 23.075 115.046 23.525C114.296 23.975 113.33 24.2 112.146 24.2ZM132.809 24L128.309 17.625L131.484 15.75L137.409 24H132.809ZM123.284 24V10.55H127.184V24H123.284ZM126.034 18.9V15.775H130.734V18.9H126.034ZM131.859 17.725L128.209 17.325L132.934 10.55H137.084L131.859 17.725ZM145.209 24.2C143.776 24.2 142.501 23.9 141.384 23.3C140.284 22.7 139.409 21.8833 138.759 20.85C138.126 19.8 137.809 18.6083 137.809 17.275C137.809 15.925 138.126 14.7333 138.759 13.7C139.409 12.65 140.284 11.8333 141.384 11.25C142.501 10.65 143.776 10.35 145.209 10.35C146.626 10.35 147.893 10.65 149.009 11.25C150.126 11.8333 151.001 12.6417 151.634 13.675C152.268 14.7083 152.584 15.9083 152.584 17.275C152.584 18.6083 152.268 19.8 151.634 20.85C151.001 21.8833 150.126 22.7 149.009 23.3C147.893 23.9 146.626 24.2 145.209 24.2ZM145.209 21C145.859 21 146.443 20.85 146.959 20.55C147.476 20.25 147.884 19.825 148.184 19.275C148.484 18.7083 148.634 18.0417 148.634 17.275C148.634 16.4917 148.484 15.825 148.184 15.275C147.884 14.725 147.476 14.3 146.959 14C146.443 13.7 145.859 13.55 145.209 13.55C144.559 13.55 143.976 13.7 143.459 14C142.943 14.3 142.526 14.725 142.209 15.275C141.909 15.825 141.759 16.4917 141.759 17.275C141.759 18.0417 141.909 18.7083 142.209 19.275C142.526 19.825 142.943 20.25 143.459 20.55C143.976 20.85 144.559 21 145.209 21ZM166.422 24V8.875L167.347 9.8H160.847V6.5H176.022V9.8H169.522L170.422 8.875V24H166.422ZM183.472 24.2C181.939 24.2 180.589 23.9 179.422 23.3C178.272 22.7 177.381 21.8833 176.747 20.85C176.114 19.8 175.797 18.6083 175.797 17.275C175.797 15.925 176.106 14.7333 176.722 13.7C177.356 12.65 178.214 11.8333 179.297 11.25C180.381 10.65 181.606 10.35 182.972 10.35C184.289 10.35 185.472 10.6333 186.522 11.2C187.589 11.75 188.431 12.55 189.047 13.6C189.664 14.6333 189.972 15.875 189.972 17.325C189.972 17.475 189.964 17.65 189.947 17.85C189.931 18.0333 189.914 18.2083 189.897 18.375H178.972V16.1H187.847L186.347 16.775C186.347 16.075 186.206 15.4667 185.922 14.95C185.639 14.4333 185.247 14.0333 184.747 13.75C184.247 13.45 183.664 13.3 182.997 13.3C182.331 13.3 181.739 13.45 181.222 13.75C180.722 14.0333 180.331 14.4417 180.047 14.975C179.764 15.4917 179.622 16.1083 179.622 16.825V17.425C179.622 18.1583 179.781 18.8083 180.097 19.375C180.431 19.925 180.889 20.35 181.472 20.65C182.072 20.9333 182.772 21.075 183.572 21.075C184.289 21.075 184.914 20.9667 185.447 20.75C185.997 20.5333 186.497 20.2083 186.947 19.775L189.022 22.025C188.406 22.725 187.631 23.2667 186.697 23.65C185.764 24.0167 184.689 24.2 183.472 24.2ZM192.962 24V10.55H203.737V13.75H195.962L196.837 12.9V24H192.962ZM211.542 24.2C210.109 24.2 208.834 23.9 207.717 23.3C206.617 22.7 205.742 21.8833 205.092 20.85C204.459 19.8 204.142 18.6083 204.142 17.275C204.142 15.925 204.459 14.7333 205.092 13.7C205.742 12.65 206.617 11.8333 207.717 11.25C208.834 10.65 210.109 10.35 211.542 10.35C212.959 10.35 214.226 10.65 215.342 11.25C216.459 11.8333 217.334 12.6417 217.967 13.675C218.601 14.7083 218.917 15.9083 218.917 17.275C218.917 18.6083 218.601 19.8 217.967 20.85C217.334 21.8833 216.459 22.7 215.342 23.3C214.226 23.9 212.959 24.2 211.542 24.2ZM211.542 21C212.192 21 212.776 20.85 213.292 20.55C213.809 20.25 214.217 19.825 214.517 19.275C214.817 18.7083 214.967 18.0417 214.967 17.275C214.967 16.4917 214.817 15.825 214.517 15.275C214.217 14.725 213.809 14.3 213.292 14C212.776 13.7 212.192 13.55 211.542 13.55C210.892 13.55 210.309 13.7 209.792 14C209.276 14.3 208.859 14.725 208.542 15.275C208.242 15.825 208.092 16.4917 208.092 17.275C208.092 18.0417 208.242 18.7083 208.542 19.275C208.859 19.825 209.276 20.25 209.792 20.55C210.309 20.85 210.892 21 211.542 21ZM221.6 24V10.55H228.475C230.158 10.55 231.475 10.8583 232.425 11.475C233.375 12.075 233.85 12.925 233.85 14.025C233.85 15.125 233.4 15.9917 232.5 16.625C231.616 17.2417 230.441 17.55 228.975 17.55L229.375 16.65C231.008 16.65 232.225 16.95 233.025 17.55C233.841 18.15 234.25 19.025 234.25 20.175C234.25 21.3583 233.8 22.2917 232.9 22.975C232 23.6583 230.625 24 228.775 24H221.6ZM225.175 21.35H228.45C229.166 21.35 229.7 21.2333 230.05 21C230.416 20.75 230.6 20.375 230.6 19.875C230.6 19.3583 230.433 18.9833 230.1 18.75C229.766 18.5 229.241 18.375 228.525 18.375H225.175V21.35ZM225.175 16.075H228.125C228.808 16.075 229.316 15.95 229.65 15.7C230 15.45 230.175 15.0917 230.175 14.625C230.175 14.1417 230 13.7833 229.65 13.55C229.316 13.3167 228.808 13.2 228.125 13.2H225.175V16.075Z" fill="url(#paint1_linear_430_2)"/>
<defs>
<linearGradient id="paint0_linear_430_2" x1="0.0549316" y1="5" x2="33.8357" y2="8.28364" gradientUnits="userSpaceOnUse">
<stop stop-color="#FB37FF"/>
<stop offset="1" stop-color="#00EFD1"/>
</linearGradient>
<linearGradient id="paint1_linear_430_2" x1="52" y1="0" x2="221.816" y2="66.3187" gradientUnits="userSpaceOnUse">
<stop stop-color="#FB37FF"/>
<stop offset="1" stop-color="#00EFD1"/>
</linearGradient>
</defs>
</svg>
