<svg width="494" height="114" viewBox="0 0 494 114" fill="none" xmlns="http://www.w3.org/2000/svg">
<path d="M1 22.4891C45.8687 32.5269 143.969 52.7393 204.813 28.6486C265.658 4.55787 406.823 23.7148 453.503 33.7526" stroke="url(#paint0_linear_128_38)" stroke-width="2" stroke-linecap="round" stroke-dasharray="5 5"/>
<g filter="url(#filter0_bii_128_38)">
<ellipse cx="378.585" cy="30" rx="29.9671" ry="30" fill="white" fill-opacity="0.1"/>
<path d="M406.552 30C406.552 45.466 394.029 58 378.585 58C363.141 58 350.618 45.466 350.618 30C350.618 14.534 363.141 2 378.585 2C394.029 2 406.552 14.534 406.552 30Z" stroke="url(#paint1_linear_128_38)" stroke-width="4"/>
</g>
<g filter="url(#filter1_bii_128_38)">
<ellipse cx="213.766" cy="30" rx="29.9671" ry="30" fill="white" fill-opacity="0.1"/>
<path d="M241.733 30C241.733 45.466 229.21 58 213.766 58C198.323 58 185.799 45.466 185.799 30C185.799 14.534 198.323 2 213.766 2C229.21 2 241.733 14.534 241.733 30Z" stroke="url(#paint2_linear_128_38)" stroke-width="4"/>
</g>
<g filter="url(#filter2_bii_128_38)">
<ellipse cx="48.9473" cy="30" rx="29.9671" ry="30" fill="white" fill-opacity="0.1"/>
<path d="M76.9144 30C76.9144 45.466 64.391 58 48.9473 58C33.5036 58 20.9802 45.466 20.9802 30C20.9802 14.534 33.5036 2 48.9473 2C64.391 2 76.9144 14.534 76.9144 30Z" stroke="url(#paint3_linear_128_38)" stroke-width="4"/>
</g>
<path d="M43.3915 42C42.9709 42 42.6438 41.8949 42.4102 41.6846C42.1766 41.4509 42.0597 41.1355 42.0597 40.7383C42.0597 40.3412 42.1766 40.0491 42.4102 39.8622C42.6438 39.6519 42.9709 39.5468 43.3915 39.5468H47.9475V19.6756H49.4545L44.3728 23.0401C44.0691 23.2036 43.777 23.2737 43.4966 23.2503C43.2396 23.227 43.0177 23.1335 42.8308 22.97C42.6672 22.7831 42.5504 22.5728 42.4803 22.3391C42.4102 22.0821 42.4219 21.8251 42.5153 21.5681C42.6088 21.2878 42.8074 21.0541 43.1111 20.8672L47.9475 17.678C48.2512 17.4911 48.5433 17.3392 48.8236 17.2224C49.104 17.1056 49.3844 17.0472 49.6647 17.0472C49.9918 17.0472 50.2605 17.1523 50.4708 17.3626C50.7044 17.5495 50.8213 17.8532 50.8213 18.2738V39.5468H55.0268C55.4473 39.5468 55.7744 39.6519 56.0081 39.8622C56.2417 40.0491 56.3585 40.3412 56.3585 40.7383C56.3585 41.1589 56.2417 41.4743 56.0081 41.6846C55.7744 41.8949 55.4473 42 55.0268 42H43.3915Z" fill="white"/>
<path d="M207.299 42C206.785 42 206.4 41.8832 206.143 41.6495C205.909 41.3925 205.792 41.0538 205.792 40.6332C205.792 40.3762 205.851 40.1309 205.968 39.8972C206.108 39.6402 206.295 39.3832 206.528 39.1262L214.379 30.7152C215.57 29.4301 216.423 28.2503 216.937 27.1755C217.474 26.0774 217.743 24.9676 217.743 23.8461C217.743 22.4443 217.311 21.3812 216.446 20.6569C215.605 19.9093 214.367 19.5355 212.731 19.5355C211.68 19.5355 210.687 19.699 209.752 20.0261C208.818 20.3532 207.918 20.8555 207.054 21.5331C206.75 21.7667 206.47 21.8719 206.213 21.8485C205.979 21.8251 205.769 21.7317 205.582 21.5681C205.395 21.4046 205.267 21.1943 205.197 20.9373C205.126 20.6803 205.126 20.4233 205.197 20.1663C205.29 19.9093 205.477 19.6756 205.757 19.4654C206.668 18.7177 207.767 18.1219 209.052 17.678C210.337 17.2107 211.645 16.9771 212.977 16.9771C214.636 16.9771 216.037 17.2341 217.182 17.7481C218.327 18.2621 219.192 19.0215 219.776 20.0261C220.36 21.0074 220.652 22.2106 220.652 23.6359C220.652 24.6171 220.488 25.5868 220.161 26.5447C219.857 27.4792 219.378 28.4372 218.724 29.4185C218.093 30.3997 217.264 31.4161 216.236 32.4675L208.771 40.3528V39.5468H220.582C221.026 39.5468 221.353 39.6519 221.563 39.8622C221.797 40.0491 221.913 40.3412 221.913 40.7383C221.913 41.1589 221.797 41.4743 221.563 41.6846C221.353 41.8949 221.026 42 220.582 42H207.299Z" fill="white"/>
<path d="M378.83 42.3154C377.475 42.3154 376.108 42.1168 374.729 41.7196C373.374 41.3224 372.194 40.7383 371.19 39.9673C370.886 39.7571 370.687 39.5234 370.594 39.2664C370.5 38.986 370.477 38.729 370.524 38.4954C370.594 38.2384 370.722 38.0281 370.909 37.8646C371.096 37.6776 371.318 37.5725 371.575 37.5491C371.855 37.5258 372.159 37.6192 372.486 37.8295C373.514 38.5071 374.542 38.9977 375.57 39.3015C376.598 39.6052 377.661 39.7571 378.76 39.7571C379.951 39.7571 380.956 39.5818 381.774 39.2314C382.591 38.8809 383.21 38.3669 383.631 37.6893C384.052 36.9884 384.262 36.1356 384.262 35.131C384.262 33.6824 383.783 32.5843 382.825 31.8366C381.867 31.089 380.477 30.7152 378.654 30.7152H376.166C375.722 30.7152 375.383 30.61 375.15 30.3997C374.916 30.1661 374.799 29.8507 374.799 29.4535C374.799 29.0797 374.916 28.7876 375.15 28.5774C375.383 28.3437 375.722 28.2269 376.166 28.2269H378.409C379.484 28.2269 380.395 28.04 381.143 27.6662C381.914 27.2923 382.509 26.7666 382.93 26.0891C383.351 25.3882 383.561 24.5471 383.561 23.5658C383.561 22.2574 383.14 21.2644 382.299 20.5868C381.458 19.8859 380.243 19.5355 378.654 19.5355C377.603 19.5355 376.61 19.6873 375.676 19.9911C374.741 20.2948 373.818 20.8088 372.907 21.5331C372.626 21.7434 372.346 21.8485 372.066 21.8485C371.809 21.8251 371.587 21.7434 371.4 21.6032C371.236 21.4396 371.108 21.2294 371.014 20.9724C370.944 20.7153 370.956 20.4583 371.049 20.2013C371.143 19.921 371.341 19.664 371.645 19.4303C372.58 18.6359 373.678 18.0285 374.94 17.6079C376.201 17.1874 377.498 16.9771 378.83 16.9771C380.418 16.9771 381.774 17.2341 382.895 17.7481C384.04 18.2388 384.916 18.963 385.523 19.921C386.131 20.8555 386.435 21.9887 386.435 23.3204C386.435 24.3251 386.236 25.248 385.839 26.0891C385.465 26.9068 384.928 27.6077 384.227 28.1918C383.549 28.7759 382.72 29.1965 381.738 29.4535V29.068C383.444 29.3484 384.764 30.0493 385.699 31.1708C386.657 32.2689 387.136 33.659 387.136 35.3412C387.136 36.7665 386.797 38.0047 386.119 39.0561C385.465 40.0841 384.519 40.8902 383.281 41.4743C382.042 42.035 380.559 42.3154 378.83 42.3154Z" fill="white"/>
<path fill-rule="evenodd" clip-rule="evenodd" d="M476.664 28.9574C482.132 32.8701 485.749 35.4883 487.514 36.8118C492.555 40.5909 493.481 41.4133 493.703 42.0661C493.751 42.2097 493.787 42.5532 493.552 42.8547C493.204 43.302 492.241 43.5987 491.593 43.7592C486.648 44.9847 474.494 47.4575 468.867 48.5449C466.487 49.0049 465.566 48.7579 465.347 48.3128C464.872 47.3454 465.981 46.1608 466.814 44.8279C468.118 42.742 468.957 41.5324 470.232 39.505C471.705 37.1619 473.148 37.9468 475.247 38.3825C475.796 38.4965 484.326 40.7887 485.002 40.6766C485.087 40.6627 485.393 40.58 485.521 40.4286C485.65 40.2772 485.549 40.1427 485.472 40.0469C485.363 39.911 481.751 38.3222 474.637 35.2804C473.58 34.8391 472.976 34.3313 472.824 33.7572C472.656 33.1241 472.886 31.7376 473.123 30.6865C473.414 29.3973 473.479 28.4236 474.566 28.174C475.132 28.0439 475.832 28.3051 476.664 28.9574Z" fill="url(#paint4_linear_128_38)"/>
<path d="M4.68347 90.112C4.39414 90.112 4.17014 90.0327 4.01147 89.874C3.86214 89.706 3.78747 89.4773 3.78747 89.188V81.04C3.78747 80.7413 3.8668 80.5173 4.02547 80.368C4.18414 80.2093 4.40814 80.13 4.69747 80.13H8.07147C9.15414 80.13 9.98947 80.4007 10.5775 80.942C11.1655 81.4833 11.4595 82.2393 11.4595 83.21C11.4595 84.1807 11.1655 84.9413 10.5775 85.492C9.98947 86.0333 9.15414 86.304 8.07147 86.304H5.57947V89.188C5.57947 89.4773 5.5048 89.706 5.35547 89.874C5.20614 90.0327 4.98214 90.112 4.68347 90.112ZM5.57947 84.89H7.79147C8.42614 84.89 8.9068 84.75 9.23347 84.47C9.56014 84.1807 9.72347 83.7607 9.72347 83.21C9.72347 82.6593 9.56014 82.244 9.23347 81.964C8.9068 81.684 8.42614 81.544 7.79147 81.544H5.57947V84.89ZM11.9655 90.112C11.7415 90.112 11.5595 90.0607 11.4195 89.958C11.2889 89.8553 11.2095 89.72 11.1815 89.552C11.1535 89.3747 11.1862 89.1787 11.2795 88.964L14.9755 80.774C15.0969 80.5033 15.2415 80.312 15.4095 80.2C15.5869 80.0787 15.7875 80.018 16.0115 80.018C16.2262 80.018 16.4175 80.0787 16.5855 80.2C16.7629 80.312 16.9122 80.5033 17.0335 80.774L20.7435 88.964C20.8462 89.1787 20.8835 89.3747 20.8555 89.552C20.8275 89.7293 20.7482 89.8693 20.6175 89.972C20.4869 90.0653 20.3142 90.112 20.0995 90.112C19.8382 90.112 19.6329 90.0513 19.4835 89.93C19.3435 89.7993 19.2175 89.6033 19.1055 89.342L18.1955 87.228L18.9515 87.718H13.0435L13.7995 87.228L12.9035 89.342C12.7822 89.6127 12.6562 89.8087 12.5255 89.93C12.3949 90.0513 12.2082 90.112 11.9655 90.112ZM15.9835 82.076L14.0235 86.738L13.6595 86.29H18.3355L17.9855 86.738L16.0115 82.076H15.9835ZM25.4635 90.14C24.7822 90.14 24.1475 90.0653 23.5595 89.916C22.9808 89.7573 22.4722 89.5333 22.0335 89.244C21.8562 89.132 21.7348 89.0013 21.6695 88.852C21.6135 88.6933 21.5995 88.544 21.6275 88.404C21.6648 88.2547 21.7348 88.1287 21.8375 88.026C21.9402 87.9233 22.0708 87.8627 22.2295 87.844C22.3882 87.8253 22.5608 87.872 22.7475 87.984C22.9902 88.124 23.2468 88.2407 23.5175 88.334C23.7882 88.4273 24.0728 88.4973 24.3715 88.544C24.6795 88.5907 24.9968 88.614 25.3235 88.614C25.8462 88.614 26.2708 88.558 26.5975 88.446C26.9335 88.334 27.1808 88.166 27.3395 87.942C27.5075 87.718 27.5915 87.4333 27.5915 87.088C27.5915 86.6213 27.4422 86.276 27.1435 86.052C26.8448 85.8187 26.3782 85.702 25.7435 85.702H23.9935C23.7508 85.702 23.5642 85.6413 23.4335 85.52C23.3028 85.3987 23.2375 85.2213 23.2375 84.988C23.2375 84.764 23.3028 84.5913 23.4335 84.47C23.5642 84.3487 23.7508 84.288 23.9935 84.288H25.5055C26.1215 84.288 26.5788 84.176 26.8775 83.952C27.1855 83.728 27.3395 83.3873 27.3395 82.93C27.3395 82.6407 27.2648 82.3887 27.1155 82.174C26.9755 81.9593 26.7562 81.796 26.4575 81.684C26.1682 81.5627 25.7948 81.502 25.3375 81.502C24.9362 81.502 24.5302 81.5533 24.1195 81.656C23.7182 81.7493 23.3495 81.8893 23.0135 82.076C22.8175 82.188 22.6402 82.2347 22.4815 82.216C22.3322 82.188 22.2062 82.1227 22.1035 82.02C22.0102 81.908 21.9495 81.7773 21.9215 81.628C21.8935 81.4787 21.9122 81.3293 21.9775 81.18C22.0428 81.0307 22.1595 80.9047 22.3275 80.802C22.7755 80.5313 23.2748 80.3307 23.8255 80.2C24.3855 80.06 24.9548 79.99 25.5335 79.99C26.3362 79.99 26.9988 80.1067 27.5215 80.34C28.0535 80.564 28.4502 80.8813 28.7115 81.292C28.9822 81.6933 29.1175 82.16 29.1175 82.692C29.1175 83.2893 28.9402 83.7933 28.5855 84.204C28.2402 84.6147 27.7735 84.89 27.1855 85.03V84.82C27.8668 84.9227 28.3988 85.184 28.7815 85.604C29.1642 86.024 29.3555 86.57 29.3555 87.242C29.3555 87.8207 29.2155 88.3293 28.9355 88.768C28.6555 89.2067 28.2262 89.5473 27.6475 89.79C27.0782 90.0233 26.3502 90.14 25.4635 90.14ZM32.0122 90.112C31.7509 90.112 31.5502 90.0373 31.4102 89.888C31.2702 89.7387 31.2002 89.5333 31.2002 89.272V80.858C31.2002 80.5873 31.2749 80.382 31.4242 80.242C31.5736 80.0927 31.7789 80.018 32.0402 80.018C32.2736 80.018 32.4556 80.0647 32.5862 80.158C32.7262 80.242 32.8522 80.3913 32.9642 80.606L36.4222 87.004H35.9742L39.4322 80.606C39.5442 80.3913 39.6656 80.242 39.7962 80.158C39.9269 80.0647 40.1089 80.018 40.3422 80.018C40.6036 80.018 40.8042 80.0927 40.9442 80.242C41.0842 80.382 41.1542 80.5873 41.1542 80.858V89.272C41.1542 89.5333 41.0842 89.7387 40.9442 89.888C40.8136 90.0373 40.6129 90.112 40.3422 90.112C40.0809 90.112 39.8802 90.0373 39.7402 89.888C39.6002 89.7387 39.5302 89.5333 39.5302 89.272V82.79H39.8382L36.8982 88.152C36.8049 88.3107 36.7069 88.4273 36.6042 88.502C36.5016 88.5767 36.3616 88.614 36.1842 88.614C36.0069 88.614 35.8622 88.5767 35.7502 88.502C35.6382 88.418 35.5402 88.3013 35.4562 88.152L32.4882 82.776H32.8242V89.272C32.8242 89.5333 32.7542 89.7387 32.6142 89.888C32.4836 90.0373 32.2829 90.112 32.0122 90.112ZM44.2785 90C43.9705 90 43.7325 89.9207 43.5645 89.762C43.4059 89.594 43.3265 89.356 43.3265 89.048V81.082C43.3265 80.774 43.4059 80.5407 43.5645 80.382C43.7325 80.214 43.9705 80.13 44.2785 80.13H49.2765C49.5099 80.13 49.6872 80.1907 49.8085 80.312C49.9392 80.4333 50.0045 80.606 50.0045 80.83C50.0045 81.0633 49.9392 81.2453 49.8085 81.376C49.6872 81.4973 49.5099 81.558 49.2765 81.558H45.0485V84.274H48.9685C49.2112 84.274 49.3932 84.3347 49.5145 84.456C49.6359 84.5773 49.6965 84.7547 49.6965 84.988C49.6965 85.2213 49.6359 85.3987 49.5145 85.52C49.3932 85.6413 49.2112 85.702 48.9685 85.702H45.0485V88.572H49.2765C49.5099 88.572 49.6872 88.6327 49.8085 88.754C49.9392 88.8753 50.0045 89.0527 50.0045 89.286C50.0045 89.5193 49.9392 89.6967 49.8085 89.818C49.6872 89.9393 49.5099 90 49.2765 90H44.2785ZM56.2584 90.14C55.2317 90.14 54.3497 89.9347 53.6124 89.524C52.8844 89.104 52.3244 88.516 51.9324 87.76C51.5404 86.9947 51.3444 86.094 51.3444 85.058C51.3444 84.2833 51.4564 83.588 51.6804 82.972C51.9044 82.3467 52.2264 81.8147 52.6464 81.376C53.0664 80.928 53.5797 80.5873 54.1864 80.354C54.8024 80.1113 55.493 79.99 56.2584 79.99C56.7717 79.99 57.2757 80.0553 57.7704 80.186C58.265 80.3167 58.699 80.5033 59.0724 80.746C59.2684 80.8673 59.399 81.0167 59.4644 81.194C59.5297 81.362 59.5437 81.53 59.5064 81.698C59.469 81.8567 59.3897 81.992 59.2684 82.104C59.1564 82.216 59.0117 82.2813 58.8344 82.3C58.6664 82.3093 58.4797 82.2487 58.2744 82.118C57.985 81.9313 57.6724 81.796 57.3364 81.712C57.0004 81.628 56.6597 81.586 56.3144 81.586C55.6517 81.586 55.0917 81.7213 54.6344 81.992C54.177 82.2627 53.8317 82.6547 53.5984 83.168C53.365 83.6813 53.2484 84.3113 53.2484 85.058C53.2484 85.7953 53.365 86.4253 53.5984 86.948C53.8317 87.4707 54.177 87.8673 54.6344 88.138C55.0917 88.4087 55.6517 88.544 56.3144 88.544C56.669 88.544 57.019 88.502 57.3644 88.418C57.7097 88.3247 58.0364 88.1847 58.3444 87.998C58.5497 87.8767 58.7317 87.8253 58.8904 87.844C59.0584 87.8533 59.1984 87.9093 59.3104 88.012C59.4224 88.1147 59.497 88.2453 59.5344 88.404C59.5717 88.5533 59.5624 88.712 59.5064 88.88C59.4504 89.0387 59.3384 89.1787 59.1704 89.3C58.797 89.5707 58.349 89.7807 57.8264 89.93C57.313 90.07 56.7904 90.14 56.2584 90.14ZM64.3213 90.112C64.0319 90.112 63.8079 90.0327 63.6493 89.874C63.4999 89.706 63.4253 89.4773 63.4253 89.188V81.628H60.6953C60.4526 81.628 60.2613 81.5627 60.1213 81.432C59.9906 81.292 59.9253 81.1053 59.9253 80.872C59.9253 80.6293 59.9906 80.4473 60.1213 80.326C60.2613 80.1953 60.4526 80.13 60.6953 80.13H67.9473C68.1899 80.13 68.3766 80.1953 68.5073 80.326C68.6473 80.4473 68.7173 80.6293 68.7173 80.872C68.7173 81.1053 68.6473 81.292 68.5073 81.432C68.3766 81.5627 68.1899 81.628 67.9473 81.628H65.2173V89.188C65.2173 89.4773 65.1426 89.706 64.9933 89.874C64.8439 90.0327 64.6199 90.112 64.3213 90.112ZM70.4966 90.112C70.3753 90.112 70.2679 90.0933 70.1746 90.056C70.0813 90.0187 70.0019 89.9627 69.9366 89.888C69.8713 89.804 69.8199 89.706 69.7826 89.594C69.7546 89.482 69.7406 89.3513 69.7406 89.202V80.872C69.7406 80.6013 69.8106 80.3913 69.9506 80.242C70.0999 80.0927 70.3099 80.018 70.5806 80.018C70.8513 80.018 71.0566 80.0927 71.1966 80.242C71.3366 80.3913 71.4066 80.6013 71.4066 80.872V87.494H71.0846L76.4046 80.536C76.5446 80.3493 76.6799 80.2187 76.8106 80.144C76.9413 80.06 77.1139 80.018 77.3286 80.018C77.4779 80.018 77.6039 80.0507 77.7066 80.116C77.8186 80.1813 77.9026 80.2793 77.9586 80.41C78.0239 80.5313 78.0566 80.676 78.0566 80.844V89.244C78.0566 89.524 77.9866 89.7387 77.8466 89.888C77.7066 90.0373 77.5013 90.112 77.2306 90.112C76.9599 90.112 76.7499 90.0373 76.6006 89.888C76.4606 89.7387 76.3906 89.524 76.3906 89.244V82.622H76.6986L71.3926 89.58C71.2433 89.7667 71.1079 89.902 70.9866 89.986C70.8746 90.07 70.7113 90.112 70.4966 90.112ZM83.4893 90.112C83.1999 90.112 82.9759 90.0327 82.8173 89.874C82.6679 89.706 82.5933 89.4773 82.5933 89.188V81.628H79.8633C79.6206 81.628 79.4293 81.5627 79.2893 81.432C79.1586 81.292 79.0933 81.1053 79.0933 80.872C79.0933 80.6293 79.1586 80.4473 79.2893 80.326C79.4293 80.1953 79.6206 80.13 79.8633 80.13H87.1153C87.3579 80.13 87.5446 80.1953 87.6753 80.326C87.8153 80.4473 87.8853 80.6293 87.8853 80.872C87.8853 81.1053 87.8153 81.292 87.6753 81.432C87.5446 81.5627 87.3579 81.628 87.1153 81.628H84.3853V89.188C84.3853 89.4773 84.3106 89.706 84.1613 89.874C84.0119 90.0327 83.7879 90.112 83.4893 90.112ZM89.8606 90C89.5526 90 89.3146 89.9207 89.1466 89.762C88.9879 89.594 88.9086 89.356 88.9086 89.048V81.082C88.9086 80.774 88.9879 80.5407 89.1466 80.382C89.3146 80.214 89.5526 80.13 89.8606 80.13H94.8586C95.0919 80.13 95.2692 80.1907 95.3906 80.312C95.5212 80.4333 95.5866 80.606 95.5866 80.83C95.5866 81.0633 95.5212 81.2453 95.3906 81.376C95.2692 81.4973 95.0919 81.558 94.8586 81.558H90.6306V84.274H94.5506C94.7932 84.274 94.9752 84.3347 95.0966 84.456C95.2179 84.5773 95.2786 84.7547 95.2786 84.988C95.2786 85.2213 95.2179 85.3987 95.0966 85.52C94.9752 85.6413 94.7932 85.702 94.5506 85.702H90.6306V88.572H94.8586C95.0919 88.572 95.2692 88.6327 95.3906 88.754C95.5212 88.8753 95.5866 89.0527 95.5866 89.286C95.5866 89.5193 95.5212 89.6967 95.3906 89.818C95.2692 89.9393 95.0919 90 94.8586 90H89.8606ZM29.8454 109.14C29.164 109.14 28.5294 109.065 27.9414 108.916C27.3627 108.757 26.854 108.533 26.4154 108.244C26.238 108.132 26.1167 108.001 26.0514 107.852C25.9954 107.693 25.9814 107.544 26.0094 107.404C26.0467 107.255 26.1167 107.129 26.2194 107.026C26.322 106.923 26.4527 106.863 26.6114 106.844C26.77 106.825 26.9427 106.872 27.1294 106.984C27.372 107.124 27.6287 107.241 27.8994 107.334C28.17 107.427 28.4547 107.497 28.7534 107.544C29.0614 107.591 29.3787 107.614 29.7054 107.614C30.228 107.614 30.6527 107.558 30.9794 107.446C31.3154 107.334 31.5627 107.166 31.7214 106.942C31.8894 106.718 31.9734 106.433 31.9734 106.088C31.9734 105.621 31.824 105.276 31.5254 105.052C31.2267 104.819 30.76 104.702 30.1254 104.702H28.3754C28.1327 104.702 27.946 104.641 27.8154 104.52C27.6847 104.399 27.6194 104.221 27.6194 103.988C27.6194 103.764 27.6847 103.591 27.8154 103.47C27.946 103.349 28.1327 103.288 28.3754 103.288H29.8874C30.5034 103.288 30.9607 103.176 31.2594 102.952C31.5674 102.728 31.7214 102.387 31.7214 101.93C31.7214 101.641 31.6467 101.389 31.4974 101.174C31.3574 100.959 31.138 100.796 30.8394 100.684C30.55 100.563 30.1767 100.502 29.7194 100.502C29.318 100.502 28.912 100.553 28.5014 100.656C28.1 100.749 27.7314 100.889 27.3954 101.076C27.1994 101.188 27.022 101.235 26.8634 101.216C26.714 101.188 26.588 101.123 26.4854 101.02C26.392 100.908 26.3314 100.777 26.3034 100.628C26.2754 100.479 26.294 100.329 26.3594 100.18C26.4247 100.031 26.5414 99.9047 26.7094 99.802C27.1574 99.5313 27.6567 99.3307 28.2074 99.2C28.7674 99.06 29.3367 98.99 29.9154 98.99C30.718 98.99 31.3807 99.1067 31.9034 99.34C32.4354 99.564 32.832 99.8813 33.0934 100.292C33.364 100.693 33.4994 101.16 33.4994 101.692C33.4994 102.289 33.322 102.793 32.9674 103.204C32.622 103.615 32.1554 103.89 31.5674 104.03V103.82C32.2487 103.923 32.7807 104.184 33.1634 104.604C33.546 105.024 33.7374 105.57 33.7374 106.242C33.7374 106.821 33.5974 107.329 33.3174 107.768C33.0374 108.207 32.608 108.547 32.0294 108.79C31.46 109.023 30.732 109.14 29.8454 109.14ZM35.5154 109.112C35.2914 109.112 35.1094 109.061 34.9694 108.958C34.8387 108.855 34.7594 108.72 34.7314 108.552C34.7034 108.375 34.736 108.179 34.8294 107.964L38.5254 99.774C38.6467 99.5033 38.7914 99.312 38.9594 99.2C39.1367 99.0787 39.3374 99.018 39.5614 99.018C39.776 99.018 39.9674 99.0787 40.1354 99.2C40.3127 99.312 40.462 99.5033 40.5834 99.774L44.2934 107.964C44.396 108.179 44.4334 108.375 44.4054 108.552C44.3774 108.729 44.298 108.869 44.1674 108.972C44.0367 109.065 43.864 109.112 43.6494 109.112C43.388 109.112 43.1827 109.051 43.0334 108.93C42.8934 108.799 42.7674 108.603 42.6554 108.342L41.7454 106.228L42.5014 106.718H36.5934L37.3494 106.228L36.4534 108.342C36.332 108.613 36.206 108.809 36.0754 108.93C35.9447 109.051 35.758 109.112 35.5154 109.112ZM39.5334 101.076L37.5734 105.738L37.2094 105.29H41.8854L41.5354 105.738L39.5614 101.076H39.5334ZM46.7313 109.112C46.442 109.112 46.218 109.033 46.0593 108.874C45.91 108.706 45.8353 108.477 45.8353 108.188V99.928C45.8353 99.6293 45.91 99.4053 46.0593 99.256C46.218 99.0973 46.442 99.018 46.7313 99.018C47.0207 99.018 47.24 99.0973 47.3893 99.256C47.548 99.4053 47.6273 99.6293 47.6273 99.928V103.316H49.2233L48.8733 103.554L51.4493 99.48C51.58 99.284 51.7293 99.1533 51.8973 99.088C52.0747 99.0227 52.2473 99.0087 52.4153 99.046C52.5833 99.0833 52.728 99.1627 52.8493 99.284C52.9707 99.4053 53.036 99.5547 53.0453 99.732C53.064 99.9093 53.008 100.101 52.8773 100.306L50.5253 103.904L49.8253 103.386C50.432 103.479 50.9453 103.699 51.3653 104.044C51.7853 104.389 52.1447 104.87 52.4433 105.486L53.5913 107.838C53.7127 108.071 53.75 108.281 53.7033 108.468C53.666 108.655 53.5727 108.804 53.4233 108.916C53.2833 109.019 53.12 109.079 52.9333 109.098C52.756 109.117 52.5787 109.084 52.4013 109C52.2333 108.907 52.098 108.753 51.9953 108.538L50.8893 106.158C50.6653 105.673 50.3947 105.327 50.0773 105.122C49.7693 104.917 49.382 104.814 48.9153 104.814H47.6273V108.188C47.6273 108.477 47.5527 108.706 47.4033 108.874C47.254 109.033 47.03 109.112 46.7313 109.112ZM55.1755 109.112C54.9515 109.112 54.7695 109.061 54.6295 108.958C54.4988 108.855 54.4195 108.72 54.3915 108.552C54.3635 108.375 54.3962 108.179 54.4895 107.964L58.1855 99.774C58.3068 99.5033 58.4515 99.312 58.6195 99.2C58.7968 99.0787 58.9975 99.018 59.2215 99.018C59.4362 99.018 59.6275 99.0787 59.7955 99.2C59.9728 99.312 60.1222 99.5033 60.2435 99.774L63.9535 107.964C64.0562 108.179 64.0935 108.375 64.0655 108.552C64.0375 108.729 63.9582 108.869 63.8275 108.972C63.6968 109.065 63.5242 109.112 63.3095 109.112C63.0482 109.112 62.8428 109.051 62.6935 108.93C62.5535 108.799 62.4275 108.603 62.3155 108.342L61.4055 106.228L62.1615 106.718H56.2535L57.0095 106.228L56.1135 108.342C55.9922 108.613 55.8662 108.809 55.7355 108.93C55.6048 109.051 55.4182 109.112 55.1755 109.112ZM59.1935 101.076L57.2335 105.738L56.8695 105.29H61.5455L61.1955 105.738L59.2215 101.076H59.1935ZM68.6735 109.14C67.9921 109.14 67.3575 109.065 66.7695 108.916C66.1908 108.757 65.6821 108.533 65.2435 108.244C65.0661 108.132 64.9448 108.001 64.8795 107.852C64.8235 107.693 64.8095 107.544 64.8375 107.404C64.8748 107.255 64.9448 107.129 65.0475 107.026C65.1501 106.923 65.2808 106.863 65.4395 106.844C65.5981 106.825 65.7708 106.872 65.9575 106.984C66.2001 107.124 66.4568 107.241 66.7275 107.334C66.9981 107.427 67.2828 107.497 67.5815 107.544C67.8895 107.591 68.2068 107.614 68.5335 107.614C69.0561 107.614 69.4808 107.558 69.8075 107.446C70.1435 107.334 70.3908 107.166 70.5495 106.942C70.7175 106.718 70.8015 106.433 70.8015 106.088C70.8015 105.621 70.6521 105.276 70.3535 105.052C70.0548 104.819 69.5881 104.702 68.9535 104.702H67.2035C66.9608 104.702 66.7741 104.641 66.6435 104.52C66.5128 104.399 66.4475 104.221 66.4475 103.988C66.4475 103.764 66.5128 103.591 66.6435 103.47C66.7741 103.349 66.9608 103.288 67.2035 103.288H68.7155C69.3315 103.288 69.7888 103.176 70.0875 102.952C70.3955 102.728 70.5495 102.387 70.5495 101.93C70.5495 101.641 70.4748 101.389 70.3255 101.174C70.1855 100.959 69.9661 100.796 69.6675 100.684C69.3781 100.563 69.0048 100.502 68.5475 100.502C68.1461 100.502 67.7401 100.553 67.3295 100.656C66.9281 100.749 66.5595 100.889 66.2235 101.076C66.0275 101.188 65.8501 101.235 65.6915 101.216C65.5421 101.188 65.4161 101.123 65.3135 101.02C65.2201 100.908 65.1595 100.777 65.1315 100.628C65.1035 100.479 65.1221 100.329 65.1875 100.18C65.2528 100.031 65.3695 99.9047 65.5375 99.802C65.9855 99.5313 66.4848 99.3307 67.0355 99.2C67.5955 99.06 68.1648 98.99 68.7435 98.99C69.5461 98.99 70.2088 99.1067 70.7315 99.34C71.2635 99.564 71.6601 99.8813 71.9215 100.292C72.1921 100.693 72.3275 101.16 72.3275 101.692C72.3275 102.289 72.1501 102.793 71.7955 103.204C71.4501 103.615 70.9835 103.89 70.3955 104.03V103.82C71.0768 103.923 71.6088 104.184 71.9915 104.604C72.3741 105.024 72.5655 105.57 72.5655 106.242C72.5655 106.821 72.4255 107.329 72.1455 107.768C71.8655 108.207 71.4361 108.547 70.8575 108.79C70.2881 109.023 69.5601 109.14 68.6735 109.14Z" fill="white"/>
<path d="M176.872 90.112C176.582 90.112 176.358 90.0327 176.2 89.874C176.05 89.706 175.976 89.4773 175.976 89.188V81.082C175.976 80.774 176.055 80.5407 176.214 80.382C176.382 80.214 176.62 80.13 176.928 80.13H183.606C183.914 80.13 184.147 80.214 184.306 80.382C184.474 80.5407 184.558 80.774 184.558 81.082V89.188C184.558 89.4773 184.478 89.706 184.32 89.874C184.17 90.0327 183.951 90.112 183.662 90.112C183.372 90.112 183.148 90.0327 182.99 89.874C182.84 89.706 182.766 89.4773 182.766 89.188V81.628H177.768V89.188C177.768 89.4773 177.693 89.706 177.544 89.874C177.394 90.0327 177.17 90.112 176.872 90.112ZM191.118 90.14C190.166 90.14 189.331 89.93 188.612 89.51C187.903 89.09 187.352 88.502 186.96 87.746C186.568 86.9807 186.372 86.0847 186.372 85.058C186.372 84.2833 186.484 83.588 186.708 82.972C186.932 82.3467 187.25 81.8147 187.66 81.376C188.08 80.928 188.58 80.5873 189.158 80.354C189.746 80.1113 190.4 79.99 191.118 79.99C192.08 79.99 192.915 80.2 193.624 80.62C194.334 81.0307 194.884 81.614 195.276 82.37C195.668 83.126 195.864 84.0173 195.864 85.044C195.864 85.8187 195.752 86.5187 195.528 87.144C195.304 87.7693 194.982 88.306 194.562 88.754C194.152 89.202 193.652 89.5473 193.064 89.79C192.486 90.0233 191.837 90.14 191.118 90.14ZM191.118 88.6C191.725 88.6 192.238 88.46 192.658 88.18C193.088 87.9 193.414 87.494 193.638 86.962C193.872 86.43 193.988 85.7953 193.988 85.058C193.988 83.938 193.736 83.07 193.232 82.454C192.738 81.838 192.033 81.53 191.118 81.53C190.521 81.53 190.008 81.67 189.578 81.95C189.149 82.2207 188.818 82.622 188.584 83.154C188.36 83.6767 188.248 84.3113 188.248 85.058C188.248 86.1687 188.5 87.0367 189.004 87.662C189.508 88.2873 190.213 88.6 191.118 88.6ZM205.135 90.112C204.846 90.112 204.622 90.0327 204.463 89.874C204.314 89.706 204.239 89.4773 204.239 89.188V81.628H200.711V83.588C200.711 84.4373 200.655 85.1933 200.543 85.856C200.431 86.5187 200.268 87.1067 200.053 87.62C199.848 88.1333 199.586 88.5813 199.269 88.964C198.961 89.3467 198.606 89.678 198.205 89.958C198 90.1073 197.79 90.1587 197.575 90.112C197.36 90.0747 197.174 89.9533 197.015 89.748C196.866 89.5333 196.814 89.3233 196.861 89.118C196.917 88.9127 197.052 88.7353 197.267 88.586C197.566 88.3807 197.827 88.1287 198.051 87.83C198.275 87.5313 198.462 87.1673 198.611 86.738C198.76 86.3087 198.872 85.8 198.947 85.212C199.022 84.6147 199.059 83.9193 199.059 83.126V81.082C199.059 80.774 199.138 80.5407 199.297 80.382C199.465 80.214 199.703 80.13 200.011 80.13H205.079C205.387 80.13 205.62 80.214 205.779 80.382C205.947 80.5407 206.031 80.774 206.031 81.082V89.188C206.031 89.4773 205.952 89.706 205.793 89.874C205.644 90.0327 205.424 90.112 205.135 90.112ZM210.875 90.112C210.669 90.112 210.492 90.0607 210.343 89.958C210.193 89.846 210.1 89.7013 210.063 89.524C210.035 89.3373 210.081 89.1273 210.203 88.894L211.323 86.71V87.27L207.571 81.208C207.449 81.0027 207.398 80.8113 207.417 80.634C207.445 80.4473 207.533 80.298 207.683 80.186C207.832 80.074 208.019 80.018 208.243 80.018C208.476 80.018 208.653 80.074 208.775 80.186C208.905 80.298 209.031 80.4567 209.153 80.662L212.191 85.66H211.869L214.403 80.676C214.496 80.4987 214.603 80.3447 214.725 80.214C214.855 80.0833 215.047 80.018 215.299 80.018C215.513 80.018 215.691 80.0693 215.831 80.172C215.98 80.2747 216.073 80.4193 216.111 80.606C216.148 80.7833 216.101 80.9933 215.971 81.236L211.785 89.454C211.701 89.622 211.589 89.776 211.449 89.916C211.318 90.0467 211.127 90.112 210.875 90.112ZM224.148 90.112C223.859 90.112 223.635 90.0327 223.476 89.874C223.327 89.706 223.252 89.4773 223.252 89.188V86.15C223 86.2713 222.674 86.3693 222.272 86.444C221.88 86.5187 221.488 86.556 221.096 86.556C220.247 86.556 219.524 86.402 218.926 86.094C218.329 85.786 217.876 85.3287 217.568 84.722C217.26 84.106 217.106 83.336 217.106 82.412V80.942C217.106 80.6433 217.181 80.4147 217.33 80.256C217.489 80.0973 217.713 80.018 218.002 80.018C218.292 80.018 218.511 80.0973 218.66 80.256C218.819 80.4147 218.898 80.6433 218.898 80.942V82.328C218.898 83.2613 219.099 83.9427 219.5 84.372C219.902 84.8013 220.499 85.016 221.292 85.016C221.628 85.016 221.964 84.9833 222.3 84.918C222.646 84.8433 222.963 84.7313 223.252 84.582V80.942C223.252 80.6433 223.327 80.4147 223.476 80.256C223.635 80.0973 223.859 80.018 224.148 80.018C224.438 80.018 224.657 80.0973 224.806 80.256C224.965 80.4147 225.044 80.6433 225.044 80.942V89.188C225.044 89.4773 224.97 89.706 224.82 89.874C224.671 90.0327 224.447 90.112 224.148 90.112ZM227.946 90.112C227.825 90.112 227.718 90.0933 227.624 90.056C227.531 90.0187 227.452 89.9627 227.386 89.888C227.321 89.804 227.27 89.706 227.232 89.594C227.204 89.482 227.19 89.3513 227.19 89.202V80.872C227.19 80.6013 227.26 80.3913 227.4 80.242C227.55 80.0927 227.76 80.018 228.03 80.018C228.301 80.018 228.506 80.0927 228.646 80.242C228.786 80.3913 228.856 80.6013 228.856 80.872V87.494H228.534L233.854 80.536C233.994 80.3493 234.13 80.2187 234.26 80.144C234.391 80.06 234.564 80.018 234.778 80.018C234.928 80.018 235.054 80.0507 235.156 80.116C235.268 80.1813 235.352 80.2793 235.408 80.41C235.474 80.5313 235.506 80.676 235.506 80.844V89.244C235.506 89.524 235.436 89.7387 235.296 89.888C235.156 90.0373 234.951 90.112 234.68 90.112C234.41 90.112 234.2 90.0373 234.05 89.888C233.91 89.7387 233.84 89.524 233.84 89.244V82.622H234.148L228.842 89.58C228.693 89.7667 228.558 89.902 228.436 89.986C228.324 90.07 228.161 90.112 227.946 90.112ZM240.939 90.112C240.65 90.112 240.426 90.0327 240.267 89.874C240.118 89.706 240.043 89.4773 240.043 89.188V81.628H237.313C237.07 81.628 236.879 81.5627 236.739 81.432C236.608 81.292 236.543 81.1053 236.543 80.872C236.543 80.6293 236.608 80.4473 236.739 80.326C236.879 80.1953 237.07 80.13 237.313 80.13H244.565C244.808 80.13 244.994 80.1953 245.125 80.326C245.265 80.4473 245.335 80.6293 245.335 80.872C245.335 81.1053 245.265 81.292 245.125 81.432C244.994 81.5627 244.808 81.628 244.565 81.628H241.835V89.188C241.835 89.4773 241.76 89.706 241.611 89.874C241.462 90.0327 241.238 90.112 240.939 90.112ZM247.31 90C247.002 90 246.764 89.9207 246.596 89.762C246.438 89.594 246.358 89.356 246.358 89.048V81.082C246.358 80.774 246.438 80.5407 246.596 80.382C246.764 80.214 247.002 80.13 247.31 80.13H252.308C252.542 80.13 252.719 80.1907 252.84 80.312C252.971 80.4333 253.036 80.606 253.036 80.83C253.036 81.0633 252.971 81.2453 252.84 81.376C252.719 81.4973 252.542 81.558 252.308 81.558H248.08V84.274H252C252.243 84.274 252.425 84.3347 252.546 84.456C252.668 84.5773 252.728 84.7547 252.728 84.988C252.728 85.2213 252.668 85.3987 252.546 85.52C252.425 85.6413 252.243 85.702 252 85.702H248.08V88.572H252.308C252.542 88.572 252.719 88.6327 252.84 88.754C252.971 88.8753 253.036 89.0527 253.036 89.286C253.036 89.5193 252.971 89.6967 252.84 89.818C252.719 89.9393 252.542 90 252.308 90H247.31ZM183.145 111.422C182.883 111.422 182.683 111.352 182.543 111.212C182.412 111.072 182.347 110.871 182.347 110.61V108.398C182.347 107.847 182.627 107.572 183.187 107.572H184.139L183.075 107.852C183.607 107.32 183.999 106.55 184.251 105.542C184.512 104.534 184.643 103.255 184.643 101.706V100.082C184.643 99.774 184.722 99.5407 184.881 99.382C185.049 99.214 185.287 99.13 185.595 99.13H190.677C190.985 99.13 191.218 99.214 191.377 99.382C191.545 99.5407 191.629 99.774 191.629 100.082V108.244L190.957 107.572H192.189C192.459 107.572 192.665 107.642 192.805 107.782C192.954 107.922 193.029 108.127 193.029 108.398V110.61C193.029 111.151 192.767 111.422 192.245 111.422C191.983 111.422 191.783 111.352 191.643 111.212C191.503 111.072 191.433 110.871 191.433 110.61V109H183.943V110.61C183.943 111.151 183.677 111.422 183.145 111.422ZM185.147 107.572H189.823V100.558H186.309V101.874C186.309 103.218 186.211 104.352 186.015 105.276C185.828 106.2 185.539 106.965 185.147 107.572ZM194.51 109.112C194.286 109.112 194.104 109.061 193.964 108.958C193.833 108.855 193.754 108.72 193.726 108.552C193.698 108.375 193.731 108.179 193.824 107.964L197.52 99.774C197.641 99.5033 197.786 99.312 197.954 99.2C198.131 99.0787 198.332 99.018 198.556 99.018C198.771 99.018 198.962 99.0787 199.13 99.2C199.307 99.312 199.457 99.5033 199.578 99.774L203.288 107.964C203.391 108.179 203.428 108.375 203.4 108.552C203.372 108.729 203.293 108.869 203.162 108.972C203.031 109.065 202.859 109.112 202.644 109.112C202.383 109.112 202.177 109.051 202.028 108.93C201.888 108.799 201.762 108.603 201.65 108.342L200.74 106.228L201.496 106.718H195.588L196.344 106.228L195.448 108.342C195.327 108.613 195.201 108.809 195.07 108.93C194.939 109.051 194.753 109.112 194.51 109.112ZM198.528 101.076L196.568 105.738L196.204 105.29H200.88L200.53 105.738L198.556 101.076H198.528ZM205.726 109.112C205.437 109.112 205.213 109.033 205.054 108.874C204.905 108.706 204.83 108.477 204.83 108.188V99.942C204.83 99.6433 204.905 99.4147 205.054 99.256C205.213 99.0973 205.437 99.018 205.726 99.018C206.015 99.018 206.235 99.0973 206.384 99.256C206.543 99.4147 206.622 99.6433 206.622 99.942V103.246H211.704V99.942C211.704 99.6433 211.779 99.4147 211.928 99.256C212.087 99.0973 212.311 99.018 212.6 99.018C212.889 99.018 213.109 99.0973 213.258 99.256C213.417 99.4147 213.496 99.6433 213.496 99.942V108.188C213.496 108.477 213.417 108.706 213.258 108.874C213.109 109.033 212.889 109.112 212.6 109.112C212.311 109.112 212.087 109.033 211.928 108.874C211.779 108.706 211.704 108.477 211.704 108.188V104.744H206.622V108.188C206.622 108.477 206.547 108.706 206.398 108.874C206.249 109.033 206.025 109.112 205.726 109.112ZM216.554 109.112C216.265 109.112 216.041 109.033 215.882 108.874C215.733 108.706 215.658 108.477 215.658 108.188V99.942C215.658 99.6433 215.733 99.4147 215.882 99.256C216.041 99.0973 216.265 99.018 216.554 99.018C216.844 99.018 217.063 99.0973 217.212 99.256C217.371 99.4147 217.45 99.6433 217.45 99.942V103.246H222.532V99.942C222.532 99.6433 222.607 99.4147 222.756 99.256C222.915 99.0973 223.139 99.018 223.428 99.018C223.718 99.018 223.937 99.0973 224.086 99.256C224.245 99.4147 224.324 99.6433 224.324 99.942V108.188C224.324 108.477 224.245 108.706 224.086 108.874C223.937 109.033 223.718 109.112 223.428 109.112C223.139 109.112 222.915 109.033 222.756 108.874C222.607 108.706 222.532 108.477 222.532 108.188V104.744H217.45V108.188C217.45 108.477 217.376 108.706 217.226 108.874C217.077 109.033 216.853 109.112 216.554 109.112ZM227.438 109C227.13 109 226.892 108.921 226.724 108.762C226.566 108.594 226.486 108.356 226.486 108.048V99.942C226.486 99.6433 226.561 99.4147 226.71 99.256C226.869 99.0973 227.093 99.018 227.382 99.018C227.672 99.018 227.891 99.0973 228.04 99.256C228.199 99.4147 228.278 99.6433 228.278 99.942V103.246H230.532C231.232 103.246 231.834 103.358 232.338 103.582C232.842 103.797 233.225 104.119 233.486 104.548C233.757 104.968 233.892 105.491 233.892 106.116C233.892 107.049 233.594 107.763 232.996 108.258C232.408 108.753 231.587 109 230.532 109H227.438ZM228.278 107.572H230.308C230.943 107.572 231.41 107.455 231.708 107.222C232.007 106.979 232.156 106.611 232.156 106.116C232.156 105.621 232.007 105.257 231.708 105.024C231.41 104.791 230.943 104.674 230.308 104.674H228.278V107.572ZM236.048 109.112C235.759 109.112 235.535 109.033 235.376 108.874C235.227 108.706 235.152 108.477 235.152 108.188V99.942C235.152 99.6433 235.227 99.4147 235.376 99.256C235.535 99.0973 235.759 99.018 236.048 99.018C236.338 99.018 236.557 99.0973 236.706 99.256C236.865 99.4147 236.944 99.6433 236.944 99.942V108.188C236.944 108.477 236.87 108.706 236.72 108.874C236.571 109.033 236.347 109.112 236.048 109.112ZM240.057 109C239.749 109 239.511 108.921 239.343 108.762C239.185 108.594 239.105 108.356 239.105 108.048V100.082C239.105 99.774 239.185 99.5407 239.343 99.382C239.511 99.214 239.749 99.13 240.057 99.13H245.055C245.289 99.13 245.466 99.1907 245.587 99.312C245.718 99.4333 245.783 99.606 245.783 99.83C245.783 100.063 245.718 100.245 245.587 100.376C245.466 100.497 245.289 100.558 245.055 100.558H240.827V103.274H244.747C244.99 103.274 245.172 103.335 245.293 103.456C245.415 103.577 245.475 103.755 245.475 103.988C245.475 104.221 245.415 104.399 245.293 104.52C245.172 104.641 244.99 104.702 244.747 104.702H240.827V107.572H245.055C245.289 107.572 245.466 107.633 245.587 107.754C245.718 107.875 245.783 108.053 245.783 108.286C245.783 108.519 245.718 108.697 245.587 108.818C245.466 108.939 245.289 109 245.055 109H240.057Z" fill="white"/>
<path d="M347.632 90.112C347.342 90.112 347.118 90.0327 346.96 89.874C346.81 89.706 346.736 89.4773 346.736 89.188V80.942C346.736 80.6433 346.81 80.4147 346.96 80.256C347.118 80.0973 347.342 80.018 347.632 80.018C347.921 80.018 348.14 80.0973 348.29 80.256C348.448 80.4147 348.528 80.6433 348.528 80.942V84.246H353.61V80.942C353.61 80.6433 353.684 80.4147 353.834 80.256C353.992 80.0973 354.216 80.018 354.506 80.018C354.795 80.018 355.014 80.0973 355.164 80.256C355.322 80.4147 355.402 80.6433 355.402 80.942V89.188C355.402 89.4773 355.322 89.706 355.164 89.874C355.014 90.0327 354.795 90.112 354.506 90.112C354.216 90.112 353.992 90.0327 353.834 89.874C353.684 89.706 353.61 89.4773 353.61 89.188V85.744H348.528V89.188C348.528 89.4773 348.453 89.706 348.304 89.874C348.154 90.0327 347.93 90.112 347.632 90.112ZM357.662 90.112C357.438 90.112 357.256 90.0607 357.116 89.958C356.985 89.8553 356.906 89.72 356.878 89.552C356.85 89.3747 356.883 89.1787 356.976 88.964L360.672 80.774C360.793 80.5033 360.938 80.312 361.106 80.2C361.283 80.0787 361.484 80.018 361.708 80.018C361.923 80.018 362.114 80.0787 362.282 80.2C362.459 80.312 362.609 80.5033 362.73 80.774L366.44 88.964C366.543 89.1787 366.58 89.3747 366.552 89.552C366.524 89.7293 366.445 89.8693 366.314 89.972C366.183 90.0653 366.011 90.112 365.796 90.112C365.535 90.112 365.329 90.0513 365.18 89.93C365.04 89.7993 364.914 89.6033 364.802 89.342L363.892 87.228L364.648 87.718H358.74L359.496 87.228L358.6 89.342C358.479 89.6127 358.353 89.8087 358.222 89.93C358.091 90.0513 357.905 90.112 357.662 90.112ZM361.68 82.076L359.72 86.738L359.356 86.29H364.032L363.682 86.738L361.708 82.076H361.68ZM374.196 90.112C373.906 90.112 373.682 90.0327 373.524 89.874C373.374 89.706 373.3 89.4773 373.3 89.188V86.15C373.048 86.2713 372.721 86.3693 372.32 86.444C371.928 86.5187 371.536 86.556 371.144 86.556C370.294 86.556 369.571 86.402 368.974 86.094C368.376 85.786 367.924 85.3287 367.616 84.722C367.308 84.106 367.154 83.336 367.154 82.412V80.942C367.154 80.6433 367.228 80.4147 367.378 80.256C367.536 80.0973 367.76 80.018 368.05 80.018C368.339 80.018 368.558 80.0973 368.708 80.256C368.866 80.4147 368.946 80.6433 368.946 80.942V82.328C368.946 83.2613 369.146 83.9427 369.548 84.372C369.949 84.8013 370.546 85.016 371.34 85.016C371.676 85.016 372.012 84.9833 372.348 84.918C372.693 84.8433 373.01 84.7313 373.3 84.582V80.942C373.3 80.6433 373.374 80.4147 373.524 80.256C373.682 80.0973 373.906 80.018 374.196 80.018C374.485 80.018 374.704 80.0973 374.854 80.256C375.012 80.4147 375.092 80.6433 375.092 80.942V89.188C375.092 89.4773 375.017 89.706 374.868 89.874C374.718 90.0327 374.494 90.112 374.196 90.112ZM378.134 90.112C377.844 90.112 377.62 90.0327 377.462 89.874C377.312 89.706 377.238 89.4773 377.238 89.188V80.942C377.238 80.6433 377.312 80.4147 377.462 80.256C377.62 80.0973 377.844 80.018 378.134 80.018C378.423 80.018 378.642 80.0973 378.792 80.256C378.95 80.4147 379.03 80.6433 379.03 80.942V84.246H384.112V80.942C384.112 80.6433 384.186 80.4147 384.336 80.256C384.494 80.0973 384.718 80.018 385.008 80.018C385.297 80.018 385.516 80.0973 385.666 80.256C385.824 80.4147 385.904 80.6433 385.904 80.942V89.188C385.904 89.4773 385.824 89.706 385.666 89.874C385.516 90.0327 385.297 90.112 385.008 90.112C384.718 90.112 384.494 90.0327 384.336 89.874C384.186 89.706 384.112 89.4773 384.112 89.188V85.744H379.03V89.188C379.03 89.4773 378.955 89.706 378.806 89.874C378.656 90.0327 378.432 90.112 378.134 90.112ZM388.822 90.112C388.7 90.112 388.593 90.0933 388.5 90.056C388.406 90.0187 388.327 89.9627 388.262 89.888C388.196 89.804 388.145 89.706 388.108 89.594C388.08 89.482 388.066 89.3513 388.066 89.202V80.872C388.066 80.6013 388.136 80.3913 388.276 80.242C388.425 80.0927 388.635 80.018 388.906 80.018C389.176 80.018 389.382 80.0927 389.522 80.242C389.662 80.3913 389.732 80.6013 389.732 80.872V87.494H389.41L394.73 80.536C394.87 80.3493 395.005 80.2187 395.136 80.144C395.266 80.06 395.439 80.018 395.654 80.018C395.803 80.018 395.929 80.0507 396.032 80.116C396.144 80.1813 396.228 80.2793 396.284 80.41C396.349 80.5313 396.382 80.676 396.382 80.844V89.244C396.382 89.524 396.312 89.7387 396.172 89.888C396.032 90.0373 395.826 90.112 395.556 90.112C395.285 90.112 395.075 90.0373 394.926 89.888C394.786 89.7387 394.716 89.524 394.716 89.244V82.622H395.024L389.718 89.58C389.568 89.7667 389.433 89.902 389.312 89.986C389.2 90.07 389.036 90.112 388.822 90.112ZM401.814 90.112C401.525 90.112 401.301 90.0327 401.142 89.874C400.993 89.706 400.918 89.4773 400.918 89.188V81.628H398.188C397.946 81.628 397.754 81.5627 397.614 81.432C397.484 81.292 397.418 81.1053 397.418 80.872C397.418 80.6293 397.484 80.4473 397.614 80.326C397.754 80.1953 397.946 80.13 398.188 80.13H405.44C405.683 80.13 405.87 80.1953 406 80.326C406.14 80.4473 406.21 80.6293 406.21 80.872C406.21 81.1053 406.14 81.292 406 81.432C405.87 81.5627 405.683 81.628 405.44 81.628H402.71V89.188C402.71 89.4773 402.636 89.706 402.486 89.874C402.337 90.0327 402.113 90.112 401.814 90.112ZM408.186 90C407.878 90 407.64 89.9207 407.472 89.762C407.313 89.594 407.234 89.356 407.234 89.048V81.082C407.234 80.774 407.313 80.5407 407.472 80.382C407.64 80.214 407.878 80.13 408.186 80.13H413.184C413.417 80.13 413.594 80.1907 413.716 80.312C413.846 80.4333 413.912 80.606 413.912 80.83C413.912 81.0633 413.846 81.2453 413.716 81.376C413.594 81.4973 413.417 81.558 413.184 81.558H408.956V84.274H412.876C413.118 84.274 413.3 84.3347 413.422 84.456C413.543 84.5773 413.604 84.7547 413.604 84.988C413.604 85.2213 413.543 85.3987 413.422 85.52C413.3 85.6413 413.118 85.702 412.876 85.702H408.956V88.572H413.184C413.417 88.572 413.594 88.6327 413.716 88.754C413.846 88.8753 413.912 89.0527 413.912 89.286C413.912 89.5193 413.846 89.6967 413.716 89.818C413.594 89.9393 413.417 90 413.184 90H408.186ZM316.381 109.112C316.26 109.112 316.153 109.093 316.059 109.056C315.966 109.019 315.887 108.963 315.821 108.888C315.756 108.804 315.705 108.706 315.667 108.594C315.639 108.482 315.625 108.351 315.625 108.202V99.872C315.625 99.6013 315.695 99.3913 315.835 99.242C315.985 99.0927 316.195 99.018 316.465 99.018C316.736 99.018 316.941 99.0927 317.081 99.242C317.221 99.3913 317.291 99.6013 317.291 99.872V106.494H316.969L322.289 99.536C322.429 99.3493 322.565 99.2187 322.695 99.144C322.826 99.06 322.999 99.018 323.213 99.018C323.363 99.018 323.489 99.0507 323.591 99.116C323.703 99.1813 323.787 99.2793 323.843 99.41C323.909 99.5313 323.941 99.676 323.941 99.844V108.244C323.941 108.524 323.871 108.739 323.731 108.888C323.591 109.037 323.386 109.112 323.115 109.112C322.845 109.112 322.635 109.037 322.485 108.888C322.345 108.739 322.275 108.524 322.275 108.244V101.622H322.583L317.277 108.58C317.128 108.767 316.993 108.902 316.871 108.986C316.759 109.07 316.596 109.112 316.381 109.112ZM330.69 109.14C329.663 109.14 328.781 108.935 328.044 108.524C327.316 108.104 326.756 107.516 326.364 106.76C325.972 105.995 325.776 105.094 325.776 104.058C325.776 103.283 325.888 102.588 326.112 101.972C326.336 101.347 326.658 100.815 327.078 100.376C327.498 99.928 328.011 99.5873 328.618 99.354C329.234 99.1113 329.925 98.99 330.69 98.99C331.203 98.99 331.707 99.0553 332.202 99.186C332.697 99.3167 333.131 99.5033 333.504 99.746C333.7 99.8673 333.831 100.017 333.896 100.194C333.961 100.362 333.975 100.53 333.938 100.698C333.901 100.857 333.821 100.992 333.7 101.104C333.588 101.216 333.443 101.281 333.266 101.3C333.098 101.309 332.911 101.249 332.706 101.118C332.417 100.931 332.104 100.796 331.768 100.712C331.432 100.628 331.091 100.586 330.746 100.586C330.083 100.586 329.523 100.721 329.066 100.992C328.609 101.263 328.263 101.655 328.03 102.168C327.797 102.681 327.68 103.311 327.68 104.058C327.68 104.795 327.797 105.425 328.03 105.948C328.263 106.471 328.609 106.867 329.066 107.138C329.523 107.409 330.083 107.544 330.746 107.544C331.101 107.544 331.451 107.502 331.796 107.418C332.141 107.325 332.468 107.185 332.776 106.998C332.981 106.877 333.163 106.825 333.322 106.844C333.49 106.853 333.63 106.909 333.742 107.012C333.854 107.115 333.929 107.245 333.966 107.404C334.003 107.553 333.994 107.712 333.938 107.88C333.882 108.039 333.77 108.179 333.602 108.3C333.229 108.571 332.781 108.781 332.258 108.93C331.745 109.07 331.222 109.14 330.69 109.14ZM336.51 109.112C336.22 109.112 335.996 109.033 335.838 108.874C335.688 108.706 335.614 108.477 335.614 108.188V100.082C335.614 99.774 335.693 99.5407 335.852 99.382C336.02 99.214 336.258 99.13 336.566 99.13H343.244C343.552 99.13 343.785 99.214 343.944 99.382C344.112 99.5407 344.196 99.774 344.196 100.082V108.188C344.196 108.477 344.116 108.706 343.958 108.874C343.808 109.033 343.589 109.112 343.3 109.112C343.01 109.112 342.786 109.033 342.628 108.874C342.478 108.706 342.404 108.477 342.404 108.188V100.628H337.406V108.188C337.406 108.477 337.331 108.706 337.182 108.874C337.032 109.033 336.808 109.112 336.51 109.112ZM350.756 109.14C349.804 109.14 348.969 108.93 348.25 108.51C347.541 108.09 346.99 107.502 346.598 106.746C346.206 105.981 346.01 105.085 346.01 104.058C346.01 103.283 346.122 102.588 346.346 101.972C346.57 101.347 346.888 100.815 347.298 100.376C347.718 99.928 348.218 99.5873 348.796 99.354C349.384 99.1113 350.038 98.99 350.756 98.99C351.718 98.99 352.553 99.2 353.262 99.62C353.972 100.031 354.522 100.614 354.914 101.37C355.306 102.126 355.502 103.017 355.502 104.044C355.502 104.819 355.39 105.519 355.166 106.144C354.942 106.769 354.62 107.306 354.2 107.754C353.79 108.202 353.29 108.547 352.702 108.79C352.124 109.023 351.475 109.14 350.756 109.14ZM350.756 107.6C351.363 107.6 351.876 107.46 352.296 107.18C352.726 106.9 353.052 106.494 353.276 105.962C353.51 105.43 353.626 104.795 353.626 104.058C353.626 102.938 353.374 102.07 352.87 101.454C352.376 100.838 351.671 100.53 350.756 100.53C350.159 100.53 349.646 100.67 349.216 100.95C348.787 101.221 348.456 101.622 348.222 102.154C347.998 102.677 347.886 103.311 347.886 104.058C347.886 105.169 348.138 106.037 348.642 106.662C349.146 107.287 349.851 107.6 350.756 107.6ZM364.773 109.112C364.484 109.112 364.26 109.033 364.101 108.874C363.952 108.706 363.877 108.477 363.877 108.188V100.628H360.349V102.588C360.349 103.437 360.293 104.193 360.181 104.856C360.069 105.519 359.906 106.107 359.691 106.62C359.486 107.133 359.225 107.581 358.907 107.964C358.599 108.347 358.245 108.678 357.843 108.958C357.638 109.107 357.428 109.159 357.213 109.112C356.999 109.075 356.812 108.953 356.653 108.748C356.504 108.533 356.453 108.323 356.499 108.118C356.555 107.913 356.691 107.735 356.905 107.586C357.204 107.381 357.465 107.129 357.689 106.83C357.913 106.531 358.1 106.167 358.249 105.738C358.399 105.309 358.511 104.8 358.585 104.212C358.66 103.615 358.697 102.919 358.697 102.126V100.082C358.697 99.774 358.777 99.5407 358.935 99.382C359.103 99.214 359.341 99.13 359.649 99.13H364.717C365.025 99.13 365.259 99.214 365.417 99.382C365.585 99.5407 365.669 99.774 365.669 100.082V108.188C365.669 108.477 365.59 108.706 365.431 108.874C365.282 109.033 365.063 109.112 364.773 109.112ZM368.777 109C368.469 109 368.231 108.921 368.063 108.762C367.904 108.594 367.825 108.356 367.825 108.048V99.942C367.825 99.6433 367.899 99.4147 368.049 99.256C368.207 99.0973 368.431 99.018 368.721 99.018C369.01 99.018 369.229 99.0973 369.379 99.256C369.537 99.4147 369.617 99.6433 369.617 99.942V103.246H372.291C372.991 103.246 373.593 103.358 374.097 103.582C374.601 103.797 374.983 104.119 375.245 104.548C375.515 104.968 375.651 105.491 375.651 106.116C375.651 107.049 375.352 107.763 374.755 108.258C374.167 108.753 373.345 109 372.291 109H368.777ZM369.617 107.572H372.067C372.701 107.572 373.168 107.455 373.467 107.222C373.765 106.979 373.915 106.611 373.915 106.116C373.915 105.621 373.765 105.257 373.467 105.024C373.168 104.791 372.701 104.674 372.067 104.674H369.617V107.572ZM380.423 109.14C379.741 109.14 379.107 109.065 378.519 108.916C377.94 108.757 377.431 108.533 376.993 108.244C376.815 108.132 376.694 108.001 376.629 107.852C376.573 107.693 376.559 107.544 376.587 107.404C376.624 107.255 376.694 107.129 376.797 107.026C376.899 106.923 377.03 106.863 377.189 106.844C377.347 106.825 377.52 106.872 377.707 106.984C377.949 107.124 378.206 107.241 378.477 107.334C378.747 107.427 379.032 107.497 379.331 107.544C379.639 107.591 379.956 107.614 380.283 107.614C380.805 107.614 381.23 107.558 381.557 107.446C381.893 107.334 382.14 107.166 382.299 106.942C382.467 106.718 382.551 106.433 382.551 106.088C382.551 105.621 382.401 105.276 382.103 105.052C381.804 104.819 381.337 104.702 380.703 104.702H378.953C378.71 104.702 378.523 104.641 378.393 104.52C378.262 104.399 378.197 104.221 378.197 103.988C378.197 103.764 378.262 103.591 378.393 103.47C378.523 103.349 378.71 103.288 378.953 103.288H380.465C381.081 103.288 381.538 103.176 381.837 102.952C382.145 102.728 382.299 102.387 382.299 101.93C382.299 101.641 382.224 101.389 382.075 101.174C381.935 100.959 381.715 100.796 381.417 100.684C381.127 100.563 380.754 100.502 380.297 100.502C379.895 100.502 379.489 100.553 379.079 100.656C378.677 100.749 378.309 100.889 377.973 101.076C377.777 101.188 377.599 101.235 377.441 101.216C377.291 101.188 377.165 101.123 377.063 101.02C376.969 100.908 376.909 100.777 376.881 100.628C376.853 100.479 376.871 100.329 376.937 100.18C377.002 100.031 377.119 99.9047 377.287 99.802C377.735 99.5313 378.234 99.3307 378.785 99.2C379.345 99.06 379.914 98.99 380.493 98.99C381.295 98.99 381.958 99.1067 382.481 99.34C383.013 99.564 383.409 99.8813 383.671 100.292C383.941 100.693 384.077 101.16 384.077 101.692C384.077 102.289 383.899 102.793 383.545 103.204C383.199 103.615 382.733 103.89 382.145 104.03V103.82C382.826 103.923 383.358 104.184 383.741 104.604C384.123 105.024 384.315 105.57 384.315 106.242C384.315 106.821 384.175 107.329 383.895 107.768C383.615 108.207 383.185 108.547 382.607 108.79C382.037 109.023 381.309 109.14 380.423 109.14ZM390.555 109.14C389.603 109.14 388.768 108.93 388.049 108.51C387.34 108.09 386.789 107.502 386.397 106.746C386.005 105.981 385.809 105.085 385.809 104.058C385.809 103.283 385.921 102.588 386.145 101.972C386.369 101.347 386.687 100.815 387.097 100.376C387.517 99.928 388.017 99.5873 388.595 99.354C389.183 99.1113 389.837 98.99 390.555 98.99C391.517 98.99 392.352 99.2 393.061 99.62C393.771 100.031 394.321 100.614 394.713 101.37C395.105 102.126 395.301 103.017 395.301 104.044C395.301 104.819 395.189 105.519 394.965 106.144C394.741 106.769 394.419 107.306 393.999 107.754C393.589 108.202 393.089 108.547 392.501 108.79C391.923 109.023 391.274 109.14 390.555 109.14ZM390.555 107.6C391.162 107.6 391.675 107.46 392.095 107.18C392.525 106.9 392.851 106.494 393.075 105.962C393.309 105.43 393.425 104.795 393.425 104.058C393.425 102.938 393.173 102.07 392.669 101.454C392.175 100.838 391.47 100.53 390.555 100.53C389.958 100.53 389.445 100.67 389.015 100.95C388.586 101.221 388.255 101.622 388.021 102.154C387.797 102.677 387.685 103.311 387.685 104.058C387.685 105.169 387.937 106.037 388.441 106.662C388.945 107.287 389.65 107.6 390.555 107.6ZM398.075 109C397.767 109 397.529 108.921 397.361 108.762C397.203 108.594 397.123 108.356 397.123 108.048V100.082C397.123 99.774 397.203 99.5407 397.361 99.382C397.529 99.214 397.767 99.13 398.075 99.13H401.435C402.126 99.13 402.714 99.2327 403.199 99.438C403.685 99.6433 404.053 99.9373 404.305 100.32C404.567 100.703 404.697 101.16 404.697 101.692C404.697 102.289 404.525 102.793 404.179 103.204C403.834 103.615 403.363 103.89 402.765 104.03V103.82C403.456 103.923 403.993 104.184 404.375 104.604C404.758 105.024 404.949 105.57 404.949 106.242C404.949 107.119 404.651 107.801 404.053 108.286C403.465 108.762 402.644 109 401.589 109H398.075ZM398.845 107.642H401.365C402 107.642 402.467 107.521 402.765 107.278C403.064 107.026 403.213 106.653 403.213 106.158C403.213 105.654 403.064 105.281 402.765 105.038C402.467 104.795 402 104.674 401.365 104.674H398.845V107.642ZM398.845 103.316H401.127C401.743 103.316 402.201 103.199 402.499 102.966C402.807 102.723 402.961 102.369 402.961 101.902C402.961 101.435 402.807 101.085 402.499 100.852C402.201 100.609 401.743 100.488 401.127 100.488H398.845V103.316ZM406.723 109.112C406.499 109.112 406.317 109.061 406.177 108.958C406.047 108.855 405.967 108.72 405.939 108.552C405.911 108.375 405.944 108.179 406.037 107.964L409.733 99.774C409.855 99.5033 409.999 99.312 410.167 99.2C410.345 99.0787 410.545 99.018 410.769 99.018C410.984 99.018 411.175 99.0787 411.343 99.2C411.521 99.312 411.67 99.5033 411.791 99.774L415.501 107.964C415.604 108.179 415.641 108.375 415.613 108.552C415.585 108.729 415.506 108.869 415.375 108.972C415.245 109.065 415.072 109.112 414.857 109.112C414.596 109.112 414.391 109.051 414.241 108.93C414.101 108.799 413.975 108.603 413.863 108.342L412.953 106.228L413.709 106.718H407.801L408.557 106.228L407.661 108.342C407.54 108.613 407.414 108.809 407.283 108.93C407.153 109.051 406.966 109.112 406.723 109.112ZM410.741 101.076L408.781 105.738L408.417 105.29H413.093L412.743 105.738L410.769 101.076H410.741ZM417.939 109.112C417.65 109.112 417.426 109.033 417.267 108.874C417.118 108.706 417.043 108.477 417.043 108.188V99.942C417.043 99.6433 417.118 99.4147 417.267 99.256C417.426 99.0973 417.65 99.018 417.939 99.018C418.229 99.018 418.448 99.0973 418.597 99.256C418.756 99.4147 418.835 99.6433 418.835 99.942V103.246H423.917V99.942C423.917 99.6433 423.992 99.4147 424.141 99.256C424.3 99.0973 424.524 99.018 424.813 99.018C425.103 99.018 425.322 99.0973 425.471 99.256C425.63 99.4147 425.709 99.6433 425.709 99.942V108.188C425.709 108.477 425.63 108.706 425.471 108.874C425.322 109.033 425.103 109.112 424.813 109.112C424.524 109.112 424.3 109.033 424.141 108.874C423.992 108.706 423.917 108.477 423.917 108.188V104.744H418.835V108.188C418.835 108.477 418.761 108.706 418.611 108.874C418.462 109.033 418.238 109.112 417.939 109.112ZM428.627 109.112C428.506 109.112 428.399 109.093 428.305 109.056C428.212 109.019 428.133 108.963 428.067 108.888C428.002 108.804 427.951 108.706 427.913 108.594C427.885 108.482 427.871 108.351 427.871 108.202V99.872C427.871 99.6013 427.941 99.3913 428.081 99.242C428.231 99.0927 428.441 99.018 428.711 99.018C428.982 99.018 429.187 99.0927 429.327 99.242C429.467 99.3913 429.537 99.6013 429.537 99.872V106.494H429.215L434.535 99.536C434.675 99.3493 434.811 99.2187 434.941 99.144C435.072 99.06 435.245 99.018 435.459 99.018C435.609 99.018 435.735 99.0507 435.837 99.116C435.949 99.1813 436.033 99.2793 436.089 99.41C436.155 99.5313 436.187 99.676 436.187 99.844V108.244C436.187 108.524 436.117 108.739 435.977 108.888C435.837 109.037 435.632 109.112 435.361 109.112C435.091 109.112 434.881 109.037 434.731 108.888C434.591 108.739 434.521 108.524 434.521 108.244V101.622H434.829L429.523 108.58C429.374 108.767 429.239 108.902 429.117 108.986C429.005 109.07 428.842 109.112 428.627 109.112ZM439.296 109C438.988 109 438.75 108.921 438.582 108.762C438.423 108.594 438.344 108.356 438.344 108.048V100.082C438.344 99.774 438.423 99.5407 438.582 99.382C438.75 99.214 438.988 99.13 439.296 99.13H444.294C444.527 99.13 444.705 99.1907 444.826 99.312C444.957 99.4333 445.022 99.606 445.022 99.83C445.022 100.063 444.957 100.245 444.826 100.376C444.705 100.497 444.527 100.558 444.294 100.558H440.066V103.274H443.986C444.229 103.274 444.411 103.335 444.532 103.456C444.653 103.577 444.714 103.755 444.714 103.988C444.714 104.221 444.653 104.399 444.532 104.52C444.411 104.641 444.229 104.702 443.986 104.702H440.066V107.572H444.294C444.527 107.572 444.705 107.633 444.826 107.754C444.957 107.875 445.022 108.053 445.022 108.286C445.022 108.519 444.957 108.697 444.826 108.818C444.705 108.939 444.527 109 444.294 109H439.296Z" fill="white"/>
<defs>
<filter id="filter0_bii_128_38" x="340.618" y="-8" width="75.9341" height="76" filterUnits="userSpaceOnUse" color-interpolation-filters="sRGB">
<feFlood flood-opacity="0" result="BackgroundImageFix"/>
<feGaussianBlur in="BackgroundImageFix" stdDeviation="4"/>
<feComposite in2="SourceAlpha" operator="in" result="effect1_backgroundBlur_128_38"/>
<feBlend mode="normal" in="SourceGraphic" in2="effect1_backgroundBlur_128_38" result="shape"/>
<feColorMatrix in="SourceAlpha" type="matrix" values="0 0 0 0 0 0 0 0 0 0 0 0 0 0 0 0 0 0 127 0" result="hardAlpha"/>
<feOffset dx="-4" dy="-4"/>
<feGaussianBlur stdDeviation="5"/>
<feComposite in2="hardAlpha" operator="arithmetic" k2="-1" k3="1"/>
<feColorMatrix type="matrix" values="0 0 0 0 0 0 0 0 0 0.937255 0 0 0 0 0.819608 0 0 0 0.2 0"/>
<feBlend mode="normal" in2="shape" result="effect2_innerShadow_128_38"/>
<feColorMatrix in="SourceAlpha" type="matrix" values="0 0 0 0 0 0 0 0 0 0 0 0 0 0 0 0 0 0 127 0" result="hardAlpha"/>
<feOffset dx="4" dy="4"/>
<feGaussianBlur stdDeviation="5"/>
<feComposite in2="hardAlpha" operator="arithmetic" k2="-1" k3="1"/>
<feColorMatrix type="matrix" values="0 0 0 0 0.984 0 0 0 0 0.215 0 0 0 0 1 0 0 0 0.3 0"/>
<feBlend mode="normal" in2="effect2_innerShadow_128_38" result="effect3_innerShadow_128_38"/>
</filter>
<filter id="filter1_bii_128_38" x="175.799" y="-8" width="75.9341" height="76" filterUnits="userSpaceOnUse" color-interpolation-filters="sRGB">
<feFlood flood-opacity="0" result="BackgroundImageFix"/>
<feGaussianBlur in="BackgroundImageFix" stdDeviation="4"/>
<feComposite in2="SourceAlpha" operator="in" result="effect1_backgroundBlur_128_38"/>
<feBlend mode="normal" in="SourceGraphic" in2="effect1_backgroundBlur_128_38" result="shape"/>
<feColorMatrix in="SourceAlpha" type="matrix" values="0 0 0 0 0 0 0 0 0 0 0 0 0 0 0 0 0 0 127 0" result="hardAlpha"/>
<feOffset dx="-4" dy="-4"/>
<feGaussianBlur stdDeviation="5"/>
<feComposite in2="hardAlpha" operator="arithmetic" k2="-1" k3="1"/>
<feColorMatrix type="matrix" values="0 0 0 0 0 0 0 0 0 0.937255 0 0 0 0 0.819608 0 0 0 0.2 0"/>
<feBlend mode="normal" in2="shape" result="effect2_innerShadow_128_38"/>
<feColorMatrix in="SourceAlpha" type="matrix" values="0 0 0 0 0 0 0 0 0 0 0 0 0 0 0 0 0 0 127 0" result="hardAlpha"/>
<feOffset dx="4" dy="4"/>
<feGaussianBlur stdDeviation="5"/>
<feComposite in2="hardAlpha" operator="arithmetic" k2="-1" k3="1"/>
<feColorMatrix type="matrix" values="0 0 0 0 0.984 0 0 0 0 0.215 0 0 0 0 1 0 0 0 0.3 0"/>
<feBlend mode="normal" in2="effect2_innerShadow_128_38" result="effect3_innerShadow_128_38"/>
</filter>
<filter id="filter2_bii_128_38" x="10.9802" y="-8" width="75.9342" height="76" filterUnits="userSpaceOnUse" color-interpolation-filters="sRGB">
<feFlood flood-opacity="0" result="BackgroundImageFix"/>
<feGaussianBlur in="BackgroundImageFix" stdDeviation="4"/>
<feComposite in2="SourceAlpha" operator="in" result="effect1_backgroundBlur_128_38"/>
<feBlend mode="normal" in="SourceGraphic" in2="effect1_backgroundBlur_128_38" result="shape"/>
<feColorMatrix in="SourceAlpha" type="matrix" values="0 0 0 0 0 0 0 0 0 0 0 0 0 0 0 0 0 0 127 0" result="hardAlpha"/>
<feOffset dx="-4" dy="-4"/>
<feGaussianBlur stdDeviation="5"/>
<feComposite in2="hardAlpha" operator="arithmetic" k2="-1" k3="1"/>
<feColorMatrix type="matrix" values="0 0 0 0 0 0 0 0 0 0.937255 0 0 0 0 0.819608 0 0 0 0.2 0"/>
<feBlend mode="normal" in2="shape" result="effect2_innerShadow_128_38"/>
<feColorMatrix in="SourceAlpha" type="matrix" values="0 0 0 0 0 0 0 0 0 0 0 0 0 0 0 0 0 0 127 0" result="hardAlpha"/>
<feOffset dx="4" dy="4"/>
<feGaussianBlur stdDeviation="5"/>
<feComposite in2="hardAlpha" operator="arithmetic" k2="-1" k3="1"/>
<feColorMatrix type="matrix" values="0 0 0 0 0.984 0 0 0 0 0.215 0 0 0 0 1 0 0 0 0.3 0"/>
<feBlend mode="normal" in2="effect2_innerShadow_128_38" result="effect3_innerShadow_128_38"/>
</filter>
<linearGradient id="paint0_linear_128_38" x1="125.094" y1="18.725" x2="405.782" y2="46.1905" gradientUnits="userSpaceOnUse">
<stop stop-color="#00EFD1"/>
<stop offset="1" stop-color="#56FFB8"/>
</linearGradient>
<linearGradient id="paint1_linear_128_38" x1="365.054" y1="4.50004" x2="402.587" y2="4.68651" gradientUnits="userSpaceOnUse">
<stop stop-color="#00EFD1"/>
<stop offset="1" stop-color="#56FFB8"/>
</linearGradient>
<linearGradient id="paint2_linear_128_38" x1="200.235" y1="4.50004" x2="237.768" y2="4.68651" gradientUnits="userSpaceOnUse">
<stop stop-color="#00EFD1"/>
<stop offset="1" stop-color="#56FFB8"/>
</linearGradient>
<linearGradient id="paint3_linear_128_38" x1="35.4165" y1="4.50004" x2="72.9487" y2="4.68651" gradientUnits="userSpaceOnUse">
<stop stop-color="#00EFD1"/>
<stop offset="1" stop-color="#56FFB8"/>
</linearGradient>
<linearGradient id="paint4_linear_128_38" x1="487.703" y1="29.8569" x2="491.311" y2="41.7898" gradientUnits="userSpaceOnUse">
<stop stop-color="#00EFD1"/>
<stop offset="1" stop-color="#56FFB8"/>
</linearGradient>
</defs>
</svg>
