<svg width="56" height="32" viewBox="0 0 56 32" fill="none" xmlns="http://www.w3.org/2000/svg">
<path d="M53.8203 31.919C52.5169 32.1012 46.1429 31.919 45.812 31.919C44.1643 31.94 42.5747 31.3145 41.3878 30.1782C40.0438 28.8929 38.8423 27.4759 37.5288 26.1299C37.1403 25.7212 36.7198 25.3439 36.2713 25.0014C35.2225 24.1968 34.1839 24.3789 33.6901 25.6086C33.3042 26.9375 33.0351 28.2971 32.8857 29.6722C32.7991 30.9171 32.0049 31.6964 30.5998 31.7824C29.7292 31.8279 28.8586 31.8431 27.9982 31.8229C24.8626 31.803 21.7763 31.0451 18.9921 29.6115C15.9795 27.9428 13.3548 25.6616 11.2893 22.9165C7.8935 18.6049 5.17995 13.8683 2.75659 8.98499C2.62931 8.74209 0.144859 3.48933 0.0837657 3.24136C-0.140242 2.41145 0.0837669 1.61695 0.771065 1.34369C1.2089 1.17669 9.39538 1.34369 9.53284 1.34369C10.1414 1.33844 10.7359 1.5259 11.2302 1.8789C11.7245 2.23191 12.0929 2.73214 12.282 3.30715C13.7954 7.15876 15.8673 10.7697 18.4321 14.0252C18.791 14.4606 19.2111 14.8423 19.6794 15.1588C20.3463 15.6091 20.9776 15.4523 21.2525 14.6881C21.5783 13.6279 21.7699 12.5315 21.8227 11.4241C21.8686 9.2279 21.8227 7.7806 21.7006 5.58942C21.6191 4.18261 21.1202 2.94786 19.0328 2.55314C18.3913 2.44181 18.3353 1.91552 18.7477 1.38923C19.6081 0.296171 20.7842 0.124114 22.1027 0.0583283C24.0679 -0.053002 26.0331 0.022905 27.9982 0.0583283L28.4259 0.0583283C29.2812 0.0552276 30.1344 0.141734 30.9714 0.316413C31.4662 0.415878 31.9155 0.671608 32.2522 1.04549C32.5889 1.41938 32.795 1.8914 32.8399 2.3912C32.9404 2.94538 32.9831 3.50839 32.9671 4.07128C32.9162 6.46994 32.7991 8.86354 32.7737 11.2622C32.7502 12.2119 32.8374 13.1612 33.0333 14.091C33.3133 15.3662 34.1941 15.6851 35.0698 14.764C36.2036 13.5734 37.2436 12.2978 38.1804 10.9485C39.837 8.48927 41.2036 5.84892 42.2533 3.07943C42.8235 1.65744 43.2715 1.34369 44.7988 1.34369L53.4842 1.34369C54.0007 1.33468 54.5156 1.40292 55.0116 1.54611C55.1871 1.59196 55.3513 1.67336 55.4937 1.7852C55.6362 1.89704 55.7539 2.03691 55.8394 2.19605C55.925 2.35519 55.9766 2.53018 55.9909 2.71005C56.0053 2.88992 55.9821 3.0708 55.9229 3.24136C55.4952 5.13398 54.4668 6.74826 53.3773 8.30183C51.6107 10.7916 49.7474 13.2155 47.9401 15.6648C47.7115 15.9896 47.5024 16.3276 47.3138 16.6769C46.6316 17.8965 46.6825 18.5796 47.6702 19.5968C49.2485 21.206 50.9336 22.7191 52.4558 24.3789C53.5735 25.5856 54.5821 26.8878 55.4698 28.2704C56.5847 29.9859 55.8974 31.6255 53.8203 31.919Z" fill="url(#paint0_linear_428_1746)"/>
<defs>
<linearGradient id="paint0_linear_428_1746" x1="0" y1="0" x2="58.8352" y2="6.55595" gradientUnits="userSpaceOnUse">
<stop stop-color="#FB37FF"/>
<stop offset="1" stop-color="#00EFD1"/>
</linearGradient>
</defs>
</svg>
