<svg width="55" height="46" viewBox="0 0 55 46" fill="none" xmlns="http://www.w3.org/2000/svg">
<path fill-rule="evenodd" clip-rule="evenodd" d="M3.77976 19.8027C18.5387 13.311 28.3805 9.03125 33.3046 6.96365C47.3645 1.05991 50.2861 0.0342963 52.1902 0.000355339C52.6091 -0.00703182 53.5455 0.0977869 54.152 0.594723C55.0518 1.33184 55.057 2.93186 54.9571 3.99082C54.1951 12.0728 50.8984 31.6853 49.2211 40.7371C48.5114 44.5673 47.114 45.8516 45.7613 45.9772C42.8213 46.2503 40.5887 44.0156 37.7411 42.1313C33.2853 39.1824 30.7679 37.3468 26.4426 34.4694C21.4441 31.144 24.6845 29.3164 27.5331 26.3294C28.2787 25.5477 41.2324 13.6526 41.4832 12.5735C41.5147 12.4385 41.5437 11.9354 41.2477 11.6699C40.9516 11.4043 40.5148 11.495 40.1995 11.5672C39.7526 11.6697 32.6342 16.4196 18.8445 25.8169C16.8239 27.2176 14.9938 27.9 13.3541 27.8643C11.5464 27.825 8.06928 26.8325 5.48429 25.9842C2.31373 24.9438 -0.206188 24.3935 0.0133305 22.6266C0.127639 21.706 1.38305 20.7648 3.77976 19.8027Z" fill="url(#paint0_linear_428_1688)"/>
<defs>
<linearGradient id="paint0_linear_428_1688" x1="0" y1="0" x2="58.1649" y2="4.42819" gradientUnits="userSpaceOnUse">
<stop stop-color="#FB37FF"/>
<stop offset="1" stop-color="#00EFD1"/>
</linearGradient>
</defs>
</svg>
