<svg width="63" height="61" viewBox="0 0 63 61" fill="none" xmlns="http://www.w3.org/2000/svg">
<path d="M47.9062 17.7917C49.7184 17.7917 51.1875 16.3692 51.1875 14.6146C51.1875 12.8599 49.7184 11.4375 47.9062 11.4375C46.0941 11.4375 44.625 12.8599 44.625 14.6146C44.625 16.3692 46.0941 17.7917 47.9062 17.7917Z" fill="url(#paint0_linear_428_1676)"/>
<path fill-rule="evenodd" clip-rule="evenodd" d="M31.5 20.3333C33.5767 20.3333 35.6068 20.9296 37.3335 22.0467C39.0602 23.1639 40.406 24.7517 41.2007 26.6094C41.9955 28.4671 42.2034 30.5113 41.7982 32.4834C41.3931 34.4556 40.3931 36.2671 38.9246 37.6889C37.4562 39.1108 35.5853 40.079 33.5485 40.4713C31.5116 40.8636 29.4004 40.6623 27.4818 39.8928C25.5632 39.1233 23.9233 37.8202 22.7696 36.1483C21.6158 34.4764 21 32.5108 21 30.5C21.0014 27.804 22.1081 25.2189 24.0769 23.3126C26.0457 21.4062 28.7157 20.3347 31.5 20.3333ZM31.5 15.25C34.6151 15.25 37.6602 16.1444 40.2502 17.8201C42.8403 19.4958 44.859 21.8775 46.0511 24.6641C47.2432 27.4507 47.5551 30.5169 46.9474 33.4751C46.3397 36.4333 44.8396 39.1506 42.6369 41.2834C40.4343 43.4161 37.6279 44.8686 34.5727 45.457C31.5175 46.0454 28.3507 45.7434 25.4727 44.5892C22.5948 43.4349 20.135 41.4803 18.4044 38.9724C16.6737 36.4646 15.75 33.5162 15.75 30.5C15.7521 26.4561 17.4121 22.5783 20.3654 19.7189C23.3186 16.8594 27.3235 15.252 31.5 15.25Z" fill="url(#paint1_linear_428_1676)"/>
<path fill-rule="evenodd" clip-rule="evenodd" d="M57.75 17.7917C57.75 14.4212 56.3672 11.1888 53.9058 8.80552C51.4444 6.42224 48.106 5.08333 44.625 5.08333H18.375C14.894 5.08333 11.5556 6.42224 9.09422 8.80552C6.63281 11.1888 5.25 14.4212 5.25 17.7917V43.2083C5.25 46.5788 6.63281 49.8112 9.09422 52.1945C11.5556 54.5778 14.894 55.9167 18.375 55.9167H44.625C48.106 55.9167 51.4444 54.5778 53.9058 52.1945C56.3672 49.8112 57.75 46.5788 57.75 43.2083V17.7917ZM63 17.7917C63 13.073 61.0641 8.54764 57.6181 5.21106C54.1721 1.87447 49.4984 0 44.625 0H18.375C13.5016 0 8.82789 1.87447 5.38191 5.21106C1.93593 8.54764 0 13.073 0 17.7917V43.2083C0 47.927 1.93593 52.4524 5.38191 55.7889C8.82789 59.1255 13.5016 61 18.375 61H44.625C49.4984 61 54.1721 59.1255 57.6181 55.7889C61.0641 52.4524 63 47.927 63 43.2083V17.7917Z" fill="url(#paint2_linear_428_1676)"/>
<defs>
<linearGradient id="paint0_linear_428_1676" x1="44.625" y1="11.4375" x2="51.5753" y2="11.8946" gradientUnits="userSpaceOnUse">
<stop stop-color="#FB37FF"/>
<stop offset="1" stop-color="#00EFD1"/>
</linearGradient>
<linearGradient id="paint1_linear_428_1676" x1="15.75" y1="15.25" x2="49.1115" y2="17.4439" gradientUnits="userSpaceOnUse">
<stop stop-color="#FB37FF"/>
<stop offset="1" stop-color="#00EFD1"/>
</linearGradient>
<linearGradient id="paint2_linear_428_1676" x1="0" y1="0" x2="66.7229" y2="4.38779" gradientUnits="userSpaceOnUse">
<stop stop-color="#FB37FF"/>
<stop offset="1" stop-color="#00EFD1"/>
</linearGradient>
</defs>
</svg>
