<svg width="44" height="51" viewBox="0 0 44 51" fill="none" xmlns="http://www.w3.org/2000/svg">
<path fill-rule="evenodd" clip-rule="evenodd" d="M23.1579 2.31818C23.1579 1.70336 23.4019 1.11372 23.8362 0.67898C24.2705 0.244237 24.8595 0 25.4737 0H30.3704C30.9059 0.000109202 31.4249 0.186007 31.8389 0.526045C32.2529 0.866084 32.5364 1.33925 32.6411 1.86498C33.0601 3.95607 34.1904 5.83711 35.8392 7.18778C37.4881 8.53845 39.5536 9.27526 41.6842 9.27273C42.2984 9.27273 42.8874 9.51696 43.3217 9.95171C43.756 10.3864 44 10.9761 44 11.5909V16.2273C44 16.8421 43.756 17.4317 43.3217 17.8665C42.8874 18.3012 42.2984 18.5455 41.6842 18.5455C38.4316 18.5502 35.2357 17.6932 32.4211 16.0615V34.7727C32.4211 37.9822 31.4703 41.1196 29.6891 43.7881C27.9079 46.4567 25.3761 48.5366 22.414 49.7648C19.4519 50.993 16.1925 51.3143 13.048 50.6882C9.90348 50.0621 7.01504 48.5166 4.74796 46.2471C2.48088 43.9777 0.936975 41.0863 0.311488 37.9385C-0.313999 34.7907 0.00702375 31.528 1.23396 28.5628C2.4609 25.5977 4.53864 23.0633 7.20445 21.2802C9.87025 19.4972 13.0044 18.5455 16.2105 18.5455C16.8247 18.5455 17.4137 18.7897 17.848 19.2244C18.2823 19.6592 18.5263 20.2488 18.5263 20.8636V25.5C18.5263 26.1148 18.2823 26.7045 17.848 27.1392C17.4137 27.5739 16.8247 27.8182 16.2105 27.8182C14.8365 27.8182 13.4933 28.2261 12.3508 28.9902C11.2083 29.7544 10.3178 30.8406 9.792 32.1113C9.26617 33.3821 9.12859 34.7804 9.39666 36.1295C9.66472 37.4785 10.3264 38.7177 11.298 39.6903C12.2696 40.6629 13.5075 41.3253 14.8552 41.5936C16.2028 41.862 17.5997 41.7243 18.8692 41.1979C20.1386 40.6715 21.2237 39.7801 21.9871 38.6365C22.7504 37.4928 23.1579 36.1482 23.1579 34.7727V2.31818Z" fill="url(#paint0_linear_428_1697)"/>
<defs>
<linearGradient id="paint0_linear_428_1697" x1="0" y1="0" x2="46.6608" y2="2.56327" gradientUnits="userSpaceOnUse">
<stop stop-color="#FB37FF"/>
<stop offset="1" stop-color="#00EFD1"/>
</linearGradient>
</defs>
</svg>
