<svg width="36" height="33" viewBox="0 0 36 33" fill="none" xmlns="http://www.w3.org/2000/svg">
<g filter="url(#filter0_d_2_38)">
<path d="M12.6 24C11.888 24 11.192 24.176 10.5999 24.5056C10.0079 24.8353 9.54651 25.3038 9.27404 25.852C9.00156 26.4001 8.93027 27.0033 9.06917 27.5853C9.20808 28.1672 9.55095 28.7018 10.0544 29.1213C10.5579 29.5409 11.1993 29.8266 11.8977 29.9424C12.596 30.0581 13.3198 29.9987 13.9777 29.7717C14.6355 29.5446 15.1977 29.1601 15.5933 28.6667C15.9889 28.1734 16.2 27.5934 16.2 27C16.199 26.2046 15.8194 25.442 15.1445 24.8796C14.4696 24.3172 13.5545 24.0009 12.6 24ZM12.6 28.7092C12.1942 28.7092 11.7976 28.6089 11.4602 28.421C11.1228 28.2332 10.8598 27.9662 10.7046 27.6538C10.5493 27.3414 10.5086 26.9976 10.5878 26.666C10.667 26.3343 10.8624 26.0297 11.1493 25.7906C11.4362 25.5515 11.8018 25.3886 12.1998 25.3227C12.5977 25.2567 13.0102 25.2906 13.3851 25.42C13.76 25.5494 14.0804 25.7685 14.3059 26.0497C14.5313 26.3308 14.6516 26.6614 14.6516 26.9995C14.6511 27.4528 14.4348 27.8874 14.0501 28.2079C13.6655 28.5285 13.144 28.7087 12.6 28.7092Z" fill="url(#paint0_linear_2_38)"/>
</g>
<g filter="url(#filter1_d_2_38)">
<path d="M25.8 24C25.088 24 24.392 24.176 23.8 24.5056C23.2079 24.8353 22.7465 25.3038 22.474 25.852C22.2016 26.4001 22.1303 27.0033 22.2692 27.5853C22.4081 28.1672 22.751 28.7018 23.2544 29.1213C23.7579 29.5409 24.3994 29.8266 25.0977 29.9424C25.796 30.0581 26.5199 29.9987 27.1777 29.7717C27.8355 29.5446 28.3977 29.1601 28.7933 28.6667C29.1889 28.1734 29.4 27.5934 29.4 27C29.399 26.2046 29.0194 25.442 28.3445 24.8796C27.6696 24.3172 26.7545 24.0009 25.8 24ZM25.8 28.7092C25.3942 28.7092 24.9976 28.6089 24.6602 28.421C24.3228 28.2332 24.0599 27.9662 23.9046 27.6538C23.7493 27.3414 23.7087 26.9976 23.7878 26.666C23.867 26.3343 24.0624 26.0297 24.3493 25.7906C24.6362 25.5515 25.0018 25.3886 25.3998 25.3227C25.7977 25.2567 26.2102 25.2906 26.5851 25.42C26.96 25.5494 27.2804 25.7685 27.5059 26.0497C27.7313 26.3308 27.8516 26.6614 27.8516 26.9995C27.8511 27.4528 27.6348 27.8874 27.2501 28.2079C26.8655 28.5285 26.344 28.7087 25.8 28.7092Z" fill="url(#paint1_linear_2_38)"/>
</g>
<g filter="url(#filter2_d_2_38)">
<path d="M32.3414 4.49933L9.59662 4.14603L8.97269 2.20127C8.76807 1.56142 8.37246 1.00424 7.84216 0.609025C7.31185 0.21381 6.67386 0.000692676 6.01898 0H3.6688C3.49143 0 3.32131 0.0724747 3.19589 0.20148C3.07046 0.330486 3 0.505455 3 0.687897C3 0.870339 3.07046 1.04531 3.19589 1.17431C3.32131 1.30332 3.49143 1.37579 3.6688 1.37579H6.01898C6.39261 1.37686 6.75642 1.49898 7.05872 1.72483C7.36102 1.95068 7.58644 2.26876 7.70296 2.63389L8.49088 5.08356L12.1264 16.3843L11.7987 17.2005C11.6042 17.6853 11.529 18.2121 11.58 18.7339C11.631 19.2558 11.8065 19.7566 12.091 20.1919C12.3754 20.6272 12.76 20.9835 13.2105 21.2291C13.661 21.4748 14.1636 21.6022 14.6735 21.6H28.2515C28.4289 21.6 28.599 21.5275 28.7244 21.3985C28.8498 21.2695 28.9203 21.0945 28.9203 20.9121C28.9203 20.7296 28.8498 20.5547 28.7244 20.4257C28.599 20.2967 28.4289 20.2242 28.2515 20.2242H14.6735C14.3831 20.2262 14.0966 20.1543 13.8398 20.0149C13.5829 19.8754 13.3636 19.6727 13.2015 19.4249C13.0393 19.1771 12.9393 18.8918 12.9103 18.5946C12.8814 18.2973 12.9244 17.9973 13.0356 17.7213L13.2927 17.0835L27.9885 15.5357C28.7735 15.4526 29.5141 15.1209 30.108 14.5864C30.702 14.052 31.12 13.3411 31.3045 12.5519L32.9817 5.34702C33.005 5.2468 33.0061 5.14247 32.9849 5.04175C32.9637 4.94103 32.9208 4.84649 32.8593 4.76511C32.7979 4.68373 32.7194 4.6176 32.6298 4.5716C32.5401 4.52559 32.4416 4.5009 32.3414 4.49933Z" fill="url(#paint2_linear_2_38)"/>
</g>
<defs>
<filter id="filter0_d_2_38" x="7" y="23" width="11.2" height="10" filterUnits="userSpaceOnUse" color-interpolation-filters="sRGB">
<feFlood flood-opacity="0" result="BackgroundImageFix"/>
<feColorMatrix in="SourceAlpha" type="matrix" values="0 0 0 0 0 0 0 0 0 0 0 0 0 0 0 0 0 0 127 0" result="hardAlpha"/>
<feOffset dy="1"/>
<feGaussianBlur stdDeviation="1"/>
<feComposite in2="hardAlpha" operator="out"/>
<feColorMatrix type="matrix" values="0 0 0 0 0 0 0 0 0 0 0 0 0 0 0 0 0 0 0.71 0"/>
<feBlend mode="normal" in2="BackgroundImageFix" result="effect1_dropShadow_2_38"/>
<feBlend mode="normal" in="SourceGraphic" in2="effect1_dropShadow_2_38" result="shape"/>
</filter>
<filter id="filter1_d_2_38" x="20.2" y="23" width="11.2" height="10" filterUnits="userSpaceOnUse" color-interpolation-filters="sRGB">
<feFlood flood-opacity="0" result="BackgroundImageFix"/>
<feColorMatrix in="SourceAlpha" type="matrix" values="0 0 0 0 0 0 0 0 0 0 0 0 0 0 0 0 0 0 127 0" result="hardAlpha"/>
<feOffset dy="1"/>
<feGaussianBlur stdDeviation="1"/>
<feComposite in2="hardAlpha" operator="out"/>
<feColorMatrix type="matrix" values="0 0 0 0 0 0 0 0 0 0 0 0 0 0 0 0 0 0 0.71 0"/>
<feBlend mode="normal" in2="BackgroundImageFix" result="effect1_dropShadow_2_38"/>
<feBlend mode="normal" in="SourceGraphic" in2="effect1_dropShadow_2_38" result="shape"/>
</filter>
<filter id="filter2_d_2_38" x="0" y="0" width="36" height="27.6" filterUnits="userSpaceOnUse" color-interpolation-filters="sRGB">
<feFlood flood-opacity="0" result="BackgroundImageFix"/>
<feColorMatrix in="SourceAlpha" type="matrix" values="0 0 0 0 0 0 0 0 0 0 0 0 0 0 0 0 0 0 127 0" result="hardAlpha"/>
<feOffset dy="3"/>
<feGaussianBlur stdDeviation="1.5"/>
<feComposite in2="hardAlpha" operator="out"/>
<feColorMatrix type="matrix" values="0 0 0 0 0 0 0 0 0 0 0 0 0 0 0 0 0 0 0.25 0"/>
<feBlend mode="normal" in2="BackgroundImageFix" result="effect1_dropShadow_2_38"/>
<feBlend mode="normal" in="SourceGraphic" in2="effect1_dropShadow_2_38" result="shape"/>
</filter>
<linearGradient id="paint0_linear_2_38" x1="12.6" y1="1.36957" x2="12.6" y2="27.6972" gradientUnits="userSpaceOnUse">
<stop stop-color="#00EFD1"/>
<stop offset="1" stop-color="#00ACEA"/>
</linearGradient>
<linearGradient id="paint1_linear_2_38" x1="25.8" y1="1.36957" x2="25.8" y2="27.6972" gradientUnits="userSpaceOnUse">
<stop stop-color="#00EFD1"/>
<stop offset="1" stop-color="#00ACEA"/>
</linearGradient>
<linearGradient id="paint2_linear_2_38" x1="17.2393" y1="4.13301" x2="20.6314" y2="21.8363" gradientUnits="userSpaceOnUse">
<stop stop-color="#00EFD1"/>
<stop offset="1" stop-color="#00ACEA"/>
</linearGradient>
</defs>
</svg>
