<svg width="56" height="56" viewBox="0 0 56 56" fill="none" xmlns="http://www.w3.org/2000/svg">
<g id="Frame" clip-path="url(#clip0_346_1099)">
<g id="Group">
<g id="Group_2">
<path id="Vector" fill-rule="evenodd" clip-rule="evenodd" d="M42 56H14C10.287 56 6.72601 54.525 4.10051 51.8995C1.475 49.274 0 45.713 0 42V14C0 10.287 1.475 6.72601 4.10051 4.10051C6.72601 1.475 10.287 0 14 0L42 0C45.713 0 49.274 1.475 51.8995 4.10051C54.525 6.72601 56 10.287 56 14V42C56 45.713 54.525 49.274 51.8995 51.8995C49.274 54.525 45.713 56 42 56Z" fill="#FF3A55"/>
<path id="Vector_2" fill-rule="evenodd" clip-rule="evenodd" d="M26.25 15.75H42C44.0205 15.7525 45.9647 14.9783 47.4304 13.5876C48.8961 12.1968 49.7712 10.2959 49.8746 8.27801C49.978 6.26014 49.3018 4.27972 47.9859 2.74642C46.6701 1.21312 44.8152 0.244258 42.805 0.04025C42.5372 0.025375 42.2721 0 42 0H14C10.287 0 6.72601 1.475 4.10051 4.10051C1.475 6.72601 0 10.287 0 14L0 42C0 35.0381 2.76562 28.3613 7.68845 23.4384C12.6113 18.5156 19.2881 15.75 26.25 15.75Z" fill="#FF796C"/>
<path id="Vector_3" fill-rule="evenodd" clip-rule="evenodd" d="M42 28C39.2311 28 36.5243 28.8211 34.222 30.3594C31.9197 31.8978 30.1253 34.0843 29.0657 36.6424C28.0061 39.2006 27.7288 42.0155 28.269 44.7313C28.8092 47.447 30.1426 49.9416 32.1005 51.8995C34.0584 53.8574 36.553 55.1908 39.2687 55.731C41.9845 56.2712 44.7994 55.9939 47.3576 54.9343C49.9157 53.8747 52.1022 52.0803 53.6406 49.778C55.1789 47.4757 56 44.7689 56 42V14C56 17.713 54.525 21.274 51.8995 23.8995C49.274 26.525 45.713 28 42 28Z" fill="#E00047" fill-opacity="0.46"/>
</g>
<path id="Vector_4" d="M38.9375 19.25C40.1456 19.25 41.125 18.2706 41.125 17.0625C41.125 15.8544 40.1456 14.875 38.9375 14.875C37.7294 14.875 36.75 15.8544 36.75 17.0625C36.75 18.2706 37.7294 19.25 38.9375 19.25Z" fill="white"/>
<path id="Vector_5" fill-rule="evenodd" clip-rule="evenodd" d="M28 21C29.3845 21 30.7378 21.4105 31.889 22.1797C33.0401 22.9489 33.9373 24.0421 34.4672 25.3212C34.997 26.6003 35.1356 28.0078 34.8655 29.3656C34.5954 30.7235 33.9287 31.9708 32.9497 32.9497C31.9708 33.9287 30.7235 34.5954 29.3656 34.8655C28.0078 35.1356 26.6003 34.997 25.3212 34.4672C24.0421 33.9373 22.9489 33.0401 22.1797 31.889C21.4105 30.7378 21 29.3845 21 28C21.0009 26.1438 21.7387 24.3638 23.0513 23.0513C24.3638 21.7387 26.1438 21.0009 28 21ZM28 17.5C30.0767 17.5 32.1068 18.1158 33.8335 19.2696C35.5602 20.4233 36.906 22.0632 37.7007 23.9818C38.4955 25.9004 38.7034 28.0116 38.2982 30.0484C37.8931 32.0852 36.8931 33.9562 35.4246 35.4246C33.9562 36.8931 32.0852 37.8931 30.0484 38.2982C28.0116 38.7034 25.9004 38.4955 23.9818 37.7007C22.0632 36.906 20.4233 35.5602 19.2696 33.8335C18.1158 32.1068 17.5 30.0767 17.5 28C17.5014 25.2157 18.6081 22.5457 20.5769 20.5769C22.5457 18.6081 25.2157 17.5014 28 17.5Z" fill="white"/>
<path id="Vector_6" fill-rule="evenodd" clip-rule="evenodd" d="M45.5 19.25C45.5 16.9294 44.5781 14.7038 42.9372 13.0628C41.2962 11.4219 39.0706 10.5 36.75 10.5H19.25C16.9294 10.5 14.7038 11.4219 13.0628 13.0628C11.4219 14.7038 10.5 16.9294 10.5 19.25V36.75C10.5 39.0706 11.4219 41.2962 13.0628 42.9372C14.7038 44.5781 16.9294 45.5 19.25 45.5H36.75C39.0706 45.5 41.2962 44.5781 42.9372 42.9372C44.5781 41.2962 45.5 39.0706 45.5 36.75V19.25ZM49 19.25C49 16.0011 47.7094 12.8853 45.4121 10.5879C43.1147 8.29062 39.9989 7 36.75 7H19.25C16.0011 7 12.8853 8.29062 10.5879 10.5879C8.29062 12.8853 7 16.0011 7 19.25V36.75C7 39.9989 8.29062 43.1147 10.5879 45.4121C12.8853 47.7094 16.0011 49 19.25 49H36.75C39.9989 49 43.1147 47.7094 45.4121 45.4121C47.7094 43.1147 49 39.9989 49 36.75V19.25Z" fill="white"/>
</g>
</g>
<defs>
<clipPath id="clip0_346_1099">
<rect width="56" height="56" fill="white"/>
</clipPath>
</defs>
</svg>
