<svg width="56" height="56" viewBox="0 0 56 56" fill="none" xmlns="http://www.w3.org/2000/svg">
<path fill-rule="evenodd" clip-rule="evenodd" d="M42 56H14C10.287 56 6.72601 54.525 4.10051 51.8995C1.475 49.274 0 45.713 0 42V14C0 10.287 1.475 6.72601 4.10051 4.10051C6.72601 1.475 10.287 0 14 0L42 0C45.713 0 49.274 1.475 51.8995 4.10051C54.525 6.72601 56 10.287 56 14V42C56 45.713 54.525 49.274 51.8995 51.8995C49.274 54.525 45.713 56 42 56Z" fill="#199BDF"/>
<path fill-rule="evenodd" clip-rule="evenodd" d="M26.25 15.75H42C44.0205 15.7525 45.9647 14.9783 47.4304 13.5876C48.8961 12.1968 49.7712 10.2959 49.8746 8.27801C49.978 6.26014 49.3018 4.27972 47.9859 2.74642C46.6701 1.21312 44.8152 0.244258 42.805 0.04025C42.5372 0.025375 42.2721 0 42 0H14C10.287 0 6.72601 1.475 4.1005 4.10051C1.475 6.72601 0 10.287 0 14L0 42C0 35.0381 2.76562 28.3613 7.68845 23.4384C12.6113 18.5156 19.2881 15.75 26.25 15.75Z" fill="#32B4FF"/>
<path fill-rule="evenodd" clip-rule="evenodd" d="M42 28C39.2311 28 36.5243 28.8211 34.222 30.3594C31.9197 31.8978 30.1253 34.0843 29.0657 36.6424C28.0061 39.2006 27.7288 42.0155 28.269 44.7313C28.8092 47.447 30.1426 49.9416 32.1005 51.8995C34.0584 53.8574 36.553 55.1908 39.2687 55.731C41.9845 56.2712 44.7994 55.9939 47.3576 54.9343C49.9157 53.8747 52.1022 52.0803 53.6406 49.778C55.1789 47.4757 56 44.7689 56 42V14C56 17.713 54.525 21.274 51.8995 23.8995C49.274 26.525 45.713 28 42 28Z" fill="#0082BE"/>
<path fill-rule="evenodd" clip-rule="evenodd" d="M39.4448 14.903C39.8749 14.7254 40.3446 14.6654 40.8055 14.729C41.2665 14.7927 41.7023 14.9777 42.0683 15.2652C42.4342 15.5527 42.7171 15.9323 42.8881 16.3651C43.059 16.7979 43.1118 17.2684 43.0411 17.7284L39.1596 42.9625C39.0909 43.4089 38.9082 43.8301 38.6292 44.1852C38.3502 44.5404 37.9843 44.8175 37.5668 44.9899C37.1493 45.1622 36.6944 45.224 36.2461 45.1691C35.7978 45.1142 35.3713 44.9446 35.0077 44.6766L23.5609 36.2425C23.3547 36.0905 23.1845 35.895 23.0621 35.67C22.9397 35.4449 22.8683 35.1958 22.8527 34.9401C22.8372 34.6844 22.878 34.4284 22.9723 34.1902C23.0665 33.952 23.2119 33.7374 23.3982 33.5615L34.0793 23.4736C34.1588 23.3986 34.2074 23.2965 34.2154 23.1874C34.2234 23.0784 34.1903 22.9703 34.1225 22.8844C34.0548 22.7986 33.9574 22.7412 33.8494 22.7236C33.7415 22.706 33.6309 22.7295 33.5394 22.7894L19.4187 31.9988C18.8134 32.3935 18.1332 32.659 17.4206 32.7787C16.708 32.8984 15.9783 32.8697 15.2773 32.6944L8.6518 31.038C8.2944 30.9488 7.97427 30.7491 7.73701 30.4673C7.49975 30.1855 7.35746 29.836 7.33041 29.4686C7.30336 29.1013 7.39293 28.7347 7.58635 28.4212C7.77978 28.1077 8.0672 27.8632 8.40768 27.7226L39.4448 14.903Z" fill="white"/>
</svg>
