<svg width="56" height="56" viewBox="0 0 56 56" fill="none" xmlns="http://www.w3.org/2000/svg">
<g id="Frame" clip-path="url(#clip0_346_1108)">
<g id="Group">
<g id="Group_2">
<path id="Vector" fill-rule="evenodd" clip-rule="evenodd" d="M42 56H14C10.287 56 6.72601 54.525 4.10051 51.8995C1.475 49.274 0 45.713 0 42V14C0 10.287 1.475 6.72601 4.10051 4.10051C6.72601 1.475 10.287 0 14 0L42 0C45.713 0 49.274 1.475 51.8995 4.10051C54.525 6.72601 56 10.287 56 14V42C56 45.713 54.525 49.274 51.8995 51.8995C49.274 54.525 45.713 56 42 56Z" fill="#4682C3"/>
<path id="Vector_2" fill-rule="evenodd" clip-rule="evenodd" d="M26.25 15.75H42C44.0205 15.7525 45.9647 14.9783 47.4304 13.5876C48.8961 12.1968 49.7712 10.2959 49.8746 8.27801C49.978 6.26014 49.3018 4.27972 47.9859 2.74642C46.6701 1.21312 44.8152 0.244258 42.805 0.04025C42.5372 0.025375 42.2721 0 42 0H14C10.287 0 6.72601 1.475 4.10051 4.10051C1.475 6.72601 0 10.287 0 14L0 42C0 35.0381 2.76562 28.3613 7.68845 23.4384C12.6113 18.5156 19.2881 15.75 26.25 15.75Z" fill="#5F9BDC"/>
<path id="Vector_3" fill-rule="evenodd" clip-rule="evenodd" d="M42 28C39.2311 28 36.5243 28.8211 34.222 30.3594C31.9197 31.8978 30.1253 34.0843 29.0657 36.6424C28.0061 39.2006 27.7288 42.0155 28.269 44.7313C28.8092 47.447 30.1426 49.9416 32.1005 51.8995C34.0584 53.8574 36.553 55.1908 39.2687 55.731C41.9845 56.2712 44.7994 55.9939 47.3576 54.9343C49.9157 53.8747 52.1022 52.0803 53.6406 49.778C55.1789 47.4757 56 44.7689 56 42V14C56 17.713 54.525 21.274 51.8995 23.8995C49.274 26.525 45.713 28 42 28Z" fill="#2D69AA"/>
<path id="Vector_4" fill-rule="evenodd" clip-rule="evenodd" d="M46.4782 19.0785C46.7617 18.1878 46.4782 17.5411 45.2226 17.5411H41.0532C40.6647 17.5195 40.2794 17.6214 39.9523 17.8322C39.6252 18.043 39.3732 18.3518 39.2324 18.7145C37.9285 21.7891 36.1973 24.6644 34.09 27.2554C33.1187 28.2266 32.6743 28.5513 32.1475 28.5513C31.864 28.5513 31.5 28.2266 31.5 27.3359V19.0383C31.5 17.9856 31.1754 17.5 30.2855 17.5H23.8927C23.7596 17.4935 23.6265 17.5137 23.5012 17.5592C23.3759 17.6047 23.2609 17.6747 23.1629 17.7651C23.065 17.8555 22.986 17.9645 22.9305 18.0857C22.8751 18.207 22.8444 18.338 22.8401 18.4713C22.8401 19.4836 24.3381 19.726 24.5 22.5601V28.7123C24.5 30.0484 24.2568 30.2916 23.7309 30.2916C22.3134 30.2916 18.3033 25.0696 16.2383 19.1188C15.8331 17.9445 15.4298 17.5 14.3763 17.5H10.1666C8.95213 17.5 8.75 18.0661 8.75 18.6734C8.75 21.3474 16.3082 40.2089 28.5049 40.2089C31.1754 40.2089 31.5 39.6025 31.5 38.5901V34.8259C31.5 33.6105 31.7432 33.4084 32.5929 33.4084C34.7638 33.4084 38.6925 38.2576 39.7075 39.2735C39.9418 39.5692 40.2381 39.8099 40.5755 39.9787C40.913 40.1474 41.2834 40.24 41.6605 40.25H45.8299C47.0444 40.25 47.467 39.5124 47.1441 38.339C46.3934 35.924 41.1705 30.9558 40.8923 30.5751C40.2841 29.7649 40.446 29.442 40.8923 28.7123C40.8511 28.7123 45.9515 21.5075 46.4782 19.0785Z" fill="white"/>
</g>
</g>
</g>
<defs>
<clipPath id="clip0_346_1108">
<rect width="56" height="56" fill="white"/>
</clipPath>
</defs>
</svg>
