<svg width="56" height="56" viewBox="0 0 56 56" fill="none" xmlns="http://www.w3.org/2000/svg">
<g id="Frame">
<g clip-path="url(#clip0_348_1154)">
<g id="Group">
<g id="Group_2">
<path id="Vector" fill-rule="evenodd" clip-rule="evenodd" d="M42 56H14C10.287 56 6.72601 54.525 4.10051 51.8995C1.475 49.274 0 45.713 0 42V14C0 10.287 1.475 6.72601 4.10051 4.10051C6.72601 1.475 10.287 0 14 0L42 0C45.713 0 49.274 1.475 51.8995 4.10051C54.525 6.72601 56 10.287 56 14V42C56 45.713 54.525 49.274 51.8995 51.8995C49.274 54.525 45.713 56 42 56Z" fill="#00D264"/>
<g id="Vector_2" filter="url(#filter0_f_348_1154)">
<path fill-rule="evenodd" clip-rule="evenodd" d="M26.25 15.75H42C44.0205 15.7525 45.9647 14.9783 47.4304 13.5876C48.8961 12.1968 49.7712 10.2959 49.8746 8.27801C49.978 6.26014 49.3018 4.27972 47.9859 2.74642C46.6701 1.21312 44.8152 0.244258 42.805 0.04025C42.5372 0.025375 42.2721 0 42 0H14C10.287 0 6.72601 1.475 4.1005 4.10051C1.475 6.72601 0 10.287 0 14L0 42C0 35.0381 2.76562 28.3613 7.68845 23.4384C12.6113 18.5156 19.2881 15.75 26.25 15.75Z" fill="#00EB78"/>
</g>
<g id="Vector_3" filter="url(#filter1_f_348_1154)">
<path fill-rule="evenodd" clip-rule="evenodd" d="M42 28C39.2311 28 36.5243 28.8211 34.222 30.3594C31.9197 31.8978 30.1253 34.0843 29.0657 36.6424C28.0061 39.2006 27.7288 42.0155 28.269 44.7313C28.8092 47.447 30.1426 49.9416 32.1005 51.8995C34.0584 53.8574 36.553 55.1908 39.2687 55.731C41.9845 56.2712 44.7994 55.9939 47.3576 54.9343C49.9157 53.8747 52.1022 52.0803 53.6406 49.778C55.1789 47.4757 56 44.7689 56 42V14C56 17.713 54.525 21.274 51.8995 23.8995C49.274 26.525 45.713 28 42 28Z" fill="#00B950" fill-opacity="0.92"/>
</g>
<g id="Group_3">
<g id="Vector_4" filter="url(#filter2_d_348_1154)">
<path fill-rule="evenodd" clip-rule="evenodd" d="M18.964 41.2064C19.197 41.1402 19.4411 41.1229 19.681 41.1558C19.9209 41.1886 20.1514 41.2708 20.3579 41.3971C23.837 43.4699 27.9535 44.2001 31.9332 43.4504C35.9129 42.7007 39.4815 40.5227 41.9679 37.3262C44.4544 34.1297 45.6872 30.1348 45.4346 26.093C45.182 22.0512 43.4613 18.241 40.5962 15.3789C37.7311 12.5169 33.919 10.8003 29.8769 10.5519C25.8349 10.3036 21.8413 11.5407 18.6475 14.0305C15.4536 16.5204 13.2794 20.0913 12.534 24.0718C11.7885 28.0523 12.5231 32.168 14.5995 35.6449C14.7254 35.8508 14.8073 36.0806 14.8398 36.3198C14.8723 36.559 14.8549 36.8023 14.7885 37.0344C14.3012 38.759 13.1252 42.875 13.1252 42.875L18.964 41.2064ZM11.5668 37.3923C9.06502 33.1751 8.18882 28.1896 9.10272 23.3721C10.0166 18.5546 12.6578 14.2365 16.5302 11.2285C20.4026 8.22053 25.2399 6.72968 30.1337 7.03591C35.0276 7.34213 39.6413 9.42437 43.1086 12.8916C46.5758 16.3588 48.658 20.9726 48.9643 25.8664C49.2705 30.7603 47.7796 35.5976 44.7717 39.47C41.7637 43.3424 37.4455 45.9836 32.628 46.8975C27.8105 47.8114 22.8251 46.9352 18.6079 44.4334C18.6079 44.4334 13.028 46.0276 10.2648 46.8178C10.1147 46.8605 9.95585 46.8624 9.80476 46.8232C9.65367 46.784 9.5158 46.7051 9.40543 46.5947C9.29505 46.4844 9.21618 46.3465 9.17697 46.1954C9.13776 46.0443 9.13964 45.8855 9.18242 45.7354L11.5668 37.3923Z" fill="white"/>
</g>
<g id="Vector_5" filter="url(#filter3_d_348_1154)">
<path fill-rule="evenodd" clip-rule="evenodd" d="M19.2338 21.6877C19.5059 25.6058 21.178 29.2953 23.9449 32.0828C26.7118 34.8702 30.3888 36.5696 34.3048 36.8708H34.3065C34.9317 36.9191 35.56 36.8316 36.1482 36.6141C36.7364 36.3966 37.2705 36.0543 37.7138 35.6108L38.3245 35C38.6128 34.7114 38.7749 34.3203 38.7751 33.9124V32.6156C38.7751 32.453 38.7298 32.2937 38.6444 32.1554C38.5589 32.0171 38.4367 31.9053 38.2913 31.8325L34.3896 29.8821C34.2253 29.7998 34.0393 29.7713 33.8579 29.8007C33.6765 29.8301 33.509 29.9158 33.379 30.0458L31.6815 31.7432C31.5797 31.8451 31.4543 31.9203 31.3165 31.9621C31.1787 32.0039 31.0327 32.0111 30.8914 31.983L30.8835 31.9812C29.1895 31.6425 27.6337 30.8099 26.4121 29.5883C25.1905 28.3667 24.3579 26.8109 24.0191 25.1169L24.0174 25.109C23.9893 24.9677 23.9965 24.8217 24.0383 24.6839C24.0801 24.5461 24.1553 24.4207 24.2571 24.3189L25.9546 22.6214C26.0846 22.4914 26.1703 22.3239 26.1997 22.1425C26.2291 21.9611 26.2006 21.775 26.1183 21.6107L24.1679 17.7091C24.0951 17.5637 23.9833 17.4415 23.845 17.356C23.7067 17.2706 23.5473 17.2253 23.3848 17.2253H22.2823C22.0205 17.2253 21.7616 17.2803 21.5224 17.3868C21.2832 17.4932 21.069 17.6486 20.8936 17.843L20.3126 18.4887C19.9306 18.9127 19.6378 19.4093 19.4517 19.9488C19.2656 20.4883 19.19 21.0598 19.2294 21.6291L19.2338 21.6877Z" fill="white"/>
</g>
</g>
</g>
</g>
</g>
</g>
<defs>
<filter id="filter0_f_348_1154" x="-5" y="-5" width="59.8848" height="52" filterUnits="userSpaceOnUse" color-interpolation-filters="sRGB">
<feFlood flood-opacity="0" result="BackgroundImageFix"/>
<feBlend mode="normal" in="SourceGraphic" in2="BackgroundImageFix" result="shape"/>
<feGaussianBlur stdDeviation="2.5" result="effect1_foregroundBlur_348_1154"/>
</filter>
<filter id="filter1_f_348_1154" x="23" y="9" width="38" height="52" filterUnits="userSpaceOnUse" color-interpolation-filters="sRGB">
<feFlood flood-opacity="0" result="BackgroundImageFix"/>
<feBlend mode="normal" in="SourceGraphic" in2="BackgroundImageFix" result="shape"/>
<feGaussianBlur stdDeviation="2.5" result="effect1_foregroundBlur_348_1154"/>
</filter>
<filter id="filter2_d_348_1154" x="3.75" y="1.9966" width="50.2534" height="50.2536" filterUnits="userSpaceOnUse" color-interpolation-filters="sRGB">
<feFlood flood-opacity="0" result="BackgroundImageFix"/>
<feColorMatrix in="SourceAlpha" type="matrix" values="0 0 0 0 0 0 0 0 0 0 0 0 0 0 0 0 0 0 127 0" result="hardAlpha"/>
<feOffset/>
<feGaussianBlur stdDeviation="2.5"/>
<feComposite in2="hardAlpha" operator="out"/>
<feColorMatrix type="matrix" values="0 0 0 0 0 0 0 0 0 0 0 0 0 0 0 0 0 0 0.15 0"/>
<feBlend mode="normal" in2="BackgroundImageFix" result="effect1_dropShadow_348_1154"/>
<feBlend mode="normal" in="SourceGraphic" in2="effect1_dropShadow_348_1154" result="shape"/>
</filter>
<filter id="filter3_d_348_1154" x="14.2192" y="12.2253" width="29.5557" height="29.6585" filterUnits="userSpaceOnUse" color-interpolation-filters="sRGB">
<feFlood flood-opacity="0" result="BackgroundImageFix"/>
<feColorMatrix in="SourceAlpha" type="matrix" values="0 0 0 0 0 0 0 0 0 0 0 0 0 0 0 0 0 0 127 0" result="hardAlpha"/>
<feOffset/>
<feGaussianBlur stdDeviation="2.5"/>
<feComposite in2="hardAlpha" operator="out"/>
<feColorMatrix type="matrix" values="0 0 0 0 0 0 0 0 0 0 0 0 0 0 0 0 0 0 0.15 0"/>
<feBlend mode="normal" in2="BackgroundImageFix" result="effect1_dropShadow_348_1154"/>
<feBlend mode="normal" in="SourceGraphic" in2="effect1_dropShadow_348_1154" result="shape"/>
</filter>
<clipPath id="clip0_348_1154">
<rect width="56" height="56" rx="17" fill="white"/>
</clipPath>
</defs>
</svg>
