<svg width="56" height="56" viewBox="0 0 56 56" fill="none" xmlns="http://www.w3.org/2000/svg">
<g id="Frame" clip-path="url(#clip0_346_1115)">
<g id="Group">
<g id="Group_2">
<path id="Vector" fill-rule="evenodd" clip-rule="evenodd" d="M42 56H14C10.287 56 6.72601 54.525 4.10051 51.8995C1.475 49.274 0 45.713 0 42V14C0 10.287 1.475 6.72601 4.10051 4.10051C6.72601 1.475 10.287 0 14 0L42 0C45.713 0 49.274 1.475 51.8995 4.10051C54.525 6.72601 56 10.287 56 14V42C56 45.713 54.525 49.274 51.8995 51.8995C49.274 54.525 45.713 56 42 56Z" fill="#FF9600"/>
<path id="Vector_2" fill-rule="evenodd" clip-rule="evenodd" d="M26.25 15.75H42C44.0205 15.7525 45.9647 14.9783 47.4304 13.5876C48.8961 12.1968 49.7712 10.2959 49.8746 8.27801C49.978 6.26014 49.3018 4.27972 47.9859 2.74642C46.6701 1.21312 44.8152 0.244258 42.805 0.04025C42.5372 0.025375 42.2721 0 42 0H14C10.287 0 6.72601 1.475 4.10051 4.10051C1.475 6.72601 0 10.287 0 14L0 42C0 35.0381 2.76562 28.3613 7.68845 23.4384C12.6113 18.5156 19.2881 15.75 26.25 15.75Z" fill="#FFB400"/>
<path id="Vector_3" fill-rule="evenodd" clip-rule="evenodd" d="M42 28C39.2311 28 36.5243 28.8211 34.222 30.3594C31.9197 31.8978 30.1253 34.0843 29.0657 36.6424C28.0061 39.2006 27.7288 42.0155 28.269 44.7313C28.8092 47.447 30.1426 49.9416 32.1005 51.8995C34.0584 53.8574 36.553 55.1908 39.2687 55.731C41.9845 56.2712 44.7994 55.9939 47.3576 54.9343C49.9157 53.8747 52.1022 52.0803 53.6406 49.778C55.1789 47.4757 56 44.7689 56 42V14C56 17.713 54.525 21.274 51.8995 23.8995C49.274 26.525 45.713 28 42 28Z" fill="#FF7800"/>
</g>
<path id="Vector_4" d="M28.0001 22.7605C27.1389 22.7607 26.297 22.5055 25.5809 22.0271C24.8647 21.5488 24.3065 20.8689 23.9769 20.0733C23.6472 19.2777 23.5608 18.4023 23.7287 17.5576C23.8966 16.713 24.3112 15.9371 24.9201 15.3281C25.529 14.7191 26.3048 14.3043 27.1494 14.1362C27.994 13.9682 28.8695 14.0543 29.6652 14.3838C30.4608 14.7134 31.1409 15.2714 31.6193 15.9875C32.0978 16.7035 32.3532 17.5453 32.3532 18.4065C32.3533 18.9782 32.2408 19.5444 32.0221 20.0726C31.8034 20.6009 31.4827 21.0809 31.0785 21.4852C30.6742 21.8895 30.1943 22.2102 29.6661 22.4291C29.1379 22.6479 28.5718 22.7605 28.0001 22.7605ZM28.0001 7.875C25.9169 7.87483 23.8804 8.49242 22.1482 9.64966C20.4161 10.8069 19.066 12.4518 18.2687 14.3764C17.4714 16.301 17.2628 18.4188 17.6691 20.4619C18.0755 22.5051 19.0786 24.3819 20.5517 25.8549C22.0247 27.3279 23.9015 28.3311 25.9446 28.7374C27.9878 29.1438 30.1056 28.9351 32.0301 28.1379C33.9547 27.3406 35.5996 25.9905 36.7569 24.2583C37.9141 22.5261 38.5317 20.4897 38.5316 18.4065C38.5316 15.6134 37.422 12.9346 35.4469 10.9596C33.4719 8.98457 30.7932 7.875 28.0001 7.875Z" fill="white"/>
<path id="Vector_5" d="M31.8893 37.3187C34.3719 36.8502 36.7202 35.8384 38.766 34.356C39.3585 33.8808 39.7381 33.1897 39.8211 32.4348C39.9042 31.6798 39.6839 30.9227 39.2087 30.3301C38.7336 29.7375 38.0425 29.358 37.2875 29.275C36.5325 29.1919 35.7754 29.4122 35.1828 29.8874C33.0679 31.2998 30.5707 32.0297 28.028 31.9786C25.4688 32.0223 22.9558 31.2935 20.8171 29.8874C20.2245 29.4122 19.4674 29.1919 18.7124 29.275C17.9574 29.358 17.2664 29.7375 16.7912 30.3301C16.3161 30.9227 16.0958 31.6798 16.1788 32.4348C16.2618 33.1897 16.6414 33.8808 17.234 34.356C19.3492 35.8692 21.7747 36.8926 24.3346 37.352L18.2936 43.6651C17.7788 44.2142 17.5008 44.9438 17.5198 45.6962C17.5388 46.4486 17.8532 47.1633 18.395 47.6856C18.9368 48.208 19.6625 48.4961 20.4151 48.4876C21.1677 48.4791 21.8867 48.1747 22.4166 47.6402L28.0288 41.6622L34.2072 47.6787C34.7464 48.2068 35.4723 48.5006 36.227 48.4964C36.9817 48.4921 37.7042 48.1901 38.2375 47.6561C38.7708 47.122 39.0716 46.399 39.0748 45.6443C39.0779 44.8896 38.7829 44.1642 38.2541 43.6257L31.8893 37.3187Z" fill="white"/>
</g>
</g>
<defs>
<clipPath id="clip0_346_1115">
<rect width="56" height="56" fill="white"/>
</clipPath>
</defs>
</svg>
