<svg width="56" height="56" viewBox="0 0 56 56" fill="none" xmlns="http://www.w3.org/2000/svg">
<g id="Frame" clip-path="url(#clip0_346_1123)">
<g id="Group">
<g id="Group_2">
<path id="Vector" fill-rule="evenodd" clip-rule="evenodd" d="M42 56H14C10.287 56 6.72601 54.525 4.10051 51.8995C1.475 49.274 0 45.713 0 42V14C0 10.287 1.475 6.72601 4.10051 4.10051C6.72601 1.475 10.287 0 14 0L42 0C45.713 0 49.274 1.475 51.8995 4.10051C54.525 6.72601 56 10.287 56 14V42C56 45.713 54.525 49.274 51.8995 51.8995C49.274 54.525 45.713 56 42 56Z" fill="#2D0F1E"/>
<path id="Vector_2" fill-rule="evenodd" clip-rule="evenodd" d="M26.25 15.75H42C44.0205 15.7525 45.9647 14.9783 47.4304 13.5876C48.8961 12.1968 49.7712 10.2959 49.8746 8.27801C49.978 6.26014 49.3018 4.27972 47.9859 2.74642C46.6701 1.21312 44.8152 0.244258 42.805 0.04025C42.5372 0.025375 42.2721 0 42 0H14C10.287 0 6.72601 1.475 4.10051 4.10051C1.475 6.72601 0 10.287 0 14L0 42C0 35.0381 2.76562 28.3613 7.68845 23.4384C12.6113 18.5156 19.2881 15.75 26.25 15.75Z" fill="#501432"/>
<path id="Vector_3" fill-rule="evenodd" clip-rule="evenodd" d="M42 28C39.2311 28 36.5243 28.8211 34.222 30.3594C31.9197 31.8978 30.1253 34.0843 29.0657 36.6424C28.0061 39.2006 27.7288 42.0155 28.269 44.7313C28.8092 47.447 30.1426 49.9416 32.1005 51.8995C34.0584 53.8574 36.553 55.1908 39.2687 55.731C41.9845 56.2712 44.7994 55.9939 47.3576 54.9343C49.9157 53.8747 52.1022 52.0803 53.6406 49.778C55.1789 47.4757 56 44.7689 56 42V14C56 17.713 54.525 21.274 51.8995 23.8995C49.274 26.525 45.713 28 42 28Z" fill="black"/>
<path id="Vector_4" fill-rule="evenodd" clip-rule="evenodd" d="M29.75 12.25C29.75 11.7859 29.9344 11.3408 30.2626 11.0126C30.5908 10.6844 31.0359 10.5 31.5 10.5H35.2004C35.6051 10.5001 35.9972 10.6404 36.3101 10.8971C36.6229 11.1538 36.8371 11.511 36.9163 11.9079C37.233 13.4864 38.087 14.9064 39.333 15.9261C40.5791 16.9457 42.14 17.5019 43.75 17.5C44.2141 17.5 44.6593 17.6844 44.9874 18.0126C45.3156 18.3408 45.5 18.7859 45.5 19.25V22.75C45.5 23.2141 45.3156 23.6592 44.9874 23.9874C44.6593 24.3156 44.2141 24.5 43.75 24.5C41.2921 24.5036 38.877 23.8567 36.75 22.6249V36.75C36.75 39.1728 36.0316 41.5412 34.6855 43.5557C33.3395 45.5702 31.4263 47.1404 29.1879 48.0675C26.9495 48.9947 24.4864 49.2373 22.1101 48.7646C19.7339 48.292 17.5511 47.1253 15.8379 45.4121C14.1248 43.6989 12.9581 41.5161 12.4854 39.1399C12.0127 36.7636 12.2553 34.3005 13.1825 32.0621C14.1097 29.8237 15.6798 27.9105 17.6943 26.5645C19.7088 25.2184 22.0772 24.5 24.5 24.5C24.9641 24.5 25.4093 24.6844 25.7374 25.0126C26.0656 25.3408 26.25 25.7859 26.25 26.25V29.75C26.25 30.2141 26.0656 30.6593 25.7374 30.9874C25.4093 31.3156 24.9641 31.5 24.5 31.5C23.4617 31.5 22.4466 31.8079 21.5833 32.3848C20.7199 32.9617 20.047 33.7816 19.6496 34.7409C19.2523 35.7002 19.1483 36.7558 19.3509 37.7742C19.5535 38.7926 20.0535 39.7281 20.7877 40.4623C21.5219 41.1965 22.4574 41.6966 23.4758 41.8991C24.4942 42.1017 25.5498 41.9977 26.5091 41.6004C27.4684 41.203 28.2883 40.5301 28.8652 39.6667C29.4421 38.8034 29.75 37.7884 29.75 36.75V12.25Z" fill="#FE2C55"/>
<path id="Vector_5" fill-rule="evenodd" clip-rule="evenodd" d="M28 10.5C28 10.0359 28.1844 9.59075 28.5126 9.26256C28.8408 8.93437 29.2859 8.75 29.75 8.75H33.4504C33.8551 8.75008 34.2472 8.89042 34.5601 9.14711C34.8729 9.40381 35.0871 9.761 35.1663 10.1579C35.483 11.7364 36.337 13.1564 37.583 14.1761C38.8291 15.1957 40.39 15.7519 42 15.75C42.4641 15.75 42.9093 15.9344 43.2374 16.2626C43.5656 16.5908 43.75 17.0359 43.75 17.5V21C43.75 21.4641 43.5656 21.9092 43.2374 22.2374C42.9093 22.5656 42.4641 22.75 42 22.75C39.5421 22.7536 37.127 22.1067 35 20.8749V35C35 37.4228 34.2816 39.7912 32.9355 41.8057C31.5895 43.8202 29.6763 45.3904 27.4379 46.3175C25.1995 47.2447 22.7364 47.4873 20.3601 47.0146C17.9839 46.542 15.8011 45.3753 14.0879 43.6621C12.3748 41.9489 11.2081 39.7661 10.7354 37.3899C10.2627 35.0136 10.5053 32.5505 11.4325 30.3121C12.3597 28.0737 13.9298 26.1605 15.9443 24.8145C17.9588 23.4684 20.3272 22.75 22.75 22.75C23.2141 22.75 23.6593 22.9344 23.9874 23.2626C24.3156 23.5908 24.5 24.0359 24.5 24.5V28C24.5 28.4641 24.3156 28.9093 23.9874 29.2374C23.6593 29.5656 23.2141 29.75 22.75 29.75C21.7117 29.75 20.6966 30.0579 19.8333 30.6348C18.9699 31.2117 18.297 32.0316 17.8996 32.9909C17.5023 33.9502 17.3983 35.0058 17.6009 36.0242C17.8035 37.0426 18.3035 37.9781 19.0377 38.7123C19.7719 39.4465 20.7074 39.9466 21.7258 40.1491C22.7442 40.3517 23.7998 40.2477 24.7591 39.8504C25.7184 39.453 26.5383 38.7801 27.1152 37.9167C27.6921 37.0534 28 36.0384 28 35V10.5Z" fill="#25F4EE"/>
<path id="Vector_6" fill-rule="evenodd" clip-rule="evenodd" d="M20.0167 39.4835C20.6126 40.4616 21.5119 41.218 22.5777 41.6374C23.6434 42.0568 24.8171 42.1162 25.9197 41.8065C27.0223 41.4969 27.9935 40.8351 28.685 39.9222C29.3766 39.0093 29.7507 37.8953 29.7502 36.75V12.25C29.7502 11.7859 29.9346 11.3408 30.2628 11.0126C30.591 10.6844 31.0361 10.5 31.5002 10.5H35.2006L35.2435 10.5009C35.6549 12.1273 36.6411 13.5499 38.0199 14.5057C38.6618 15.4309 39.5185 16.1867 40.5165 16.7082C41.5145 17.2297 42.6242 17.5014 43.7502 17.5V21C43.7502 21.4641 43.5659 21.9092 43.2377 22.2374C42.9095 22.5656 42.4644 22.75 42.0002 22.75C39.5423 22.7536 37.1272 22.1067 35.0002 20.8749V35C35.0003 37.3174 34.343 39.5872 33.1047 41.546C31.8664 43.5048 30.0979 45.0722 28.0045 46.0662C25.9111 47.0601 23.5787 47.4399 21.2781 47.1614C18.9775 46.883 16.8031 45.9576 15.0074 44.4929C13.5426 42.6971 12.6173 40.5227 12.3388 38.2221C12.0603 35.9215 12.4401 33.5891 13.4341 31.4957C14.428 29.4024 15.9954 27.6338 17.9542 26.3955C19.913 25.1572 22.1828 24.5 24.5002 24.5V28C24.5002 28.4641 24.3159 28.9093 23.9877 29.2374C23.6595 29.5656 23.2144 29.75 22.7502 29.75C21.6049 29.7495 20.4909 30.1236 19.578 30.8152C18.6651 31.5068 18.0034 32.4779 17.6937 33.5805C17.384 34.6832 17.4434 35.8568 17.8628 36.9225C18.2823 37.9883 19.0387 38.8876 20.0167 39.4835Z" fill="white"/>
</g>
</g>
</g>
<defs>
<clipPath id="clip0_346_1123">
<rect width="56" height="56" fill="white"/>
</clipPath>
</defs>
</svg>
