<svg width="39" height="26" viewBox="0 0 39 26" fill="none" xmlns="http://www.w3.org/2000/svg">
<path d="M37.7419 0H20.129L0.685547 13.4566V24.6411H37.7419L39 23.9032V21.5668L38.1812 20.7881V18.5792L39 17.9723V14.3778L38.2636 13.6724V11.4126L39 10.7833V7.18887L38.2636 6.53768V4.55721L39 3.59447V1.25806C39 0.563215 38.4367 0 37.7419 0Z" fill="#E5646E"/>
<path d="M19.5254 3.59447H39V7.18895H19.5254V3.59447ZM19.5 10.7833L20.129 14.3778H39V10.7833H19.5Z" fill="#F2F2F6"/>
<path d="M1.25805 20.129V13.7232L0 14.3778V17.9723L0.533203 18.4268V20.7881L0 21.5668V23.9032C0 24.598 0.563291 25.1613 1.25805 25.1613H37.7419C38.4367 25.1613 39 24.598 39 23.9032H5.0323C2.94785 23.9032 1.25805 22.2135 1.25805 20.129Z" fill="#DB4655"/>
<path d="M20.129 0H1.25805L0.457031 1.25806L1.25805 14.3778H20.129V0Z" fill="#5055A0"/>
<path d="M1.25805 0C0.563291 0 0 0.563215 0 1.25806V14.3778H1.25805V0Z" fill="#3F3F8F"/>
<path d="M2.52221 2.80449C2.17449 2.80449 1.89014 2.52281 1.89014 2.17547C1.89014 1.82812 2.16839 1.54644 2.51612 1.54644H2.52229C2.87001 1.54644 3.15131 1.82812 3.15131 2.17547C3.15131 2.52281 2.86986 2.80449 2.52221 2.80449ZM2.52221 7.83679C2.17449 7.83679 1.89014 7.55511 1.89014 7.20776C1.89014 6.86042 2.16839 6.57873 2.51612 6.57873H2.52229C2.87001 6.57873 3.15131 6.86042 3.15131 7.20776C3.15131 7.55511 2.86986 7.83679 2.52221 7.83679ZM2.52221 12.869C2.17449 12.869 1.89014 12.5873 1.89014 12.24C1.89014 11.8926 2.16839 11.611 2.51612 11.611H2.52229C2.87001 11.611 3.15131 11.8926 3.15131 12.24C3.15131 12.5873 2.86986 12.869 2.52221 12.869Z" fill="white"/>
<path d="M2.52221 5.32068C2.17449 5.32068 1.89014 5.039 1.89014 4.69166C1.89014 4.34431 2.16839 4.06263 2.51612 4.06263H2.52229C2.6049 4.06261 2.6867 4.07887 2.76303 4.11047C2.83936 4.14208 2.90871 4.18841 2.96712 4.24682C3.02554 4.30524 3.07187 4.37459 3.10347 4.45091C3.13508 4.52724 3.15133 4.60905 3.15131 4.69166C3.15131 4.77427 3.13504 4.85607 3.10343 4.93239C3.07181 5.00872 3.02547 5.07806 2.96705 5.13647C2.90863 5.19489 2.83928 5.24122 2.76295 5.27283C2.68663 5.30443 2.60482 5.32069 2.52221 5.32068ZM2.52221 10.3529C2.17449 10.3529 1.89014 10.0712 1.89014 9.72388C1.89014 9.37653 2.16839 9.09485 2.51612 9.09485H2.52229C2.87001 9.09485 3.15131 9.37653 3.15131 9.72388C3.15131 10.0712 2.86986 10.3529 2.52221 10.3529Z" fill="#F2F2F6"/>
<path d="M17.6189 2.80449C17.2712 2.80449 16.9868 2.52281 16.9868 2.17547C16.9868 1.82812 17.2651 1.54644 17.6128 1.54644H17.619C17.9667 1.54644 18.248 1.82812 18.248 2.17547C18.248 2.52281 17.9666 2.80449 17.6189 2.80449ZM17.6189 7.83679C17.2712 7.83679 16.9868 7.55511 16.9868 7.20776C16.9868 6.86042 17.2651 6.57873 17.6128 6.57873H17.619C17.9667 6.57873 18.248 6.86042 18.248 7.20776C18.248 7.55511 17.9666 7.83679 17.6189 7.83679ZM17.6189 12.869C17.2712 12.869 16.9868 12.5873 16.9868 12.24C16.9868 11.8926 17.2651 11.611 17.6128 11.611H17.619C17.9667 11.611 18.248 11.8926 18.248 12.24C18.248 12.5873 17.9666 12.869 17.6189 12.869Z" fill="white"/>
<path d="M17.6192 5.32068C17.2715 5.32068 16.9871 5.039 16.9871 4.69165C16.9871 4.34431 17.2654 4.06263 17.6131 4.06263H17.6193C17.967 4.06263 18.2483 4.34431 18.2483 4.69165C18.2483 5.039 17.9669 5.32068 17.6192 5.32068ZM17.6192 10.3529C17.2715 10.3529 16.9871 10.0712 16.9871 9.72387C16.9871 9.37653 17.2654 9.09484 17.6131 9.09484H17.6193C17.967 9.09484 18.2483 9.37653 18.2483 9.72387C18.2483 10.0712 17.9669 10.3529 17.6192 10.3529ZM6.29663 2.80449C5.9489 2.80449 5.66455 2.52281 5.66455 2.17547C5.66455 1.82812 5.94281 1.54644 6.29053 1.54644H6.2967C6.64443 1.54644 6.92573 1.82812 6.92573 2.17547C6.92573 2.52281 6.64435 2.80449 6.29663 2.80449ZM6.29663 7.83679C5.9489 7.83679 5.66455 7.55511 5.66455 7.20776C5.66455 6.86042 5.94281 6.57873 6.29053 6.57873H6.2967C6.64443 6.57873 6.92573 6.86042 6.92573 7.20776C6.92573 7.55511 6.64435 7.83679 6.29663 7.83679ZM6.29663 12.869C5.9489 12.869 5.66455 12.5873 5.66455 12.24C5.66455 11.8926 5.94281 11.611 6.29053 11.611H6.2967C6.64443 11.611 6.92573 11.8926 6.92573 12.24C6.92573 12.5873 6.64435 12.869 6.29663 12.869Z" fill="#F2F2F6"/>
<path d="M6.2965 5.32068C5.94878 5.32068 5.66443 5.039 5.66443 4.69166C5.66443 4.34431 5.94268 4.06263 6.29041 4.06263H6.29658C6.37919 4.06261 6.46099 4.07886 6.53732 4.11047C6.61364 4.14207 6.683 4.18841 6.74141 4.24682C6.79982 4.30524 6.84616 4.37459 6.87776 4.45091C6.90937 4.52724 6.92562 4.60905 6.9256 4.69166C6.92561 4.77427 6.90935 4.85608 6.87773 4.9324C6.84612 5.00873 6.79978 5.07808 6.74136 5.13649C6.68294 5.19491 6.61358 5.24124 6.53725 5.27284C6.46092 5.30445 6.37911 5.3207 6.2965 5.32068ZM6.2965 10.3529C5.94878 10.3529 5.66443 10.0712 5.66443 9.72387C5.66443 9.37653 5.94268 9.09485 6.29041 9.09485H6.29658C6.6443 9.09485 6.9256 9.37653 6.9256 9.72387C6.9256 10.0712 6.64422 10.3529 6.2965 10.3529ZM4.40942 4.06255C4.06169 4.06255 3.77734 3.78087 3.77734 3.43352C3.77734 3.08618 4.0556 2.8045 4.40332 2.8045H4.40949C4.4921 2.80448 4.57391 2.82073 4.65024 2.85234C4.72656 2.88394 4.79591 2.93028 4.85433 2.98869C4.91274 3.0471 4.95908 3.11646 4.99068 3.19278C5.02228 3.26911 5.03854 3.35091 5.03852 3.43352C5.03853 3.51614 5.02227 3.59795 4.99065 3.67427C4.95904 3.7506 4.9127 3.81995 4.85428 3.87836C4.79586 3.93678 4.7265 3.98311 4.65017 4.01471C4.57384 4.04632 4.49203 4.06257 4.40942 4.06255ZM4.40942 9.09485C4.06169 9.09485 3.77734 8.81316 3.77734 8.46582C3.77734 8.11847 4.0556 7.83679 4.40332 7.83679H4.40949C4.75722 7.83679 5.03852 8.11847 5.03852 8.46582C5.03852 8.81316 4.75714 9.09485 4.40942 9.09485Z" fill="white"/>
<path d="M4.40942 6.57873C4.06169 6.57873 3.77734 6.29705 3.77734 5.94971C3.77734 5.60236 4.0556 5.32068 4.40332 5.32068H4.40949C4.75722 5.32068 5.03852 5.60236 5.03852 5.94971C5.03852 6.29705 4.75714 6.57873 4.40942 6.57873ZM4.40942 11.611C4.06169 11.611 3.77734 11.3293 3.77734 10.9819C3.77734 10.6346 4.0556 10.3529 4.40332 10.3529H4.40949C4.75722 10.3529 5.03852 10.6346 5.03852 10.9819C5.03852 11.3293 4.75714 11.611 4.40942 11.611Z" fill="#F2F2F6"/>
<path d="M10.0706 2.80449C9.72283 2.80449 9.43848 2.52281 9.43848 2.17547C9.43848 1.82812 9.71673 1.54644 10.0645 1.54644H10.0706C10.4184 1.54644 10.6997 1.82812 10.6997 2.17547C10.6997 2.52281 10.4182 2.80449 10.0706 2.80449ZM10.0706 7.83679C9.72283 7.83679 9.43848 7.55511 9.43848 7.20776C9.43848 6.86042 9.71673 6.57873 10.0645 6.57873H10.0706C10.4184 6.57873 10.6997 6.86042 10.6997 7.20776C10.6997 7.55511 10.4182 7.83679 10.0706 7.83679ZM10.0706 12.869C9.72283 12.869 9.43848 12.5873 9.43848 12.24C9.43848 11.8926 9.71673 11.611 10.0645 11.611H10.0706C10.4184 11.611 10.6997 11.8926 10.6997 12.24C10.6997 12.5873 10.4182 12.869 10.0706 12.869Z" fill="white"/>
<path d="M10.0705 5.32068C9.72278 5.32068 9.43843 5.039 9.43843 4.69166C9.43843 4.34431 9.71668 4.06263 10.0644 4.06263H10.0706C10.1532 4.06261 10.235 4.07886 10.3113 4.11047C10.3876 4.14207 10.457 4.18841 10.5154 4.24682C10.5738 4.30524 10.6202 4.37459 10.6518 4.45091C10.6834 4.52724 10.6996 4.60905 10.6996 4.69166C10.6996 4.77427 10.6833 4.85607 10.6517 4.93239C10.6201 5.00871 10.5738 5.07806 10.5153 5.13647C10.4569 5.19488 10.3876 5.24122 10.3112 5.27282C10.2349 5.30443 10.1531 5.32069 10.0705 5.32068ZM10.0705 10.3529C9.72278 10.3529 9.43843 10.0712 9.43843 9.72387C9.43843 9.37653 9.71668 9.09485 10.0644 9.09485H10.0706C10.4183 9.09485 10.6996 9.37653 10.6996 9.72387C10.6996 10.0712 10.4182 10.3529 10.0705 10.3529ZM8.18334 4.06255C7.83562 4.06255 7.55127 3.78087 7.55127 3.43352C7.55127 3.08618 7.82953 2.8045 8.17725 2.8045H8.18342C8.26603 2.80448 8.34784 2.82073 8.42416 2.85234C8.50049 2.88394 8.56984 2.93028 8.62825 2.98869C8.68667 3.0471 8.733 3.11646 8.76461 3.19278C8.79621 3.26911 8.81247 3.35091 8.81245 3.43352C8.81247 3.51614 8.79621 3.59795 8.7646 3.67428C8.73299 3.75062 8.68665 3.81997 8.62823 3.87839C8.5698 3.9368 8.50044 3.98313 8.42411 4.01473C8.34777 4.04633 8.26596 4.06258 8.18334 4.06255ZM8.18334 9.09485C7.83562 9.09485 7.55127 8.81316 7.55127 8.46582C7.55127 8.11847 7.82953 7.83679 8.17725 7.83679H8.18342C8.53114 7.83679 8.81245 8.11847 8.81245 8.46582C8.81245 8.81316 8.53107 9.09485 8.18334 9.09485Z" fill="#F2F2F6"/>
<path d="M8.18334 6.57873C7.83562 6.57873 7.55127 6.29705 7.55127 5.94971C7.55127 5.60236 7.82953 5.32068 8.17725 5.32068H8.18342C8.53114 5.32068 8.81245 5.60236 8.81245 5.94971C8.81245 6.29705 8.53107 6.57873 8.18334 6.57873ZM8.18334 11.611C7.83562 11.611 7.55127 11.3293 7.55127 10.9819C7.55127 10.6346 7.82953 10.3529 8.17725 10.3529H8.18342C8.53114 10.3529 8.81245 10.6346 8.81245 10.9819C8.81245 11.3293 8.53107 11.611 8.18334 11.611Z" fill="white"/>
<path d="M13.8386 2.80449C13.4909 2.80449 13.2065 2.52281 13.2065 2.17547C13.2065 1.82812 13.4848 1.54644 13.8325 1.54644H13.8387C14.1864 1.54644 14.4677 1.82812 14.4677 2.17547C14.4677 2.52281 14.1863 2.80449 13.8386 2.80449ZM13.8386 7.83679C13.4909 7.83679 13.2065 7.55511 13.2065 7.20776C13.2065 6.86042 13.4848 6.57873 13.8325 6.57873H13.8387C14.1864 6.57873 14.4677 6.86042 14.4677 7.20776C14.4677 7.55511 14.1863 7.83679 13.8386 7.83679ZM13.8386 12.869C13.4909 12.869 13.2065 12.5873 13.2065 12.24C13.2065 11.8926 13.4848 11.611 13.8325 11.611H13.8387C14.1864 11.611 14.4677 11.8926 14.4677 12.24C14.4677 12.5873 14.1863 12.869 13.8386 12.869Z" fill="#F2F2F6"/>
<path d="M13.8385 5.32068C13.4908 5.32068 13.2064 5.039 13.2064 4.69166C13.2064 4.34431 13.4847 4.06263 13.8324 4.06263H13.8386C13.9212 4.06261 14.003 4.07886 14.0793 4.11047C14.1556 4.14207 14.225 4.18841 14.2834 4.24682C14.3418 4.30524 14.3882 4.37459 14.4198 4.45091C14.4514 4.52724 14.4676 4.60905 14.4676 4.69166C14.4676 4.77427 14.4513 4.85608 14.4197 4.9324C14.3881 5.00873 14.3418 5.07808 14.2834 5.13649C14.2249 5.19491 14.1556 5.24124 14.0792 5.27284C14.0029 5.30445 13.9211 5.3207 13.8385 5.32068ZM13.8385 10.3529C13.4908 10.3529 13.2064 10.0712 13.2064 9.72387C13.2064 9.37653 13.4847 9.09485 13.8324 9.09485H13.8386C14.1863 9.09485 14.4676 9.37653 14.4676 9.72387C14.4676 10.0712 14.1862 10.3529 13.8385 10.3529ZM11.9514 4.06255C11.6037 4.06255 11.3193 3.78087 11.3193 3.43352C11.3193 3.08618 11.5976 2.8045 11.9453 2.8045H11.9515C12.0341 2.80448 12.1159 2.82073 12.1922 2.85234C12.2686 2.88394 12.3379 2.93028 12.3963 2.98869C12.4547 3.0471 12.5011 3.11646 12.5327 3.19278C12.5643 3.26911 12.5805 3.35091 12.5805 3.43352C12.5805 3.51614 12.5643 3.59795 12.5326 3.67427C12.501 3.7506 12.4547 3.81995 12.3963 3.87836C12.3379 3.93678 12.2685 3.98311 12.1922 4.01471C12.1158 4.04632 12.034 4.06257 11.9514 4.06255ZM11.9514 9.09485C11.6037 9.09485 11.3193 8.81316 11.3193 8.46582C11.3193 8.11847 11.5976 7.83679 11.9453 7.83679H11.9515C12.2992 7.83679 12.5805 8.11847 12.5805 8.46582C12.5805 8.81316 12.2991 9.09485 11.9514 9.09485Z" fill="white"/>
<path d="M11.9514 6.57874C11.6037 6.57874 11.3193 6.29705 11.3193 5.94971C11.3193 5.60237 11.5976 5.32068 11.9453 5.32068H11.9515C12.2992 5.32068 12.5805 5.60237 12.5805 5.94971C12.5805 6.29705 12.2991 6.57874 11.9514 6.57874ZM11.9514 11.611C11.6037 11.611 11.3193 11.3293 11.3193 10.9819C11.3193 10.6346 11.5976 10.3529 11.9453 10.3529H11.9515C12.2992 10.3529 12.5805 10.6346 12.5805 10.9819C12.5805 11.3293 12.2991 11.611 11.9514 11.611ZM15.7317 4.06255C15.384 4.06255 15.0997 3.78087 15.0997 3.43352C15.0997 3.08618 15.3779 2.8045 15.7257 2.8045H15.7318C15.8144 2.80448 15.8962 2.82073 15.9726 2.85234C16.0489 2.88394 16.1182 2.93028 16.1767 2.98869C16.2351 3.0471 16.2814 3.11646 16.313 3.19278C16.3446 3.26911 16.3609 3.35091 16.3608 3.43352C16.3609 3.51614 16.3446 3.59795 16.313 3.67427C16.2814 3.7506 16.235 3.81995 16.1766 3.87836C16.1182 3.93678 16.0488 3.98311 15.9725 4.01471C15.8962 4.04632 15.8144 4.06257 15.7317 4.06255ZM15.7317 9.09485C15.384 9.09485 15.0997 8.81316 15.0997 8.46582C15.0997 8.11847 15.3779 7.83679 15.7257 7.83679H15.7318C16.0795 7.83679 16.3608 8.11847 16.3608 8.46582C16.3608 8.81316 16.0795 9.09485 15.7317 9.09485Z" fill="#F2F2F6"/>
<path d="M15.7322 6.57873C15.3844 6.57873 15.1001 6.29705 15.1001 5.94971C15.1001 5.60236 15.3784 5.32068 15.7261 5.32068H15.7322C16.08 5.32068 16.3613 5.60236 16.3613 5.94971C16.3613 6.29705 16.0799 6.57873 15.7322 6.57873ZM15.7322 11.611C15.3844 11.611 15.1001 11.3293 15.1001 10.9819C15.1001 10.6346 15.3784 10.3529 15.7261 10.3529H15.7322C16.08 10.3529 16.3613 10.6346 16.3613 10.9819C16.3613 11.3293 16.0799 11.611 15.7322 11.611Z" fill="white"/>
<path d="M0.228516 20.5279L1.54324 21.5668H39V17.9723H1.25805L0.228516 20.5279Z" fill="#F2F2F6"/>
<path d="M0 17.9723V21.5668H1.54324C1.35482 21.1108 1.25794 20.6223 1.25813 20.129V17.9722L0 17.9723Z" fill="#E1E1E6"/>
</svg>
