<svg width="30" height="30" viewBox="0 0 30 30" fill="none" xmlns="http://www.w3.org/2000/svg">
<path d="M21.5625 10.3125C23.6336 10.3125 25.3125 8.63357 25.3125 6.5625C25.3125 4.49143 23.6336 2.8125 21.5625 2.8125C19.4914 2.8125 17.8125 4.49143 17.8125 6.5625C17.8125 8.63357 19.4914 10.3125 21.5625 10.3125Z" fill="#23223E"/>
<path d="M9.375 12.1875C9.37432 11.8731 9.40257 11.5593 9.45938 11.25H6.5625C5.3193 11.25 4.12701 11.7439 3.24794 12.6229C2.36886 13.502 1.875 14.6943 1.875 15.9375V20.625C1.875 20.8736 1.97377 21.1121 2.14959 21.2879C2.3254 21.4637 2.56386 21.5625 2.8125 21.5625H6.5625C6.56352 20.2865 6.93653 19.0384 7.63586 17.9711C8.33519 16.9038 9.33051 16.0635 10.5 15.5531C9.77167 14.582 9.37703 13.4014 9.375 12.1875ZM23.4375 11.25H20.5406C20.5974 11.5593 20.6257 11.8731 20.625 12.1875C20.623 13.4014 20.2283 14.582 19.5 15.5531C20.6695 16.0635 21.6648 16.9038 22.3641 17.9711C23.0635 19.0384 23.4365 20.2865 23.4375 21.5625H27.1875C27.4361 21.5625 27.6746 21.4637 27.8504 21.2879C28.0262 21.1121 28.125 20.8736 28.125 20.625V15.9375C28.125 14.6943 27.6311 13.502 26.7521 12.6229C25.873 11.7439 24.6807 11.25 23.4375 11.25Z" fill="#23223E"/>
<path d="M8.4375 10.3125C10.5086 10.3125 12.1875 8.63357 12.1875 6.5625C12.1875 4.49143 10.5086 2.8125 8.4375 2.8125C6.36643 2.8125 4.6875 4.49143 4.6875 6.5625C4.6875 8.63357 6.36643 10.3125 8.4375 10.3125Z" fill="#23223E"/>
<path d="M15 15.9375C17.0711 15.9375 18.75 14.2586 18.75 12.1875C18.75 10.1164 17.0711 8.4375 15 8.4375C12.9289 8.4375 11.25 10.1164 11.25 12.1875C11.25 14.2586 12.9289 15.9375 15 15.9375Z" fill="#23223E"/>
<path d="M16.875 16.875H13.125C11.8818 16.875 10.6895 17.3689 9.81044 18.2479C8.93136 19.127 8.4375 20.3193 8.4375 21.5625V26.25C8.4375 26.4986 8.53627 26.7371 8.71209 26.9129C8.8879 27.0887 9.12636 27.1875 9.375 27.1875H20.625C20.8736 27.1875 21.1121 27.0887 21.2879 26.9129C21.4637 26.7371 21.5625 26.4986 21.5625 26.25V21.5625C21.5625 20.9469 21.4413 20.3374 21.2057 19.7687C20.9701 19.2 20.6248 18.6832 20.1896 18.2479C19.7543 17.8127 19.2375 17.4674 18.6688 17.2318C18.1001 16.9962 17.4906 16.875 16.875 16.875Z" fill="#23223E"/>
</svg>
