<svg width="38" height="38" viewBox="0 0 38 38" fill="none" xmlns="http://www.w3.org/2000/svg">
<g filter="url(#filter0_d_2_36)">
<path fill-rule="evenodd" clip-rule="evenodd" d="M4.0706 27.0822C3.99952 27.2796 3.98175 27.491 4.01894 27.6967C4.05613 27.9024 4.14708 28.0959 4.28339 28.2593C9.46456 30.5045 12.9584 29.9357 19.0002 29.9357C25.042 29.9357 29.7556 30.5045 33.717 28.2593C33.9938 27.9271 34.0734 27.4829 33.9298 27.0822C32.7396 21.4029 33.9298 17.421 19.0002 17.421C4.0706 17.421 5.28699 21.4029 4.0706 27.0822ZM9.85357 27.2452C8.41149 27.2452 7.31954 25.7182 7.64552 24.3134C8.26866 21.6282 9.12639 19.9097 19.0002 19.9097C28.7406 19.9097 29.7069 21.582 30.3295 24.2051C30.669 25.6355 29.5057 27.1911 28.0356 27.1778C24.9632 27.15 22.7613 27.2452 19.0002 27.2452C15.401 27.2452 12.6057 27.2452 9.85357 27.2452ZM19.0002 0C14.6764 0 11.1673 3.34607 11.1673 7.46614C11.1673 11.5862 14.6764 14.9323 19.0002 14.9323C23.3227 14.9323 26.8332 11.5862 26.8332 7.46614C26.8332 3.34607 23.3227 0 19.0002 0ZM19.0002 2.48871C21.8827 2.48871 24.2222 4.7186 24.2222 7.46614C24.2222 10.2137 21.8827 12.4436 19.0002 12.4436C16.1177 12.4436 13.7782 10.2137 13.7782 7.46614C13.7782 4.7186 16.1177 2.48871 19.0002 2.48871Z" fill="url(#paint0_linear_2_36)"/>
</g>
<defs>
<filter id="filter0_d_2_36" x="0" y="0" width="38" height="38" filterUnits="userSpaceOnUse" color-interpolation-filters="sRGB">
<feFlood flood-opacity="0" result="BackgroundImageFix"/>
<feColorMatrix in="SourceAlpha" type="matrix" values="0 0 0 0 0 0 0 0 0 0 0 0 0 0 0 0 0 0 127 0" result="hardAlpha"/>
<feOffset dy="4"/>
<feGaussianBlur stdDeviation="2"/>
<feComposite in2="hardAlpha" operator="out"/>
<feColorMatrix type="matrix" values="0 0 0 0 0 0 0 0 0 0 0 0 0 0 0 0 0 0 0.25 0"/>
<feBlend mode="normal" in2="BackgroundImageFix" result="effect1_dropShadow_2_36"/>
<feBlend mode="normal" in="SourceGraphic" in2="effect1_dropShadow_2_36" result="shape"/>
</filter>
<linearGradient id="paint0_linear_2_36" x1="19" y1="0" x2="19" y2="34.842" gradientUnits="userSpaceOnUse">
<stop stop-color="#70F3E3"/>
<stop offset="1" stop-color="#F859D9"/>
</linearGradient>
</defs>
</svg>
