<svg width="27" height="27" viewBox="0 0 27 27" fill="none" xmlns="http://www.w3.org/2000/svg">
<g clip-path="url(#clip0_149_159)">
<path d="M27 13.5007C27 6.04417 20.9558 0.000488281 13.5002 0.000488281C6.04422 0.000488281 0 6.04417 0 13.5007C0 20.956 6.04422 27.0002 13.5002 27.0002C20.9558 27.0002 27 20.956 27 13.5007Z" fill="#23223E"/>
<path d="M7.52148 9.44677C7.52148 8.68954 7.76457 7.92224 8.25085 7.14504C8.73697 6.36784 9.44658 5.72418 10.3792 5.21396C11.3119 4.7039 12.4 4.44873 13.6435 4.44873C14.7992 4.44873 15.8197 4.6621 16.7045 5.08842C17.5893 5.51495 18.2727 6.09488 18.7551 6.82816C19.2373 7.56167 19.4785 8.35868 19.4785 9.21957C19.4785 9.89719 19.341 10.4912 19.066 11.0012C18.7909 11.5114 18.464 11.9518 18.0855 12.3224C17.7068 12.6931 17.0272 13.3169 16.0468 14.1937C15.7757 14.4409 15.5584 14.6582 15.3951 14.8454C15.2317 15.0328 15.11 15.2042 15.0304 15.3595C14.9506 15.515 14.8888 15.6704 14.8451 15.8259C14.8012 15.9812 14.7354 16.2544 14.6478 16.6449C14.4963 17.474 14.022 17.8885 13.2249 17.8885C12.8104 17.8885 12.4616 17.753 12.1787 17.4819C11.8957 17.211 11.7542 16.8084 11.7542 16.2743C11.7542 15.6047 11.8577 15.0247 12.0651 14.5345C12.2724 14.0442 12.5473 13.6138 12.8902 13.2432C13.2328 12.8725 13.6952 12.4321 14.2772 11.9219C14.7872 11.4756 15.156 11.1387 15.3832 10.9115C15.6089 10.6864 15.8021 10.4308 15.9572 10.1522C16.1126 9.8733 16.1903 9.57046 16.1903 9.24351C16.1903 8.60584 15.9531 8.06781 15.4789 7.62931C15.0045 7.19102 14.3926 6.97166 13.6435 6.97166C12.7665 6.97166 12.1208 7.19287 11.7064 7.63529C11.2918 8.07771 10.9412 8.72937 10.6542 9.59027C10.3831 10.4912 9.86892 10.9414 9.11169 10.9414C8.66514 10.9414 8.28851 10.7841 7.98175 10.4691C7.67489 10.1543 7.52148 9.81349 7.52148 9.44677ZM13.3565 22.5517C12.8702 22.5517 12.4457 22.3942 12.0831 22.0794C11.7203 21.7646 11.539 21.3242 11.539 20.7582C11.539 20.256 11.7142 19.8336 12.0651 19.4907C12.4158 19.1481 12.8462 18.9766 13.3565 18.9766C13.8587 18.9766 14.2811 19.1481 14.6239 19.4907C14.9665 19.8336 15.1381 20.256 15.1381 20.7582C15.1381 21.3162 14.9587 21.7547 14.6 22.0735C14.2413 22.3922 13.8268 22.5517 13.3565 22.5517Z" fill="url(#paint0_linear_149_159)"/>
</g>
<defs>
<linearGradient id="paint0_linear_149_159" x1="8.17821" y1="4.44873" x2="19.925" y2="4.74321" gradientUnits="userSpaceOnUse">
<stop stop-color="#00EFD1"/>
<stop offset="1" stop-color="#00A8A8"/>
</linearGradient>
<clipPath id="clip0_149_159">
<rect width="27" height="27" fill="white"/>
</clipPath>
</defs>
</svg>
