<svg width="33" height="21" viewBox="0 0 33 21" fill="none" xmlns="http://www.w3.org/2000/svg">
<path d="M26.0314 8.19182C25.6269 8.19175 25.2234 8.23422 24.8269 8.31859C24.6794 7.54334 24.3668 6.81341 23.9127 6.1837C23.4586 5.55398 22.8748 5.04088 22.2052 4.68297C21.5356 4.32507 20.7977 4.13169 20.0469 4.11736C19.2961 4.10304 18.552 4.26816 17.8705 4.60029C16.621 0.976518 12.818 -0.894641 9.37622 0.420891C5.93445 1.73642 4.1574 5.74109 5.40688 9.36479C2.39203 9.46507 0.0104298 12.0926 0.0555626 15.2682C0.100903 18.444 2.55639 20.9949 5.57297 21H26.0314C29.3903 21 32.1136 18.1329 32.1136 14.5959C32.1136 11.059 29.3903 8.19182 26.0314 8.19182Z" fill="url(#paint0_linear_207_47)"/>
<path d="M15.4866 10.5029C15.6576 10.5242 16.0583 10.5349 16.6889 10.5349C16.8172 9.65856 16.8813 9.09746 16.8813 8.85165C16.8813 8.59514 16.8759 8.44552 16.8653 8.40277C17.6775 8.09283 18.3455 7.93786 18.8692 7.93786C18.9226 8.11955 18.9493 8.36536 18.9493 8.6753C18.9493 8.97455 18.8585 9.58909 18.6768 10.5189C19.3608 10.5189 19.9486 10.5029 20.4402 10.4708C20.4723 10.6846 20.4883 10.9197 20.4883 11.1762C20.4883 11.8923 20.157 12.2503 19.4944 12.2503C19.2058 12.2503 18.8531 12.2343 18.4363 12.2022C18.4043 12.4053 18.3508 12.6885 18.276 13.0519C18.2119 13.4152 18.1638 13.6931 18.1317 13.8855C18.6875 13.8855 19.302 13.8374 19.9753 13.7412C20.0074 14.158 20.0234 14.3985 20.0234 14.4626C20.0234 15.1359 19.6921 15.4726 19.0295 15.4726C18.5699 15.4726 18.1959 15.4619 17.9073 15.4405C17.7684 16.3596 17.6722 17.1078 17.6187 17.6849C17.3088 17.9093 16.6782 18.0216 15.727 18.0216H15.5507C15.5614 17.8078 15.695 16.9101 15.9515 15.3283C15.8553 15.3176 15.5988 15.3123 15.182 15.3123H14.5567C14.3644 16.4024 14.2468 17.1719 14.2041 17.6208C13.8621 17.888 13.2956 18.0216 12.5047 18.0216H12.1681C12.2001 17.5727 12.3551 16.6803 12.633 15.3443C12.0559 15.3764 11.5642 15.4459 11.1581 15.5527C11.0405 15.0077 10.9657 14.4305 10.9337 13.8214C11.5535 13.7252 12.2108 13.6771 12.9055 13.6771H12.9536C12.9857 13.5274 13.0391 13.2923 13.1139 12.9717C13.1994 12.6404 13.2636 12.3625 13.3063 12.1381C12.494 12.1808 11.9436 12.2396 11.6551 12.3144C11.4734 11.748 11.3719 11.1655 11.3505 10.567C12.0131 10.4922 12.6918 10.4548 13.3865 10.4548H13.5628C13.7017 9.67459 13.7712 9.1509 13.7712 8.88371C13.7712 8.60583 13.7659 8.44552 13.7552 8.40277C14.5461 8.09283 15.1927 7.93786 15.695 7.93786C15.7591 8.11955 15.7912 8.32796 15.7912 8.56308C15.7912 8.78752 15.6896 9.43412 15.4866 10.5029ZM16.1919 13.7572L16.4965 12.09C16.3897 12.0793 16.069 12.0739 15.5347 12.0739H15.214C15.1713 12.2663 15.1018 12.5388 15.0056 12.8915C14.9201 13.2335 14.856 13.5061 14.8132 13.7091L16.1919 13.7572Z" fill="#282743"/>
<defs>
<linearGradient id="paint0_linear_207_47" x1="0.0549316" y1="0" x2="33.8357" y2="3.28364" gradientUnits="userSpaceOnUse">
<stop stop-color="#FB37FF"/>
<stop offset="1" stop-color="#00EFD1"/>
</linearGradient>
</defs>
</svg>
