<svg width="24" height="23" viewBox="0 0 24 23" fill="none" xmlns="http://www.w3.org/2000/svg">
<path d="M7.3901 18.3999C6.84389 18.3999 6.30995 18.5348 5.85579 18.7875C5.40164 19.0402 5.04767 19.3995 4.83864 19.8197C4.62961 20.24 4.57492 20.7025 4.68148 21.1486C4.78804 21.5948 5.05107 22.0046 5.4373 22.3262C5.82353 22.6479 6.31561 22.867 6.85133 22.9557C7.38704 23.0445 7.94232 22.9989 8.44695 22.8248C8.95158 22.6507 9.3829 22.3559 9.68636 21.9777C9.98982 21.5995 10.1518 21.1548 10.1518 20.6999C10.151 20.0901 9.85981 19.5055 9.34206 19.0743C8.82431 18.6431 8.12231 18.4005 7.3901 18.3999ZM7.3901 22.0103C7.07882 22.0103 6.77453 21.9334 6.51571 21.7894C6.25689 21.6453 6.05516 21.4406 5.93604 21.2011C5.81692 20.9616 5.78575 20.6981 5.84648 20.4438C5.90721 20.1895 6.0571 19.956 6.27721 19.7727C6.49732 19.5894 6.77776 19.4645 7.08306 19.4139C7.38836 19.3634 7.70481 19.3893 7.99239 19.4885C8.27998 19.5877 8.52578 19.7557 8.69872 19.9713C8.87166 20.1868 8.96397 20.4403 8.96397 20.6995C8.96356 21.047 8.79761 21.3802 8.50254 21.626C8.20747 21.8717 7.80739 22.0099 7.3901 22.0103Z" fill="url(#paint0_linear_209_48)"/>
<path d="M17.5163 18.3999C16.9701 18.3999 16.4362 18.5348 15.982 18.7875C15.5279 19.0402 15.1739 19.3995 14.9649 19.8197C14.7558 20.24 14.7011 20.7025 14.8077 21.1486C14.9143 21.5948 15.1773 22.0046 15.5635 22.3262C15.9497 22.6479 16.4418 22.867 16.9775 22.9557C17.5133 23.0445 18.0685 22.9989 18.5732 22.8248C19.0778 22.6507 19.5091 22.3559 19.8126 21.9777C20.116 21.5995 20.278 21.1548 20.278 20.6999C20.2772 20.0901 19.986 19.5055 19.4683 19.0743C18.9505 18.6431 18.2485 18.4005 17.5163 18.3999ZM17.5163 22.0103C17.205 22.0103 16.9008 21.9334 16.6419 21.7894C16.3831 21.6453 16.1814 21.4406 16.0623 21.2011C15.9431 20.9616 15.912 20.6981 15.9727 20.4438C16.0334 20.1895 16.1833 19.956 16.4034 19.7727C16.6235 19.5894 16.904 19.4645 17.2093 19.4139C17.5146 19.3634 17.831 19.3893 18.1186 19.4885C18.4062 19.5877 18.652 19.7557 18.8249 19.9713C18.9979 20.1868 19.0902 20.4403 19.0902 20.6995C19.0898 21.047 18.9238 21.3802 18.6288 21.626C18.3337 21.8717 17.9336 22.0099 17.5163 22.0103Z" fill="url(#paint1_linear_209_48)"/>
<path d="M22.5344 3.44949L5.08613 3.17862L4.60749 1.68764C4.45052 1.19709 4.14704 0.769917 3.74022 0.466919C3.3334 0.163921 2.84398 0.000531052 2.3416 0H0.538697C0.402625 0 0.272125 0.0555639 0.175907 0.154468C0.0796895 0.253373 0.0256348 0.387516 0.0256348 0.527388C0.0256348 0.66726 0.0796895 0.801403 0.175907 0.900307C0.272125 0.999212 0.402625 1.05478 0.538697 1.05478H2.3416C2.62822 1.05559 2.90731 1.14922 3.13922 1.32237C3.37112 1.49552 3.54405 1.73938 3.63344 2.01932L4.23788 3.8974L7.02684 12.5613L6.77544 13.1871C6.62619 13.5588 6.56856 13.9626 6.60767 14.3627C6.64678 14.7627 6.78142 15.1467 6.99962 15.4804C7.21783 15.8142 7.51285 16.0873 7.85847 16.2757C8.20409 16.464 8.58961 16.5617 8.98078 16.56H19.3969C19.533 16.56 19.6635 16.5044 19.7597 16.4055C19.8559 16.3066 19.91 16.1725 19.91 16.0326C19.91 15.8927 19.8559 15.7586 19.7597 15.6597C19.6635 15.5608 19.533 15.5052 19.3969 15.5052H8.98078C8.75798 15.5068 8.53825 15.4517 8.34121 15.3447C8.14417 15.2378 7.97594 15.0824 7.85152 14.8924C7.72711 14.7024 7.65038 14.4837 7.62818 14.2558C7.60598 14.0279 7.639 13.7979 7.72429 13.5864L7.92151 13.0974L19.1952 11.9107C19.7974 11.847 20.3655 11.5927 20.8211 11.1829C21.2768 10.7732 21.5974 10.2282 21.739 9.62314L23.0256 4.09939C23.0435 4.02254 23.0443 3.94256 23.0281 3.86534C23.0118 3.78812 22.9789 3.71564 22.9318 3.65325C22.8846 3.59086 22.8244 3.54016 22.7556 3.50489C22.6869 3.46962 22.6113 3.45069 22.5344 3.44949Z" fill="url(#paint2_linear_209_48)"/>
<defs>
<linearGradient id="paint0_linear_209_48" x1="7.3901" y1="1.04989" x2="7.3901" y2="21.2344" gradientUnits="userSpaceOnUse">
<stop stop-color="#00EFD1"/>
<stop offset="1" stop-color="#00ACEA"/>
</linearGradient>
<linearGradient id="paint1_linear_209_48" x1="17.5163" y1="1.04989" x2="17.5163" y2="21.2344" gradientUnits="userSpaceOnUse">
<stop stop-color="#00EFD1"/>
<stop offset="1" stop-color="#00ACEA"/>
</linearGradient>
<linearGradient id="paint2_linear_209_48" x1="0.0256348" y1="0" x2="24.3149" y2="2.14934" gradientUnits="userSpaceOnUse">
<stop stop-color="#FB37FF"/>
<stop offset="1" stop-color="#00EFD1"/>
</linearGradient>
</defs>
</svg>
