<svg width="60" height="60" viewBox="0 0 60 60" fill="none" xmlns="http://www.w3.org/2000/svg">
<rect width="60" height="60" rx="7" fill="url(#paint0_linear_272_111)"/>
<path d="M28.3349 41.9778C28.3349 42.8974 29.0804 43.6429 30 43.6429C30.9196 43.6429 31.6651 42.8974 31.6651 41.9778L28.3349 41.9778ZM31.1774 16.8226C30.5271 16.1723 29.4729 16.1723 28.8226 16.8226L18.2258 27.4194C17.5755 28.0697 17.5755 29.1239 18.2258 29.7742C18.8761 30.4245 19.9304 30.4245 20.5806 29.7742L30 20.3549L39.4194 29.7742C40.0696 30.4245 41.1239 30.4245 41.7742 29.7742C42.4245 29.1239 42.4245 28.0696 41.7742 27.4194L31.1774 16.8226ZM31.6651 41.9778L31.6651 18L28.3349 18L28.3349 41.9778L31.6651 41.9778Z" fill="black"/>
<defs>
<linearGradient id="paint0_linear_272_111" x1="3.29545" y1="5.73311e-06" x2="62.1924" y2="2.23542" gradientUnits="userSpaceOnUse">
<stop stop-color="#00EFD1"/>
<stop offset="1" stop-color="#00A8A8"/>
</linearGradient>
</defs>
</svg>
