<svg width="40" height="40" viewBox="0 0 40 40" fill="none" xmlns="http://www.w3.org/2000/svg">
<path d="M30.418 35.3473C30.8388 36.1008 30.5691 37.0527 29.8155 37.4733C29.3219 37.7488 28.8169 38.0033 28.3017 38.2361C28.1 38.3275 27.881 38.3748 27.6595 38.3749C27.0642 38.3749 26.4955 38.033 26.2346 37.4552C25.8795 36.6687 26.2291 35.7432 27.0155 35.388C27.4499 35.1917 27.8758 34.9771 28.2921 34.7448C29.0456 34.3242 29.9975 34.594 30.418 35.3473ZM35.813 29.7407C35.1205 29.2256 34.1418 29.3695 33.6267 30.0617C33.3421 30.4442 33.0415 30.8146 32.7257 31.1719C32.1542 31.8184 32.2149 32.8059 32.8614 33.3774C33.1466 33.6303 33.5146 33.7697 33.8957 33.7693C34.3279 33.7693 34.7582 33.5909 35.067 33.2416C35.4409 32.8185 35.7969 32.3799 36.134 31.9269C36.6491 31.2346 36.5054 30.2557 35.813 29.7407ZM38.4261 22.413C37.5834 22.2295 36.7505 22.7642 36.567 23.6073C36.4656 24.0727 36.3445 24.5336 36.2041 24.9887C35.9493 25.8132 36.4112 26.688 37.2356 26.9428C37.3893 26.9902 37.5446 27.0128 37.6974 27.0128C38.3646 27.0128 38.9824 26.582 39.1898 25.9111C39.3565 25.3711 39.5002 24.8242 39.6205 24.272C39.8041 23.4289 39.2693 22.5966 38.4261 22.413ZM18.4375 7.5V19.3528L12.7079 25.0823C12.0977 25.6926 12.0977 26.6819 12.7079 27.292C12.8528 27.4374 13.0251 27.5526 13.2147 27.6311C13.4043 27.7097 13.6076 27.75 13.8128 27.7497C14.0181 27.7499 14.2213 27.7096 14.4109 27.6311C14.6005 27.5526 14.7728 27.4373 14.9177 27.292L21.1049 21.1048C21.3979 20.8118 21.5625 20.4144 21.5625 20V7.5C21.5625 6.63703 20.863 5.9375 20 5.9375C19.137 5.9375 18.4375 6.63703 18.4375 7.5ZM38.4375 3.35938C37.5745 3.35938 36.875 4.05891 36.875 4.92188V9.26062C33.2381 3.55687 26.8868 0 20 0C14.6578 0 9.63539 2.08039 5.85781 5.85781C2.08039 9.63539 0 14.6578 0 20C0 25.3422 2.08039 30.3646 5.85781 34.1422C9.63539 37.9196 14.6578 40 20 40C20.0132 40 20.0259 39.9984 20.0391 39.998C20.0522 39.9984 20.0649 40 20.0781 40C20.6413 40 21.2099 39.9762 21.7685 39.9295C22.6284 39.8575 23.2672 39.102 23.1952 38.2421C23.1231 37.3822 22.3687 36.7431 21.5077 36.8155C21.0355 36.8549 20.5546 36.875 20.0781 36.875C20.0649 36.875 20.0522 36.8766 20.0391 36.877C20.0259 36.8766 20.0132 36.875 20 36.875C10.6951 36.875 3.125 29.3049 3.125 20C3.125 10.6951 10.6951 3.125 20 3.125C25.9967 3.125 31.5123 6.32133 34.5262 11.4062H30.2299C29.367 11.4062 28.6674 12.1058 28.6674 12.9688C28.6674 13.8317 29.367 14.5312 30.2299 14.5312H35C35.9174 14.5323 36.8172 14.2794 37.5998 13.8005C37.6481 13.7731 37.6949 13.743 37.7401 13.7105C39.0999 12.8159 40 11.2771 40 9.53125V4.92188C40 4.05891 39.3005 3.35938 38.4375 3.35938Z" fill="url(#paint0_linear_74_152)"/>
<defs>
<linearGradient id="paint0_linear_74_152" x1="2.19697" y1="3.82207e-06" x2="41.4616" y2="1.49028" gradientUnits="userSpaceOnUse">
<stop stop-color="#00EFD1"/>
<stop offset="1" stop-color="#00A8A8"/>
</linearGradient>
</defs>
</svg>
