<svg width="40" height="40" viewBox="0 0 40 40" fill="none" xmlns="http://www.w3.org/2000/svg">
<path d="M34.1421 5.85797C30.3646 2.08031 25.3422 0 19.9999 0C14.6576 0 9.63536 2.08039 5.85793 5.85797C2.08051 9.63547 0.00012207 14.6579 0.00012207 20.0002C0.00012207 25.3424 2.08043 30.3648 5.85793 34.1423C9.63536 37.9197 14.6577 40 19.9999 40C25.3421 40 30.3645 37.9197 34.1421 34.1422C37.9197 30.3648 40 25.3423 40 20.0001C40 14.6578 37.9197 9.63547 34.1421 5.85797ZM35.1615 13.9593C34.433 14.0153 33.8624 13.8038 33.1398 13.536C32.6437 13.3522 32.0814 13.1438 31.4221 13.0127C29.6454 12.6597 27.8229 13.6283 26.7791 15.4805C26.4751 16.0198 25.0215 18.797 26.2584 20.5008C26.7222 21.1395 27.3426 21.5115 27.8413 21.8102C28.5104 22.2112 29.2021 22.6259 29.9858 22.9421C30.1527 23.0095 30.3179 23.0705 30.4776 23.1294C30.9529 23.3048 31.4445 23.4863 31.6203 23.727C31.7188 23.8619 31.8216 24.1656 31.7515 24.8462C31.7046 25.3014 31.5224 25.7982 31.3295 26.3241C30.8543 27.6199 30.2035 29.3948 31.7286 31.1373C31.9951 31.4425 32.3032 31.7087 32.644 31.928C29.4709 35.2897 24.9764 37.3913 19.9999 37.3913C10.4104 37.3913 2.60879 29.5896 2.60879 20.0002C2.60879 18.1524 2.8995 16.3715 3.43575 14.6995C3.71418 15.098 4.02856 15.4522 4.33012 15.7696C5.29851 16.7886 6.36131 17.7134 7.50426 18.5318C7.58903 18.5925 7.70973 18.6789 7.77262 18.7355C7.81559 18.9276 7.79833 19.2042 7.77887 19.5193C7.73747 20.187 7.68067 21.1015 8.18497 22.0637C8.51348 22.6906 8.9734 23.1731 9.37918 23.5989C9.77434 24.0135 10.1156 24.3715 10.211 24.7188C10.2789 24.9662 10.25 25.3304 10.2193 25.716C10.1772 26.2471 10.1293 26.8492 10.2825 27.497C10.4884 28.3675 10.9799 29.0126 11.4135 29.5817C11.6868 29.9405 11.945 30.2795 12.0571 30.5898C12.1434 30.8292 12.1783 31.152 12.2151 31.4937C12.2521 31.8363 12.294 32.2246 12.3964 32.6245C12.7031 33.8226 13.6975 34.9723 15.0394 34.9722C15.1109 34.9722 15.1836 34.9689 15.2571 34.9622C16.6466 34.8352 17.6007 33.5937 17.747 31.7218C17.7707 31.4188 17.833 30.6202 17.9875 30.444C18.0354 30.4249 18.1518 30.3964 18.2382 30.3753C18.6058 30.2853 19.1612 30.1492 19.6201 29.6792C20.4654 28.8136 20.2323 27.7284 20.093 27.08C20.0511 26.8848 20.0036 26.6634 20.0063 26.548C20.0137 26.239 20.6466 25.6984 20.8849 25.4949L23.269 23.4585C24.1972 22.6736 24.5443 21.3082 24.1329 20.0611C23.8392 19.1708 23.189 18.3702 22.2525 17.7459C21.0972 16.9758 19.848 16.7784 18.8259 17.2042C18.4783 17.349 18.1973 17.5476 17.9714 17.7072C17.9031 17.7555 17.813 17.8192 17.7397 17.8657C17.6977 17.8182 17.6613 17.7661 17.6312 17.7102C17.5453 17.5526 17.4681 17.3479 17.3863 17.1312C17.2786 16.846 17.1566 16.5227 16.9761 16.1973C16.0099 14.4563 14.4316 14.2632 13.2793 14.1223C13.0823 14.0982 12.8962 14.0754 12.7107 14.0467C11.7406 13.8966 10.7537 13.4707 9.99614 12.8846C10.2738 12.7848 10.6132 12.7078 10.7958 12.7149C10.928 12.7193 11.0829 12.737 11.2472 12.7556C11.7177 12.8093 12.3031 12.8759 12.934 12.6991C13.571 12.5205 14.0406 12.1538 14.4179 11.8591C14.5255 11.775 14.6272 11.6955 14.7209 11.6298C14.8975 11.5059 15.241 11.4772 15.6047 11.4468C16.5104 11.3712 18.395 11.2139 18.6618 8.59336C18.7938 7.2968 18.3202 6.13602 17.9397 5.20328C17.6232 4.42734 17.3161 3.65719 17.0481 2.86023C18.0232 2.69292 19.0107 2.60879 20 2.60875C22.1589 2.60875 24.2267 3.00539 26.1358 3.7275C26.0786 3.78375 26.0213 3.83992 25.9642 3.89594C25.3844 4.46453 24.7849 5.05258 24.3723 5.58672C24.1979 5.81258 23.906 6.19047 23.8199 6.73469C23.674 7.65797 24.2261 8.36727 24.4619 8.67008C24.8122 9.12031 25.3988 9.87391 26.3676 10.1155C26.5723 10.1667 26.7824 10.1926 26.9934 10.1926C27.7234 10.1926 28.3443 9.88688 28.8257 9.64977C29.1029 9.51328 29.3896 9.37211 29.5609 9.35836C29.724 9.345 30.012 9.43992 30.291 9.53133C30.6983 9.66492 31.16 9.81617 31.7038 9.83594C32.4192 9.86156 33.0536 9.60242 33.5515 9.11312C34.7065 10.5478 35.6386 12.1687 36.2952 13.9234C36.2022 13.9258 36.1075 13.9271 36.023 13.9281C35.7671 13.9314 35.4773 13.9351 35.1615 13.9593Z" fill="url(#paint0_linear_76_279)"/>
<defs>
<linearGradient id="paint0_linear_76_279" x1="2.19708" y1="3.82207e-06" x2="41.4616" y2="1.49027" gradientUnits="userSpaceOnUse">
<stop stop-color="#00EFD1"/>
<stop offset="1" stop-color="#00A8A8"/>
</linearGradient>
</defs>
</svg>
