<svg width="40" height="40" viewBox="0 0 40 40" fill="none" xmlns="http://www.w3.org/2000/svg">
<path d="M12.9191 23.593C12.896 23.5925 12.8729 23.5927 12.8497 23.5937H12.8875C12.8981 23.5937 12.9085 23.593 12.9191 23.593Z" fill="url(#paint0_linear_81_296)"/>
<path d="M14.5281 23.4765C13.9991 23.5454 13.47 23.5914 12.919 23.5931C13.0597 23.5968 13.201 23.6261 13.336 23.683C13.7743 23.8638 14.0749 24.2918 14.0749 24.7656V32.9687H15.2311C15.8789 32.9687 16.403 33.4928 16.403 34.1406C16.403 34.7883 15.8789 35.3124 15.2311 35.3124H10.5437C9.89592 35.3124 9.37178 34.7883 9.37178 34.1406C9.37178 33.4928 9.89592 32.9687 10.5437 32.9687H11.7155V27.5946L11.3722 27.9379C10.9144 28.3956 10.1728 28.3956 9.71506 27.9379C9.25733 27.4802 9.25733 26.7385 9.71506 26.2808L12.0588 23.9371C12.2695 23.7266 12.5521 23.6039 12.8497 23.5937H4.16875C3.02015 25.2577 2.34055 27.2734 2.34055 29.4531C2.34055 31.4452 2.90304 33.367 4.00468 35.0546L0.442189 37.914C0.0438307 38.2187 -0.096794 38.7577 0.0672682 39.2265C0.231174 39.6952 0.676486 40 1.16875 40H12.8875C17.7156 40 21.7469 36.7656 22.989 32.3359C18.8874 31.0233 15.653 27.6718 14.5281 23.4765ZM20.8562 3.65624C20.6951 3.5757 17.9599 9.46572e-10 12.8876 9.46572e-10C7.08382 -7.81239e-05 2.29859 4.83585 2.34094 10.6394C2.35742 12.9022 2.97953 14.6932 4.00468 16.3047L0.442189 19.164C0.0437526 19.4687 -0.096794 20.0078 0.0672682 20.4765C0.231174 20.9453 0.676486 21.25 1.16875 21.25H12.8875C18.9367 21.25 23.4343 16.1845 23.4343 10.5469C23.4343 7.911 22.4591 5.66046 20.8562 3.65624ZM16.403 12.8906C16.403 13.8313 16.0368 14.7148 15.3719 15.3774C14.7116 16.04 13.8281 16.4062 12.8874 16.4062C11.9467 16.4062 11.0632 16.04 10.4006 15.3751C9.73803 14.7148 9.37178 13.8313 9.37178 12.8906C9.37178 12.2429 9.89592 11.7187 10.5437 11.7187C11.1914 11.7187 11.7155 12.2429 11.7155 12.8906C11.7155 13.2042 11.8369 13.4983 12.0577 13.718C12.5018 14.1643 13.2754 14.1621 13.7148 13.7203C13.9379 13.4983 14.0593 13.2042 14.0593 12.8906C14.0593 12.577 13.9379 12.2829 13.7171 12.0632C13.6086 11.9535 13.4794 11.8666 13.3369 11.8074C13.1945 11.7483 13.0416 11.7181 12.8874 11.7187C12.2397 11.7187 11.7155 11.1946 11.7155 10.5469C11.7155 9.89912 12.2397 9.37498 12.8874 9.37498C13.201 9.37498 13.4951 9.25365 13.7148 9.03279C13.8245 8.92433 13.9114 8.79509 13.9706 8.65263C14.0297 8.51017 14.0599 8.35735 14.0593 8.20311C14.0593 7.88952 13.9379 7.59545 13.7171 7.37569C13.273 6.92936 12.4994 6.93163 12.06 7.37342C11.9503 7.48189 11.8634 7.61113 11.8042 7.75359C11.7451 7.89605 11.7149 8.04886 11.7155 8.20311C11.7155 8.85084 11.1914 9.37498 10.5437 9.37498C9.89592 9.37498 9.37178 8.85084 9.37178 8.20311C9.37178 7.26241 9.73803 6.37889 10.4029 5.71632C11.7235 4.39108 14.049 4.38882 15.3742 5.71858C16.0368 6.37889 16.403 7.26241 16.403 8.20311C16.403 9.08084 16.0729 9.90139 15.4899 10.5465C16.0723 11.1903 16.403 12.0117 16.403 12.8906Z" fill="url(#paint1_linear_81_296)"/>
<path d="M39.5385 28.5155L36.7729 26.4296L35.9291 25.7969C37.0117 24.1723 37.6635 22.1653 37.6635 20.0781C37.6635 14.2655 32.7623 9.53125 26.9499 9.53125C26.3963 9.53125 26.3347 9.53867 25.7311 9.62492C25.7545 9.97656 25.7936 10.328 25.7936 10.7031C25.7936 12.1093 25.5437 13.4688 25.1451 14.7343C26.4811 13.9375 28.3327 14.1249 29.4343 15.25C30.0906 15.9062 30.4655 16.7968 30.4655 17.7344C30.4655 18.9059 29.9134 19.88 29.1061 20.4765L27.1842 21.9296C26.6217 22.3515 26.2233 22.9374 26.0123 23.5938H29.2936C29.95 23.5938 30.4655 24.1093 30.4655 24.7656C30.4655 25.4218 29.95 25.9375 29.2936 25.9375H24.6061C23.9498 25.9375 23.4343 25.4218 23.4343 24.7656C23.4343 22.9374 24.3015 21.1796 25.778 20.0781L27.6999 18.6016C27.9733 18.4063 28.1218 18.0745 28.1218 17.7344C28.1218 17.4297 28.0046 17.125 27.7701 16.914C27.3248 16.4687 26.5515 16.4687 26.1296 16.914C25.8951 17.125 25.7779 17.4297 25.7779 17.7344C25.7779 18.3905 25.2624 18.9062 24.6061 18.9062C24.0671 18.9062 23.5983 18.5546 23.4811 18.0391C21.8874 20.3594 19.5436 22.1172 16.8248 22.9844C17.7389 26.2422 20.2233 28.8672 23.3873 29.9922V29.9688C24.4843 30.3348 25.592 30.6251 26.9499 30.6251H38.8354C39.3509 30.6251 39.7962 30.297 39.9368 29.8281C40.101 29.3359 39.9369 28.8202 39.5385 28.5155Z" fill="url(#paint2_linear_81_296)"/>
<defs>
<linearGradient id="paint0_linear_81_296" x1="12.8536" y1="23.5928" x2="12.8605" y2="23.6134" gradientUnits="userSpaceOnUse">
<stop stop-color="#00EFD1"/>
<stop offset="1" stop-color="#00A8A8"/>
</linearGradient>
<linearGradient id="paint1_linear_81_296" x1="1.28716" y1="3.82207e-06" x2="24.3124" y2="0.511993" gradientUnits="userSpaceOnUse">
<stop stop-color="#00EFD1"/>
<stop offset="1" stop-color="#00A8A8"/>
</linearGradient>
<linearGradient id="paint2_linear_81_296" x1="18.0977" y1="9.53125" x2="40.84" y2="10.4796" gradientUnits="userSpaceOnUse">
<stop stop-color="#00EFD1"/>
<stop offset="1" stop-color="#00A8A8"/>
</linearGradient>
</defs>
</svg>
